<?xml version="1.0" standalone="no"?>
<!DOCTYPE svg PUBLIC "-//W3C//DTD SVG 1.1//EN" "http://www.w3.org/Graphics/SVG/1.1/DTD/svg11.dtd" >
<svg>
<metadata>
Created by FontForge 20120731 at Mon Aug 15 14:38:01 2016
 By ,,,
Copyright (c) 2013 Jeremy Mickel, MCKL, Inc. All rights reserved.
</metadata>
<defs>
<font id="SuperiorTitle-Bold" horiz-adv-x="500" >
  <font-face 
    font-family="Superior Title Bold"
    font-weight="600"
    font-stretch="normal"
    units-per-em="1000"
    panose-1="0 0 0 0 0 0 0 0 0 0"
    ascent="750"
    descent="-250"
    x-height="458"
    cap-height="700"
    bbox="-158 -376 1260 972"
    underline-thickness="0"
    underline-position="0"
    unicode-range="U+0020-FB04"
  />
<missing-glyph horiz-adv-x="514" 
d="M60 0v700h394v-700h-394zM257 358l180 333h-361zM262 349l182 -333v669zM251 350l-181 334v-667zM77 9h359l-180 332z" />
    <glyph glyph-name="fi" unicode="fi" horiz-adv-x="641" 
d="M1 437v21h74q1 87 39.5 150t91.5 91t112 28q64 0 104.5 -32.5t40.5 -81.5q0 -32 -20 -53t-52 -21q-28 0 -49 18t-21 49q0 10 4.5 31t4.5 31q0 36 -42 36q-34 0 -51.5 -31t-17.5 -78q0 -22 2.5 -43.5t8 -51t7.5 -42.5h97l227 10l8 -3l-2 -126v-259q0 -64 59 -70v-10h-277
v9q52 6 52 71v251q0 102 -59 106h-103q2 -24 2 -38v-313q0 -71 56 -76v-10h-278v10q56 5 56 76v351h-74z" />
    <glyph glyph-name="fl" unicode="fl" horiz-adv-x="641" 
d="M297 10v-10h-278v10q56 5 56 76v351h-74v21h74q1 68 24.5 122t61 85.5t80.5 48t89 16.5q44 0 85 -11l144 37l8 -3v-673q0 -64 59 -70v-10h-278v9q53 6 53 71v506q0 49 -26.5 83t-68.5 34q-43 0 -65 -27.5t-22 -71.5q0 -22 3 -46t8 -53t7 -47h95v-21h-93q2 -24 2 -38v-313
q0 -71 56 -76z" />
    <glyph glyph-name="f_f_l" unicode="ffl" horiz-adv-x="967" 
d="M75 487q0 62 18 109t48 72.5t63 37.5t68 12q55 0 88 -26t33 -65q0 -29 -17.5 -47.5t-44.5 -18.5q-26 0 -44.5 15.5t-18.5 44.5q0 11 5 29.5t5 25.5q0 22 -25 22q-39 0 -39 -79q0 -30 10.5 -89.5t11.5 -71.5h165q1 68 24.5 122t61 85.5t81 48t89.5 16.5q45 0 84 -11
l144 37l8 -3v-673q0 -64 59 -70v-10h-278v9q53 6 53 71v506q0 49 -26 83t-67 34q-44 0 -66.5 -27.5t-22.5 -71.5q0 -22 3 -46t8 -53t7 -47h93v-21h-91q2 -24 2 -38v-313q0 -71 56 -76v-10h-278v10q56 5 56 76v351h-162q2 -26 2 -38v-313q0 -71 56 -76v-10h-278v10
q56 5 56 76v351h-74v21h74v29z" />
    <glyph glyph-name="f_f" unicode="ff" horiz-adv-x="663" 
d="M272 718q55 0 88 -26t33 -65q0 -29 -17.5 -47.5t-44.5 -18.5q-26 0 -44.5 15.5t-18.5 44.5q0 11 5 29.5t5 25.5q0 22 -25 22q-39 0 -39 -79q0 -30 10.5 -89.5t11.5 -71.5h165v24q0 63 18 110.5t48 73.5t63 39t68 13q61 0 95 -25t34 -65q0 -30 -19.5 -48.5t-48.5 -18.5
q-27 0 -46 15.5t-19 44.5q0 9 3.5 27.5t3.5 25.5q0 23 -23 23q-39 0 -39 -78q0 -23 4 -49t10 -59.5t9 -52.5h94v-21h-91q2 -26 2 -38v-313q0 -71 56 -76v-10h-278v10q56 5 56 76v351h-162q2 -26 2 -38v-313q0 -71 56 -76v-10h-278v10q56 5 56 76v351h-74v21h74v29
q0 62 18 109t48 72.5t63 37.5t68 12z" />
    <glyph glyph-name="f_f_i" unicode="ffi" horiz-adv-x="967" 
d="M644 727q64 0 104.5 -32.5t40.5 -81.5q0 -32 -20 -53t-52 -21q-28 0 -49 18t-21 49q0 10 4.5 31t4.5 31q0 36 -42 36q-34 0 -51.5 -31t-17.5 -78q0 -22 2.5 -43.5t8 -51t7.5 -42.5h97l227 10l8 -3l-2 -126v-259q0 -64 59 -70v-10h-277v9q52 6 52 71v251q0 102 -59 106
h-103q2 -24 2 -38v-313q0 -71 56 -76v-10h-278v10q56 5 56 76v351h-162q2 -26 2 -38v-313q0 -71 56 -76v-10h-278v10q56 5 56 76v351h-74v21h74v29q0 62 18.5 109t48.5 72.5t63 37.5t67 12q58 0 91.5 -27t33.5 -68q0 -30 -18.5 -49t-45.5 -19q-26 0 -45.5 16t-19.5 46
q0 11 5.5 30.5t5.5 26.5q0 23 -26 23q-18 0 -28.5 -20.5t-10.5 -57.5q0 -30 10.5 -89.5t11.5 -71.5h165q2 123 73 196t170 73z" />
    <glyph glyph-name="f_b" unicode="fb" horiz-adv-x="906" 
d="M613 -18q-47 0 -82.5 18.5t-52.5 47.5l-66 -59h-11v597q0 49 -27.5 84t-70.5 35q-39 0 -61.5 -28.5t-22.5 -72.5q0 -22 3 -46t8 -53t7 -47h93v-21h-91q2 -24 2 -38v-313q0 -71 56 -76v-10h-278v10q56 5 56 76v351h-74v21h74q1 68 24.5 122t61.5 85.5t82.5 48t91.5 16.5
q39 0 79 -10l145 36l8 -3v-345q57 68 139 68q83 0 127.5 -63t44.5 -149q0 -120 -81 -201t-184 -81zM619 -3q35 0 62.5 55.5t27.5 161.5q0 91 -26.5 137.5t-72.5 46.5q-25 0 -43 -13v-299q0 -48 16 -68.5t36 -20.5z" />
    <glyph glyph-name="f_h" unicode="fh" horiz-adv-x="930" 
d="M297 10v-10h-278v10q56 5 56 76v351h-74v21h74q1 89 40.5 153t94.5 91.5t116 27.5q45 0 89 -11l144 37l8 -3v-358q77 81 166 81q57 0 91 -33.5t34 -96.5v-265q0 -65 56 -71v-10h-266v9q23 2 33.5 18t10.5 53v249q0 37 -15 56t-40 19q-35 0 -70 -33v-291q0 -66 44 -71v-9
h-263v9q53 6 53 71v506q0 48 -28 82.5t-71 34.5q-41 0 -62 -27.5t-21 -71.5q0 -22 3 -46t8 -53t7 -47h96v-21h-94q2 -24 2 -38v-313q0 -71 56 -76z" />
    <glyph glyph-name="f_j" unicode="fj" horiz-adv-x="632" 
d="M342 437h-103q2 -24 2 -38v-313q0 -71 56 -76v-10h-278v10q56 5 56 76v351h-74v21h74q1 87 39.5 150t91.5 91t112 28q64 0 104.5 -32.5t40.5 -81.5q0 -32 -20 -53t-52 -21q-28 0 -49 18t-21 49q0 10 4.5 31t4.5 31q0 36 -42 36q-34 0 -51.5 -31t-17.5 -78
q0 -22 2.5 -43.5t8 -51t7.5 -42.5h98l226 10l8 -3l-2 -126v-316q0 -129 -59.5 -197.5t-164.5 -68.5q-67 0 -103.5 26t-36.5 65q0 29 19.5 47.5t48.5 18.5q28 0 46.5 -16.5t18.5 -46.5q0 -9 -3.5 -26.5t-3.5 -25.5q0 -24 25 -24q31 0 41.5 22.5t10.5 75.5q0 32 -2.5 116
t-2.5 135v207q0 106 -59 106z" />
    <glyph glyph-name="f_k" unicode="fk" horiz-adv-x="935" 
d="M297 10v-10h-278v10q56 5 56 76v351h-74v21h74q1 90 41.5 153.5t96.5 91t120 27.5q42 0 83 -11l143 37l8 -3v-673q0 -64 59 -70v-10h-278v9q53 6 53 71v506q0 48 -26 82.5t-66 34.5q-45 0 -67.5 -27.5t-22.5 -71.5q0 -22 3 -46t8 -53t7 -47h104v-21h-102q2 -24 2 -38
v-313q0 -71 56 -76zM934 0h-216l-127 210v5l90 93q49 54 47 95t-45 45v10h233v-10q-51 -4 -95.5 -37.5t-104.5 -98.5l121 -196q62 -98 97 -106v-10z" />
    <glyph glyph-name="f_f_b" unicode="ffb" horiz-adv-x="1231" 
d="M214 619q0 -30 10.5 -89.5t11.5 -71.5h165q1 90 42.5 153.5t99.5 91t123 27.5q40 0 74 -9l145 35l8 -3v-344q56 67 138 67q83 0 127.5 -63t44.5 -149q0 -120 -80.5 -201t-184.5 -81q-47 0 -82 18.5t-52 47.5l-66 -59h-11v597q0 48 -25 82.5t-64 34.5q-43 0 -67 -27.5
t-24 -71.5q0 -29 7.5 -82t8.5 -64h96v-21h-94q2 -24 2 -38v-313q0 -71 56 -76v-10h-278v10q56 5 56 76v351h-162q2 -26 2 -38v-313q0 -71 56 -76v-10h-278v10q56 5 56 76v351h-74v21h74v29q0 62 18 109t48 72.5t63 37.5t68 12q55 0 88 -26t33 -65q0 -29 -17.5 -47.5
t-44.5 -18.5q-26 0 -44.5 15.5t-18.5 44.5q0 11 5 29.5t5 25.5q0 22 -25 22q-39 0 -39 -79zM945 -3q35 0 62 55.5t27 161.5q0 91 -26.5 137.5t-72.5 46.5q-23 0 -42 -12v-300q0 -48 16 -68.5t36 -20.5z" />
    <glyph glyph-name="f_f_h" unicode="ffh" horiz-adv-x="1256" 
d="M75 487q0 62 18 109t48 72.5t63 37.5t68 12q55 0 88 -26t33 -65q0 -29 -17.5 -47.5t-44.5 -18.5q-26 0 -44.5 15.5t-18.5 44.5q0 11 5 29.5t5 25.5q0 22 -25 22q-39 0 -39 -79q0 -30 10.5 -89.5t11.5 -71.5h165q1 89 41 153t95 91.5t117 27.5q45 0 87 -11l144 37l8 -3
v-358q77 81 166 81q57 0 91 -33.5t34 -96.5v-265q0 -65 56 -71v-10h-267v9q24 2 34.5 17.5t10.5 53.5v249q0 37 -15 56t-40 19q-35 0 -70 -32v-292q0 -64 44 -71v-9h-262v9q52 8 52 71v506q0 49 -30.5 84t-78.5 35q-36 0 -54.5 -28t-18.5 -73q0 -22 3 -46t8 -53t7 -47h93
v-21h-91q2 -24 2 -38v-313q0 -71 56 -76v-10h-278v10q56 5 56 76v351h-162q2 -26 2 -38v-313q0 -71 56 -76v-10h-278v10q56 5 56 76v351h-74v21h74v29z" />
    <glyph glyph-name="f_f_k" unicode="ffk" horiz-adv-x="1261" 
d="M1260 0h-216l-127 210v5l90 93q49 54 47 95t-45 45v10h232v-10q-50 -4 -94.5 -37t-104.5 -99l121 -196q61 -98 97 -106v-10zM214 619q0 -30 10.5 -89.5t11.5 -71.5h165q1 68 25 122t61.5 85.5t81 48t88.5 16.5t84 -11l144 37l8 -3v-673q0 -64 59 -70v-10h-278v9
q53 6 53 71v506q0 48 -26.5 82.5t-66.5 34.5q-43 0 -66 -27.5t-23 -71.5q0 -22 3 -46t8 -53t7 -47h96v-21h-94q2 -24 2 -38v-313q0 -71 56 -76v-10h-278v10q56 5 56 76v351h-162q2 -26 2 -38v-313q0 -71 56 -76v-10h-278v10q56 5 56 76v351h-74v21h74v29q0 62 18 109
t48 72.5t63 37.5t68 12q55 0 88 -26t33 -65q0 -29 -17.5 -47.5t-44.5 -18.5q-26 0 -44.5 15.5t-18.5 44.5q0 11 5 29.5t5 25.5q0 22 -25 22q-39 0 -39 -79z" />
    <glyph glyph-name="f_f_j" unicode="ffj" horiz-adv-x="958" 
d="M668 437h-103q2 -24 2 -38v-313q0 -71 56 -76v-10h-278v10q56 5 56 76v351h-162q2 -26 2 -38v-313q0 -71 56 -76v-10h-278v10q56 5 56 76v351h-74v21h74v29q0 62 18.5 109t48.5 72.5t63 37.5t67 12q58 0 91.5 -27t33.5 -68q0 -30 -18.5 -49t-45.5 -19q-26 0 -45.5 16
t-19.5 46q0 11 5.5 30.5t5.5 26.5q0 23 -26 23q-18 0 -28.5 -20.5t-10.5 -57.5q0 -30 10.5 -89.5t11.5 -71.5h165q2 125 73.5 197t169.5 72q64 0 104.5 -32.5t40.5 -81.5q0 -32 -20 -53t-52 -21q-28 0 -49 18t-21 49q0 10 4.5 31t4.5 31q0 36 -42 36q-34 0 -51.5 -31
t-17.5 -78q0 -22 2.5 -43.5t8 -51t7.5 -42.5h97l227 10l8 -3l-2 -126v-316q0 -129 -59.5 -197.5t-164.5 -68.5q-68 0 -104 25.5t-36 65.5q0 29 19.5 47.5t48.5 18.5q28 0 46 -16.5t18 -46.5q0 -9 -3 -26.5t-3 -25.5q0 -24 24 -24q31 0 42 22.5t11 75.5q0 32 -2.5 116
t-2.5 135v207q0 102 -59 106z" />
    <glyph glyph-name=".notdef" horiz-adv-x="514" 
d="M60 0v700h394v-700h-394zM257 358l180 333h-361zM262 349l182 -333v669zM251 350l-181 334v-667zM77 9h359l-180 332z" />
    <glyph glyph-name=".null" horiz-adv-x="0" 
 />
    <glyph glyph-name="nonmarkingreturn" horiz-adv-x="333" 
 />
    <glyph glyph-name="space" unicode=" " horiz-adv-x="190" 
 />
    <glyph glyph-name="exclam" unicode="!" horiz-adv-x="295" 
d="M157 231h-21q-7 72 -48 202.5t-41 179.5q0 52 28 82t71 30q44 0 72 -30t28 -82q0 -49 -41.5 -179t-47.5 -203zM57 79q0 36 26.5 62t62.5 26q37 0 63 -26t26 -62q0 -37 -26 -63t-63 -26q-36 0 -62.5 26t-26.5 63z" />
    <glyph glyph-name="quotedbl" unicode="&#x22;" horiz-adv-x="419" 
d="M316 420h-11q-12 39 -45 112t-33 99q0 44 25.5 65.5t58.5 21.5q32 0 57.5 -21.5t25.5 -65.5q0 -26 -33 -99t-45 -112zM114 420h-11q-12 39 -45 112t-33 99q0 44 25.5 65.5t58.5 21.5q32 0 57.5 -21.5t25.5 -65.5q0 -26 -33 -99t-45 -112z" />
    <glyph glyph-name="numbersign" unicode="#" horiz-adv-x="582" 
d="M351 271l55 168h-176l-55 -168h176zM262 0l81 249h-176l-81 -249h-24l81 249h-117l6 22h119l55 168h-127l7 22h127l78 239h24l-78 -239h176l78 239h24l-78 -239h130l-7 -22h-130l-55 -168h138l-6 -22h-140l-81 -249h-24z" />
    <glyph glyph-name="dollar" unicode="$" horiz-adv-x="494" 
d="M137 501q0 -52 83 -94v172q-36 -1 -59.5 -24t-23.5 -54zM330 102q0 56 -87 100v-186q39 3 63 27.5t24 58.5zM243 -80h-23v76q-96 0 -143 29.5t-47 70.5q0 26 18 43.5t47 17.5q47 0 67 -50q1 -3 6 -24.5t8.5 -30t15 -20.5t28.5 -15v197q-93 44 -125 69q-68 54 -68 136
q0 72 52 121.5t141 56.5v73h23v-72q94 1 138.5 -25.5t44.5 -64.5q0 -26 -18 -43.5t-46 -17.5q-53 0 -67 49q-1 3 -5.5 20.5t-8 26t-13.5 19.5t-25 15v-182q7 -3 31.5 -14.5t34 -16t31.5 -16t32.5 -19.5t27 -20.5t25 -25t17.5 -28.5t13 -34t4 -39q0 -76 -61.5 -127.5
t-154.5 -57.5v-77z" />
    <glyph glyph-name="percent" unicode="%" horiz-adv-x="773" 
d="M24 526q0 81 46.5 136t116.5 55t117 -55t47 -136t-47 -136.5t-117 -55.5t-116.5 55.5t-46.5 136.5zM140 533q0 -64 7.5 -107t18 -60t23.5 -17q12 0 22 15.5t16.5 55t6.5 99.5q0 63 -7.5 106t-18 60t-23.5 17q-45 0 -45 -169zM602 700h27l-460 -700h-27zM422 181
q0 81 46.5 136t116.5 55t117 -55t47 -136t-47 -136.5t-117 -55.5t-116.5 55.5t-46.5 136.5zM538 188q0 -64 7.5 -107t18 -60t23.5 -17q12 0 22 15.5t16.5 55t6.5 99.5q0 63 -7.5 106t-18 60t-23.5 17q-45 0 -45 -169z" />
    <glyph glyph-name="ampersand" unicode="&#x26;" horiz-adv-x="749" 
d="M256 625q0 -33 17.5 -68t62.5 -94q39 48 39 125q0 51 -16.5 82.5t-45.5 31.5q-22 0 -39.5 -21t-17.5 -56zM304 50q56 0 106 34l-196 259q-41 -56 -41 -133q0 -71 34 -115.5t97 -44.5zM473 0l-46 61q-95 -79 -204 -79q-96 0 -149 48.5t-53 121.5q0 119 171 220
q-80 109 -80 185q0 73 60.5 118t144.5 45q72 0 121 -33t49 -87q0 -77 -135 -158l175 -224q23 39 39 71q30 73 11.5 110t-72.5 47v12h232v-13q-46 -9 -76 -40t-64 -105q-30 -61 -55 -101l63 -81q42 -54 67 -77t50 -32v-9h-249z" />
    <glyph glyph-name="quotesingle" unicode="'" horiz-adv-x="217" 
d="M114 420h-11q-12 39 -45 112t-33 99q0 44 25.5 65.5t58.5 21.5q32 0 57.5 -21.5t25.5 -65.5q0 -26 -33 -99t-45 -112z" />
    <glyph glyph-name="parenleft" unicode="(" horiz-adv-x="379" 
d="M24 262q0 169 99 293.5t229 149.5l2 -9q-71 -31 -114 -142t-43 -292t43 -292t114 -142l-2 -9q-130 25 -229 149.5t-99 293.5z" />
    <glyph glyph-name="parenright" unicode=")" horiz-adv-x="379" 
d="M27 705q130 -25 229 -149.5t99 -293.5t-99 -293.5t-229 -149.5l-2 9q71 31 114 142t43 292t-43 292t-114 142z" />
    <glyph glyph-name="asterisk" unicode="*" horiz-adv-x="544" 
d="M337 312q0 -27 -18.5 -46.5t-46.5 -19.5q-26 0 -46 19.5t-20 46.5q0 29 27 84.5t30 87.5q-26 -18 -60 -70t-58 -66t-50.5 -6.5t-39.5 31.5q-14 23 -7 48.5t30 39.5q24 14 84.5 16.5t93.5 19.5q-30 15 -91.5 19t-86.5 18q-23 13 -30 40t7 49q14 24 39.5 31t48.5 -7
q24 -14 56 -65t64 -71q-2 32 -29.5 87.5t-27.5 84.5q0 27 19.5 46.5t46.5 19.5q28 0 46.5 -19t18.5 -47t-28 -82t-31 -91q35 18 67.5 71t54.5 66q25 14 49.5 7.5t39.5 -31.5q13 -23 6.5 -49.5t-29.5 -39.5q-25 -14 -86.5 -18t-91.5 -19q33 -16 93 -18.5t85 -17.5
q23 -14 30 -40t-7 -49t-40 -30t-51 6q-23 14 -57.5 66.5t-62.5 70.5q3 -37 31 -91t28 -82z" />
    <glyph glyph-name="plus" unicode="+" horiz-adv-x="606" 
d="M559 286h-240v-242h-31v242h-241v29h241v241h31v-241h240v-29z" />
    <glyph glyph-name="comma" unicode="," horiz-adv-x="304" 
d="M174 -47q0 12 -6 20.5t-13 12t-21.5 9t-21.5 9.5q-53 26 -53 81q0 37 26 63.5t69 26.5q41 0 67.5 -28t26.5 -77q0 -76 -43.5 -140.5t-113.5 -79.5l-6 16q30 5 59.5 34t29.5 53z" />
    <glyph glyph-name="hyphen" unicode="-" horiz-adv-x="381" 
d="M50 314h281v-28h-281v28z" />
    <glyph glyph-name="period" unicode="." horiz-adv-x="305" 
d="M152 -10q-38 0 -65.5 27t-27.5 66q0 38 27.5 65t65.5 27t66 -27t28 -65q0 -39 -27.5 -66t-66.5 -27z" />
    <glyph glyph-name="slash" unicode="/" horiz-adv-x="398" 
d="M359 701h29l-349 -701h-29z" />
    <glyph glyph-name="zero" unicode="0" horiz-adv-x="581" 
d="M30 258q0 115 76 196.5t184 81.5q114 0 187 -79.5t73 -196.5q0 -116 -74.5 -197t-185.5 -81q-112 0 -186 80t-74 196zM374 254q0 129 -24 197t-65 68q-21 -1 -38 -22.5t-29 -81t-12 -151.5q0 -128 23.5 -197.5t62.5 -69.5q22 0 39.5 21.5t30 81.5t12.5 154z" />
    <glyph glyph-name="one" unicode="1" horiz-adv-x="348" 
d="M30 0v10q37 2 54.5 22t17.5 64v254q0 48 -18 65t-83 13v8l244 107l17 -2v-445q0 -45 17 -64.5t55 -21.5v-10h-304z" />
    <glyph glyph-name="two" unicode="2" 
d="M419 0h-409l-5 13l150 145q105 101 105 193q0 50 -28.5 74t-76.5 24q-80 0 -119 -66l-13 4q19 65 79.5 107t140.5 42q93 0 138.5 -37t45.5 -85q0 -40 -34 -82t-116 -110l-109 -90h139q59 0 92.5 20.5t53.5 68.5h17z" />
    <glyph glyph-name="three" unicode="3" horiz-adv-x="520" 
d="M213 -161q-100 0 -152 34t-52 83q0 29 18.5 47.5t47.5 18.5q55 0 70 -64q14 -54 28 -77t45 -23q45 0 77 44.5t32 114.5t-36 117.5t-116 47.5h-48v25q71 5 115.5 42.5t44.5 97.5q0 50 -30.5 78.5t-82.5 28.5q-84 0 -120 -70l-13 5q12 62 78 104.5t150 42.5q77 0 131.5 -38
t54.5 -102q0 -43 -26.5 -87t-83.5 -72q65 -15 107.5 -65t42.5 -117q0 -94 -83.5 -155t-198.5 -61z" />
    <glyph glyph-name="four" unicode="4" horiz-adv-x="640" 
d="M563 14h-89v-155h-157v155h-290l-9 31l318 487h138v-389q90 14 115 89h15zM110 139h207v320z" />
    <glyph glyph-name="five" unicode="5" horiz-adv-x="523" 
d="M224 -161q-103 0 -153.5 35.5t-50.5 80.5q0 29 18.5 48t46.5 19q25 0 44 -16.5t25 -49.5q10 -55 24 -77t48 -22q47 0 79 43t32 115t-36 109t-95 37q-71 0 -122 -44l-33 26l47 377h269q72 0 86 38h14l-38 -171h-324l-17 -138q76 48 168 48q105 0 173 -59t68 -157
q0 -101 -80 -171.5t-193 -70.5z" />
    <glyph glyph-name="six" unicode="6" horiz-adv-x="567" 
d="M283 -18q-106 0 -179 80t-73 214q0 121 66 216t165 143t208 48v-15q-105 -8 -172.5 -89t-85.5 -220q67 79 159 79q74 0 120 -53t46 -139q0 -110 -77.5 -187t-176.5 -77zM290 0q36 0 57.5 47.5t21.5 128.5q0 85 -27 132t-75 47q-34 0 -58 -24q-3 -36 -3 -73
q0 -129 23.5 -193.5t60.5 -64.5z" />
    <glyph glyph-name="seven" unicode="7" horiz-adv-x="520" 
d="M329 -141h-200v10q25 153 94.5 277t199.5 241h-209q-134 0 -165 -92h-15l52 225h418v-57q-226 -258 -175 -604z" />
    <glyph glyph-name="eight" unicode="8" horiz-adv-x="552" 
d="M270 -18q-117 0 -181 49t-64 125q0 58 39 103.5t102 70.5q-101 85 -101 174q0 77 63.5 126.5t155.5 49.5q89 0 146 -41t57 -101q0 -85 -124 -142q78 -54 121 -103.5t43 -114.5q0 -83 -71 -139.5t-186 -56.5zM200 586q0 -47 34.5 -85t103.5 -87q24 33 24 98q0 72 -24 112
t-67 40q-30 0 -50.5 -21.5t-20.5 -56.5zM286 -1q44 0 70 25.5t26 65.5q0 23 -10.5 46t-21.5 39t-39 40.5t-41 34.5t-49 37q-4 3 -11.5 8.5t-11.5 8.5q-38 -48 -38 -127q0 -86 34 -132t92 -46z" />
    <glyph glyph-name="nine" unicode="9" horiz-adv-x="563" 
d="M92 -167v15q104 8 170.5 88t85.5 218q-64 -74 -154 -74q-75 0 -120.5 53t-45.5 139q0 110 77 187t174 77q107 0 180 -80.5t73 -214.5q0 -121 -66.5 -216.5t-166 -143.5t-207.5 -48zM294 163q33 0 58 22q3 36 3 74q0 129 -23.5 194t-60.5 65q-35 0 -56.5 -47.5
t-21.5 -127.5q0 -180 101 -180z" />
    <glyph glyph-name="colon" unicode=":" horiz-adv-x="305" 
d="M152 287q-38 0 -65.5 27t-27.5 66q0 38 27.5 65t65.5 27t66 -27t28 -65q0 -39 -27.5 -66t-66.5 -27zM152 -10q-38 0 -65.5 27t-27.5 66q0 38 27.5 65t65.5 27t66 -27t28 -65q0 -39 -27.5 -66t-66.5 -27z" />
    <glyph glyph-name="semicolon" unicode=";" horiz-adv-x="305" 
d="M152 287q-38 0 -65.5 27t-27.5 66q0 38 27.5 65t65.5 27t66 -27t28 -65q0 -39 -27.5 -66t-66.5 -27zM174 -47q0 12 -6 20.5t-13 12t-21.5 9t-21.5 9.5q-53 26 -53 81q0 37 26 63.5t69 26.5q41 0 67.5 -28t26.5 -77q0 -76 -43.5 -140.5t-113.5 -79.5l-6 16q30 5 59.5 34
t29.5 53z" />
    <glyph glyph-name="less" unicode="&#x3c;" horiz-adv-x="422" 
d="M52 300l304 254l18 -21l-281 -233l280 -233l-19 -20z" />
    <glyph glyph-name="equal" unicode="=" horiz-adv-x="606" 
d="M47 375h512v-29h-512v29zM47 255h512v-29h-512v29z" />
    <glyph glyph-name="greater" unicode="&#x3e;" horiz-adv-x="422" 
d="M370 301l-304 -254l-18 21l281 233l-280 233l19 20z" />
    <glyph glyph-name="question" unicode="?" horiz-adv-x="522" 
d="M258 236h-27q-1 6 -1 16q0 38 15.5 69t33.5 51t33.5 62.5t15.5 99.5q0 75 -28 119.5t-76 44.5q-36 0 -58 -29.5t-22 -74.5q0 -25 10 -50t10 -37q0 -26 -20.5 -44.5t-52.5 -18.5q-34 0 -55.5 24t-21.5 64q0 75 68 130.5t171 55.5q115 0 179 -43t64 -126q0 -57 -35.5 -98
t-103.5 -82q-33 -19 -50 -32t-33 -39.5t-16 -61.5zM162 79q0 36 26 62t63 26q36 0 62.5 -26t26.5 -62q0 -37 -26.5 -63t-62.5 -26q-37 0 -63 26t-26 63z" />
    <glyph glyph-name="at" unicode="@" horiz-adv-x="809" 
d="M369 -158q-138 0 -229.5 93t-91.5 232q0 181 118 306.5t289 125.5q131 0 214 -75t83 -201q0 -123 -59.5 -207t-157.5 -84q-51 0 -81 21.5t-34 57.5q-82 -86 -146 -86q-36 0 -58 28t-22 78q0 70 44 141.5t107.5 115t119.5 43.5q61 0 89 -50l68 45h10l-82 -290
q-20 -73 30 -73q58 0 104 77t46 183q0 116 -78 187t-198 71q-158 0 -271 -120.5t-113 -291.5q0 -131 85 -220t216 -89q137 0 241 75l10 -16q-111 -77 -253 -77zM356 96q29 0 63 35q2 18 5 27l52 181q21 74 -19 74q-43 0 -89.5 -88.5t-46.5 -166.5q0 -62 35 -62z" />
    <glyph glyph-name="A" unicode="A" horiz-adv-x="750" 
d="M297 500l-95 -259h193zM268 10v-10h-258v10q47 10 82 58.5t78 160.5l183 479h58l227 -582q38 -98 102 -116v-10h-353v10q50 10 58.5 39t-23.5 120l-19 50h-208q-60 -191 73 -209z" />
    <glyph glyph-name="B" unicode="B" horiz-adv-x="689" 
d="M363 0h-343v10q78 8 78 104v472q0 96 -78 104v10h341q128 0 194.5 -42t66.5 -115q0 -56 -40.5 -96.5t-118.5 -57.5q96 -17 146 -68.5t50 -120.5q0 -87 -78 -143.5t-218 -56.5zM283 679v-290h24q62 0 95 37.5t33 105.5q0 66 -32 106.5t-94 40.5h-26zM283 21h32
q153 0 153 175q0 84 -40.5 127t-116.5 43h-28v-345z" />
    <glyph glyph-name="C" unicode="C" horiz-adv-x="709" 
d="M624 479l-18 2q-16 93 -66.5 154t-117.5 61q-80 0 -138.5 -84.5t-58.5 -220.5q0 -149 64.5 -227t168.5 -78q62 0 113 28t77 80l17 -5q-35 -99 -110 -153t-175 -54q-146 0 -248 105.5t-102 253.5q0 163 118 271t295 108q138 0 229 -44z" />
    <glyph glyph-name="D" unicode="D" horiz-adv-x="782" 
d="M20 0v10q78 8 78 104v473q0 95 -78 103v10h347q168 0 276.5 -100.5t108.5 -244.5q0 -99 -52.5 -181.5t-140 -128t-188.5 -45.5h-351zM343 679h-59v-658h64q96 0 147 76t51 249q0 161 -56.5 247t-146.5 86z" />
    <glyph glyph-name="E" unicode="E" horiz-adv-x="675" 
d="M639 221l-25 -221h-594v10q36 4 57 25t21 76v472q0 99 -78 107v10h564l30 -187h-15q-52 76 -122.5 121t-145.5 45h-47v-299h40q62 0 111 38t57 90h14v-280h-14q-9 54 -58.5 92.5t-109.5 38.5h-40v-338h66q87 0 163 58.5t109 141.5h17z" />
    <glyph glyph-name="F" unicode="F" horiz-adv-x="644" 
d="M368 10v-10h-348v10q78 8 78 104v469q0 99 -78 107v10h573l21 -224h-18q-100 203 -251 203h-60v-304h21q61 0 110.5 38.5t57.5 90.5h14v-281h-14q-10 55 -59 93t-109 38h-21v-240q0 -96 83 -104z" />
    <glyph glyph-name="G" unicode="G" horiz-adv-x="805" 
d="M723 220v-157q-50 -35 -134.5 -59.5t-167.5 -24.5q-101 0 -189 43.5t-145 130t-57 197.5q0 170 119.5 270t300.5 100q67 0 136 -12t112 -32l-57 -197l-18 2q-13 99 -67.5 157.5t-129.5 58.5q-87 0 -139.5 -84.5t-52.5 -255.5q0 -179 52.5 -267.5t136.5 -88.5
q53 0 86 27.5t33 81.5v110q0 56 -22 78.5t-60 25.5v10h327v-10q-64 -8 -64 -104z" />
    <glyph glyph-name="H" unicode="H" horiz-adv-x="801" 
d="M359 10v-10h-339v10q78 8 78 104v472q0 96 -78 104v10h339v-10q-34 -4 -54 -24.5t-20 -74.5v-218h231v218q0 54 -20 74.5t-54 24.5v10h339v-10q-79 -8 -79 -104v-472q0 -96 79 -104v-10h-339v10q34 4 54 24.5t20 74.5v241h-231v-241q0 -54 20 -74.5t54 -24.5z" />
    <glyph glyph-name="I" unicode="I" horiz-adv-x="384" 
d="M363 700v-10q-78 -8 -78 -104v-472q0 -96 78 -104v-10h-343v10q78 8 78 104v472q0 96 -78 104v10h343z" />
    <glyph glyph-name="J" unicode="J" horiz-adv-x="430" 
d="M338 584v-552q0 -107 -77.5 -180t-189.5 -73q-68 0 -111.5 29t-43.5 77q0 33 20.5 52.5t49.5 19.5t50.5 -18.5t21.5 -51.5q0 -10 -3.5 -29.5t-3.5 -27.5q0 -30 33 -30q31 0 54.5 27t23.5 84q0 21 -5.5 95t-5.5 123v455q0 98 -83 106v10h342v-10q-72 -8 -72 -106z" />
    <glyph glyph-name="K" unicode="K" horiz-adv-x="774" 
d="M367 700v-10q-83 -8 -83 -104v-472q0 -96 83 -104v-10h-347v10q37 3 57.5 26t20.5 78v472q0 97 -78 104v10h347zM769 0h-262l-192 301v15l175 218q36 45 42.5 80.5t-10.5 53t-49 22.5v10h270v-10q-106 -9 -218 -150l-78 -98l187 -296q41 -66 72.5 -96t62.5 -40v-10z" />
    <glyph glyph-name="L" unicode="L" horiz-adv-x="670" 
d="M285 585v-564h71q77 0 158 62t117 170h18l-35 -253h-594v10q78 8 78 103v472q0 97 -78 105v10h349v-10q-84 -8 -84 -105z" />
    <glyph glyph-name="M" unicode="M" horiz-adv-x="1043" 
d="M720 144l-70 434l-197 -591h-17l-176 590l-66 -339q-43 -222 94 -228v-10h-278v10q59 3 97 57.5t62 176.5l58 287q14 67 -14.5 111.5t-91.5 47.5v10h293l121 -396l131 396h282v-10q-62 -3 -88.5 -47t-14.5 -112l66 -385q11 -65 44.5 -99t82.5 -37v-10h-396v10
q98 5 78 134z" />
    <glyph glyph-name="N" unicode="N" horiz-adv-x="777" 
d="M654 -13h-35l-466 562l2 -320q1 -110 40 -163t97 -56v-10h-282v10q52 2 83.5 50t32.5 149l2 304q1 77 -29 125.5t-89 51.5v10h267l354 -428l-3 223q-3 183 -128 195v10h267v-10q-108 -6 -110 -195z" />
    <glyph glyph-name="O" unicode="O" horiz-adv-x="820" 
d="M407 -21q-157 0 -267 107.5t-110 261.5q0 155 113 263.5t270 108.5q156 0 266.5 -107.5t110.5 -261.5q0 -155 -113 -263.5t-270 -108.5zM413 1q76 0 123.5 92t47.5 254q0 171 -51.5 261t-126.5 90t-123.5 -92.5t-48.5 -253.5q0 -170 52.5 -260.5t126.5 -90.5z" />
    <glyph glyph-name="P" unicode="P" horiz-adv-x="673" 
d="M367 10v-10h-347v10q78 8 78 104v476q0 54 -21 75t-57 25v10h336q145 0 221.5 -59.5t76.5 -154.5q0 -98 -82.5 -162t-222.5 -64h-65v-146q0 -96 83 -104zM284 679v-395h29q76 0 114.5 53t38.5 149q0 193 -142 193h-40z" />
    <glyph glyph-name="Q" unicode="Q" horiz-adv-x="820" 
d="M530 -292q-64 0 -160.5 42.5t-146.5 42.5q-48 0 -80 -26l-11 5q41 79 111.5 134.5t140.5 73.5q-148 8 -251 114t-103 254q0 155 113.5 263.5t269.5 108.5t266.5 -107.5t110.5 -261.5q0 -125 -76.5 -222.5t-203.5 -135.5q-22 -6 -64 -17.5t-62.5 -18t-51.5 -20.5t-58 -33
q44 13 88.5 2.5t74 -28t73.5 -34t86 -16.5t69 19.5t45 68.5l15 -3q-44 -205 -195 -205zM234 352q0 -170 52.5 -260.5t126.5 -90.5q76 0 123.5 92t47.5 254q0 170 -52 260.5t-126 90.5q-75 0 -123.5 -92.5t-48.5 -253.5z" />
    <glyph glyph-name="R" unicode="R" horiz-adv-x="744" 
d="M284 679v-366h36q70 0 107 50t37 138q0 178 -133 178h-47zM358 10v-10h-338v10q78 8 78 106v469q0 97 -78 105v10h350q134 0 208 -56t74 -143q0 -58 -35 -105.5t-97 -74.5l101 -192q31 -61 55.5 -85t57.5 -34v-10h-251l-146 290h-53v-174q0 -98 74 -106z" />
    <glyph glyph-name="S" unicode="S" horiz-adv-x="604" 
d="M565 211q0 -97 -79 -164.5t-205 -67.5q-70 0 -142 15.5t-107 35.5l44 206l17 -2q50 -235 200 -235q59 0 95 29t36 76q0 40 -28 72t-70.5 52t-91.5 45t-91.5 50.5t-70.5 69.5t-28 101q0 95 74.5 160.5t190.5 65.5q125 0 222 -47l-49 -181l-18 2q-18 104 -57.5 155
t-107.5 51q-53 0 -90.5 -26.5t-37.5 -75.5q0 -35 21.5 -63t56.5 -46.5t77 -36t84 -38.5t77 -46t56.5 -65.5t21.5 -91.5z" />
    <glyph glyph-name="T" unicode="T" horiz-adv-x="671" 
d="M34 700h604l25 -219h-13l-29 53q-45 81 -83.5 113t-84.5 32h-23v-567q0 -55 22.5 -76.5t60.5 -25.5v-10h-353v10q38 4 60.5 25.5t22.5 76.5v567h-21q-51 0 -93 -34.5t-84 -116.5l-25 -47h-12z" />
    <glyph glyph-name="U" unicode="U" horiz-adv-x="748" 
d="M638 460l-2 -192q-2 -140 -67 -214.5t-196 -74.5q-138 0 -208.5 70.5t-70.5 193.5v343q0 96 -83 104v10h352v-10q-83 -8 -83 -104v-383q0 -75 40.5 -120t114.5 -45q82 0 129 59.5t47 184.5v183q0 102 -30.5 162t-92.5 63v10h251v-10q-56 -3 -78 -61t-23 -169z" />
    <glyph glyph-name="V" unicode="V" horiz-adv-x="750" 
d="M397 -11h-58l-232 598q-33 85 -97 103v10h352v-10q-48 -9 -56 -41t22 -118l123 -332l92 246q44 122 28.5 179t-89.5 66v10h258v-10q-43 -5 -80 -54t-81 -165z" />
    <glyph glyph-name="W" unicode="W" horiz-adv-x="1119" 
d="M728 -11l-171 446l-167 -446h-52l-210 549q-29 76 -56 110t-62 42v10h343v-10q-44 -8 -52.5 -32.5t15.5 -94.5l133 -353l95 259l-40 105q-37 100 -88 116v10h319v-10q-39 -7 -46.5 -32.5t16.5 -91.5l131 -342l73 212q39 122 21 184.5t-84 69.5v10h264v-10
q-90 -5 -154 -192l-177 -509h-51z" />
    <glyph glyph-name="X" unicode="X" horiz-adv-x="750" 
d="M303 10v-10h-288v10q106 19 210 177l78 117l-169 280q-32 52 -56 75t-55 31v10h349v-10q-39 -5 -48.5 -29t9.5 -55l103 -176l51 79q43 72 30 121t-66 60v10h273v-10q-107 -17 -211 -180l-65 -101l175 -293q56 -95 112 -106v-10h-349v10q38 5 46.5 30.5t-14.5 64.5
l-103 177l-57 -88q-46 -77 -29.5 -126t74.5 -58z" />
    <glyph glyph-name="Y" unicode="Y" horiz-adv-x="710" 
d="M520 0h-352v10q83 8 83 104v186l-148 287q-26 48 -47 70.5t-46 32.5v10h331v-10q-33 -3 -44 -32t8 -66l123 -251l72 146q90 179 -42 203v10h243v-10q-33 -2 -74.5 -44.5t-78.5 -116.5l-111 -223v-192q0 -96 83 -104v-10z" />
    <glyph glyph-name="Z" unicode="Z" horiz-adv-x="655" 
d="M26 0l-4 12l378 670h-67q-83 0 -157 -52t-115 -132h-16l37 202h520l5 -12l-373 -670h81q85 0 160 56t125 159h15l-27 -233h-562z" />
    <glyph glyph-name="bracketleft" unicode="[" horiz-adv-x="346" 
d="M50 -179v879h276v-17h-105v-845h105v-17h-276z" />
    <glyph glyph-name="backslash" unicode="\" horiz-adv-x="404" 
d="M10 700h30l354 -700h-30z" />
    <glyph glyph-name="bracketright" unicode="]" horiz-adv-x="346" 
d="M296 700v-879h-276v17h105v845h-105v17h276z" />
    <glyph glyph-name="asciicircum" unicode="^" horiz-adv-x="478" 
d="M430 290l-189 161l-196 -161l-10 5l159 273h95l154 -273z" />
    <glyph glyph-name="underscore" unicode="_" horiz-adv-x="486" 
d="M-10 -70h506v-23h-506v23z" />
    <glyph glyph-name="grave" unicode="`" 
d="M359 523h-13l-157 67q-48 21 -48 63q0 23 15.5 39t37.5 16q29 0 52 -31z" />
    <glyph glyph-name="a" unicode="a" horiz-adv-x="526" 
d="M235 52q26 0 48 18q-3 16 -3 36v156q-106 -41 -106 -133q0 -38 17.5 -57.5t43.5 -19.5zM385 -16q-76 0 -97 66q-66 -68 -149 -68q-49 0 -83.5 29t-34.5 80q0 60 56.5 104.5t202.5 83.5v88q0 51 -10 72t-32 21q-21 0 -28.5 -12t-12 -41.5t-10.5 -45.5q-21 -58 -75 -58
q-28 0 -46.5 18t-18.5 47q0 47 50.5 77.5t144.5 30.5q101 0 153 -42.5t52 -116.5v-229q0 -40 29 -40q22 0 39 24l10 -7q-48 -81 -140 -81z" />
    <glyph glyph-name="b" unicode="b" horiz-adv-x="574" 
d="M281 -18q-47 0 -82 18.5t-52 47.5l-66 -59h-11v629q0 41 -17.5 57t-44.5 14v10l220 57l8 -3v-355q58 78 139 78q78 0 124.5 -59.5t46.5 -150.5q0 -121 -80.5 -202.5t-184.5 -81.5zM287 -2q37 0 63.5 56t26.5 156q0 89 -26 133.5t-71 44.5q-24 0 -44 -14v-288
q0 -44 14.5 -66t36.5 -22z" />
    <glyph glyph-name="c" unicode="c" horiz-adv-x="491" 
d="M324 356q-3 8 -9 30t-10.5 35t-15.5 25t-26 12q-31 0 -52 -44.5t-21 -123.5q0 -98 39.5 -151.5t107.5 -53.5q81 0 122 75l12 -5q-23 -84 -78.5 -128.5t-135.5 -44.5q-96 0 -163 66.5t-67 171.5q0 110 73.5 183t185.5 73q81 0 126 -32t45 -73q0 -27 -18.5 -45t-48.5 -18
q-49 0 -66 48z" />
    <glyph glyph-name="d" unicode="d" horiz-adv-x="569" 
d="M288 68q24 0 44 15v327q-12 51 -50 51q-37 0 -64 -62t-27 -157q0 -88 27 -131t70 -43zM335 -12v74q-58 -80 -138 -80q-73 0 -121.5 58t-48.5 152q0 119 77.5 201.5t181.5 82.5q22 0 46 -7v149q0 41 -17.5 57t-44.5 14v10l220 57l8 -3v-654q0 -42 16.5 -60t41.5 -16v-10
l-213 -28z" />
    <glyph glyph-name="e" unicode="e" horiz-adv-x="495" 
d="M469 157q-21 -81 -77.5 -128t-134.5 -47q-96 0 -163 68t-67 170q0 107 71.5 181.5t168.5 74.5q88 0 144.5 -57.5t60.5 -152.5h-286q4 -87 43.5 -134.5t101.5 -47.5q85 0 127 76zM266 458q-32 0 -56 -47.5t-24 -123.5h136q3 171 -56 171z" />
    <glyph glyph-name="f" unicode="f" horiz-adv-x="337" 
d="M297 10v-10h-278v10q56 5 56 76v351h-74v21h74v29q0 119 60 175.5t137 56.5q60 0 94 -25.5t34 -65.5q0 -31 -18.5 -50t-46.5 -19t-46.5 15.5t-18.5 44.5q0 9 3.5 27.5t3.5 25.5q0 26 -23 26q-40 0 -40 -79q0 -30 10.5 -89.5t11.5 -71.5h94v-21h-91q2 -26 2 -38v-313
q0 -71 56 -76z" />
    <glyph glyph-name="g" unicode="g" horiz-adv-x="534" 
d="M195 308q0 -75 20 -113t49 -38q28 0 49 38.5t21 111.5t-21 111.5t-49 38.5q-29 0 -49 -38t-20 -111zM528 -61q0 -75 -81.5 -131t-220.5 -56q-111 0 -174 31.5t-63 82.5q0 69 100 102q-47 31 -47 87q0 71 85 114q-41 22 -65.5 57t-24.5 75q0 71 67.5 123t156.5 52
q51 0 100 -18h160v-23h-52q-43 0 -61 1q83 -50 83 -128q0 -74 -71 -122.5t-161 -48.5q-60 0 -108 21q-28 -17 -26 -40q1 -16 15.5 -23t57.5 -10l149 -7q85 -5 133 -41.5t48 -97.5zM243 -229q73 0 115.5 29t42.5 70q0 57 -59 60l-139 6q-39 2 -72 12q-30 -26 -30 -69
q0 -52 37.5 -80t104.5 -28z" />
    <glyph glyph-name="h" unicode="h" horiz-adv-x="603" 
d="M284 9v-9h-263v10q53 6 53 71v537q0 41 -17.5 57t-44.5 14v10l220 57l8 -3v-358q77 81 166 81q57 0 91 -33.5t34 -96.5v-265q0 -65 56 -71v-10h-266v9q23 2 33.5 18t10.5 53v249q0 36 -15 54.5t-40 18.5q-35 0 -70 -32v-290q0 -66 44 -71z" />
    <glyph glyph-name="i" unicode="i" horiz-adv-x="317" 
d="M60 621q0 40 29 68.5t68 28.5q41 0 69.5 -28t28.5 -69q0 -39 -28.5 -66.5t-69.5 -27.5q-39 0 -68 28t-29 66zM302 0h-281v10q56 6 56 71v252q0 40 -19 56t-47 14v10l226 62l8 -3l-2 -129v-262q0 -65 59 -71v-10z" />
    <glyph glyph-name="j" unicode="j" horiz-adv-x="305" 
d="M57 621q0 40 28.5 68.5t68.5 28.5q41 0 69.5 -28t28.5 -69q0 -39 -28.5 -66.5t-69.5 -27.5q-40 0 -68.5 28t-28.5 66zM16 -243q-67 0 -103.5 26t-36.5 65q0 29 19.5 47.5t48.5 18.5q28 0 46.5 -16.5t18.5 -46.5q0 -9 -3.5 -26.5t-3.5 -25.5q0 -24 24 -24q32 0 42.5 22.5
t10.5 75.5q0 32 -2.5 116t-2.5 135v209q0 40 -19 56t-48 14v10l227 62l8 -3l-2 -129v-320q0 -129 -59.5 -197.5t-164.5 -68.5z" />
    <glyph glyph-name="k" unicode="k" horiz-adv-x="609" 
d="M240 753v-673q0 -65 58 -71v-9h-277v9q53 6 53 71v538q0 41 -17.5 57t-44.5 14v10l220 57zM607 0h-216l-127 210v5l90 93q49 53 47 94.5t-45 45.5v10h233v-10q-51 -4 -96.5 -38t-103.5 -98l122 -196q61 -98 96 -106v-10z" />
    <glyph glyph-name="l" unicode="l" horiz-adv-x="314" 
d="M240 753v-672q0 -65 59 -71v-10h-280v10q55 6 55 71v537q0 41 -17.5 57t-44.5 14v10l220 57z" />
    <glyph glyph-name="m" unicode="m" horiz-adv-x="874" 
d="M281 9v-9h-260v10q56 6 56 71v252q0 40 -19 56t-47 14v10l222 62l8 -3v-78q72 82 157 82q97 0 120 -86q73 86 160 86q57 0 91 -33.5t34 -96.5v-265q0 -65 56 -71v-10h-260v9q21 2 29.5 17.5t8.5 54.5v248q0 36 -14 54.5t-38 18.5q-32 0 -63 -34q1 -7 1 -22v-265
q0 -38 9.5 -54t28.5 -18v-9h-244v9q22 2 31 18t9 54v248q0 73 -52 73q-31 0 -62 -29v-292q0 -38 9.5 -54t28.5 -18z" />
    <glyph glyph-name="n" unicode="n" horiz-adv-x="606" 
d="M287 9v-9h-266v10q56 6 56 71v252q0 40 -19 56t-47 14v10l222 62l8 -3v-80q78 84 168 84q57 0 91.5 -33.5t34.5 -96.5v-265q0 -65 56 -71v-10h-267v9q24 2 34.5 18t10.5 54v248q0 73 -56 73q-35 0 -70 -32v-289q0 -67 44 -72z" />
    <glyph glyph-name="o" unicode="o" horiz-adv-x="558" 
d="M279 -18q-108 0 -180 71t-72 174q0 102 74.5 175.5t177.5 73.5q111 0 181.5 -71t70.5 -175q0 -100 -73 -174t-179 -74zM199 232q0 -109 21.5 -170.5t58.5 -61.5q78 0 78 227q0 110 -21.5 170.5t-60.5 60.5q-76 0 -76 -226z" />
    <glyph glyph-name="p" unicode="p" horiz-adv-x="578" 
d="M293 -1q35 0 62 59.5t27 155.5q0 86 -25.5 129t-69.5 43q-24 0 -46 -15v-304q4 -32 18.5 -50t33.5 -18zM299 -219v-10h-282v10q58 6 58 71v481q0 40 -19 56t-48 14v10l223 62l8 -3v-74q57 78 141 78q82 0 126.5 -63t44.5 -149q0 -119 -80 -200.5t-178 -81.5q-29 0 -52 9
v-139q0 -65 58 -71z" />
    <glyph glyph-name="q" unicode="q" horiz-adv-x="564" 
d="M555 -229h-281v10q58 6 58 85v191q-56 -75 -135 -75q-74 0 -122 57.5t-48 152.5q0 119 78 201.5t183 82.5q86 0 139 -69l59 62h12v-597q-4 -86 57 -91v-10zM288 68q26 0 44 15v297q0 81 -50 81q-36 0 -63.5 -62t-27.5 -157q0 -88 27 -131t70 -43z" />
    <glyph glyph-name="r" unicode="r" horiz-adv-x="473" 
d="M301 9v-9h-282v9q58 6 58 71v253q0 40 -19 56t-47 14v10l222 62l8 -3v-113q22 62 62 95t80 33q33 0 53 -21t20 -51q0 -32 -20.5 -53t-51.5 -21q-25 0 -51.5 20.5t-41.5 20.5q-32 0 -48 -64v-238q0 -65 58 -71z" />
    <glyph glyph-name="s" unicode="s" horiz-adv-x="425" 
d="M210 0q33 0 53 17t20 43q0 23 -18.5 42.5t-46.5 32.5t-60 31t-60 36.5t-46.5 49.5t-18.5 70q0 66 53 110t145 44q86 0 158 -37l-34 -125l-11 1q-18 65 -54.5 102.5t-79.5 37.5q-29 0 -48 -15t-19 -40q0 -28 27 -50t65 -40t76 -38.5t65 -55.5t27 -81q0 -69 -55 -111
t-151 -42q-104 0 -178 34l40 142l12 -1q12 -71 50.5 -114t88.5 -43z" />
    <glyph glyph-name="t" unicode="t" horiz-adv-x="357" 
d="M337 437h-105v-301q0 -28 15.5 -45t38.5 -17q29 0 52 35l12 -8q-30 -53 -74.5 -85t-94.5 -32q-51 0 -83 33t-32 85v333h-56v11q62 18 122.5 82t85.5 137h14v-207h105v-21z" />
    <glyph glyph-name="u" unicode="u" horiz-adv-x="590" 
d="M354 -12v71q-77 -77 -161 -77q-55 0 -88 33.5t-33 96.5v221q0 40 -17.5 56t-44.5 14v10l220 62l8 -3v-357q0 -30 14.5 -46t37.5 -16q30 0 61 27v254q0 40 -15 56t-38 14v9l211 62l8 -3v-373q0 -42 16.5 -60t41.5 -16v-10l-213 -28z" />
    <glyph glyph-name="v" unicode="v" horiz-adv-x="553" 
d="M287 -7h-39l-162 354q-38 83 -81 102v9h291v-9q-30 -2 -39 -28t9 -72l78 -178l42 91q36 79 27 131t-58 56v9h193v-9q-30 -7 -57.5 -42t-68.5 -123z" />
    <glyph glyph-name="w" unicode="w" horiz-adv-x="812" 
d="M512 -7l-111 294l-117 -294h-52l-154 356q-22 51 -38 72t-35 27v10h259v-10q-49 -7 -13 -91l79 -189l58 151l-11 30q-36 92 -69 99v10h256v-10q-47 -6 -24 -69l74 -210l39 99q20 49 19.5 90.5t-16.5 64t-42 25.5v10h193v-10q-30 -4 -56.5 -37t-62.5 -118l-125 -300h-51z
" />
    <glyph glyph-name="x" unicode="x" horiz-adv-x="567" 
d="M217 10v-10h-212v10q78 9 164 131l44 62l-105 157q-52 77 -89 89v9h271v-9q-25 -6 -25.5 -21.5t22.5 -53.5l51 -81l9 13q37 55 35.5 95t-39.5 47v10h199v-10q-34 -4 -76 -35.5t-81 -88.5l-35 -50l123 -181q48 -71 89 -83v-10h-276v10q26 6 26.5 21t-22.5 52l-64 100
l-16 -23q-37 -54 -34.5 -100.5t41.5 -49.5z" />
    <glyph glyph-name="y" unicode="y" horiz-adv-x="554" 
d="M63 -245q-44 0 -72.5 22t-28.5 61q0 32 21.5 53t51.5 21q45 0 66 -45q3 -6 7 -16t6.5 -15t6.5 -11.5t9 -9t11 -2.5q18 0 39.5 23.5t38.5 63.5l35 79l-168 368q-39 84 -81 102v9h291v-9q-30 -2 -38 -30.5t13 -78.5l74 -167l40 89q36 80 27 131.5t-57 55.5v9h193v-9
q-32 -8 -59 -44t-73 -135l-175 -378q-31 -68 -78 -102.5t-100 -34.5z" />
    <glyph glyph-name="z" unicode="z" horiz-adv-x="520" 
d="M28 0l-4 11l277 430h-58q-49 0 -102 -40.5t-86 -106.5h-15l33 164h404l3 -11l-271 -430h76q51 0 104.5 50.5t81.5 129.5h14l-21 -197h-436z" />
    <glyph glyph-name="braceleft" unicode="{" horiz-adv-x="375" 
d="M353 -178q-44 -6 -80 -6q-90 0 -133 36t-43 98q0 35 15.5 100t15.5 103q0 56 -20.5 78t-72.5 22h-35v18h35q51 0 72 21t21 72q0 42 -15.5 106.5t-15.5 96.5q0 65 43.5 103.5t134.5 38.5q27 0 78 -7v-14q-14 2 -20 2q-38 0 -58 -23.5t-20 -61.5q0 -25 14.5 -99t14.5 -100
q0 -57 -45 -95t-135 -49q81 -11 130.5 -46.5t49.5 -92.5q0 -45 -14.5 -116.5t-14.5 -93.5q0 -34 20.5 -56.5t57.5 -22.5q6 0 20 2v-14z" />
    <glyph glyph-name="bar" unicode="|" horiz-adv-x="228" 
d="M128 701v-950h-28v950h28z" />
    <glyph glyph-name="braceright" unicode="}" horiz-adv-x="375" 
d="M102 -184q-36 0 -80 6v14q14 -2 20 -2q37 0 57.5 22.5t20.5 56.5q0 22 -14.5 93.5t-14.5 116.5q0 57 49.5 92.5t130.5 46.5q-90 11 -135 49t-45 95q0 26 14.5 100t14.5 99q0 38 -20 61.5t-58 23.5q-6 0 -20 -2v14q51 7 78 7q91 0 134.5 -38.5t43.5 -103.5
q0 -32 -15.5 -96.5t-15.5 -106.5q0 -51 21 -72t72 -21h35v-18h-35q-52 0 -72.5 -22t-20.5 -78q0 -38 15.5 -103t15.5 -100q0 -62 -43 -98t-133 -36z" />
    <glyph glyph-name="asciitilde" unicode="~" horiz-adv-x="595" 
d="M538 478q-18 -76 -54.5 -117.5t-88.5 -42.5q-39 1 -120.5 38t-115.5 37q-51 0 -87 -65l-14 4q18 76 55 117.5t88 41.5q40 0 121.5 -37.5t113.5 -37.5q52 0 88 65z" />
    <glyph glyph-name="exclamdown" unicode="&#xa1;" horiz-adv-x="295" 
d="M146 300q-36 0 -62.5 26t-26.5 62q0 37 26.5 63t62.5 26q37 0 63 -26t26 -63q0 -36 -26 -62t-63 -26zM136 236h21q6 -73 47.5 -203t41.5 -179q0 -52 -28 -82t-72 -30q-43 0 -71 30t-28 82q0 49 41 179.5t48 202.5z" />
    <glyph glyph-name="cent" unicode="&#xa2;" horiz-adv-x="462" 
d="M181 314q0 -115 48 -167l62 276q-13 40 -41 40q-34 0 -51.5 -46.5t-17.5 -102.5zM254 11q-11 0 -33 2l-17 -75h-23l18 79q-76 17 -124.5 76t-48.5 147q0 93 65 166.5t174 73.5q15 0 39 -2l18 81h22l-19 -84q53 -11 81 -37.5t28 -56.5q0 -25 -17 -42.5t-45 -17.5
q-24 0 -43 14.5t-26 42.5l-56 -248q31 -22 73 -22q83 0 117 72l10 -4q-22 -85 -74 -125t-119 -40z" />
    <glyph glyph-name="sterling" unicode="&#xa3;" horiz-adv-x="540" 
d="M147 6q31 0 52 18.5t21 48.5q-39 27 -75 27q-26 0 -41 -12.5t-15 -32.5q0 -21 14.5 -35t43.5 -14zM390 -11q-57 0 -129 54q-42 -57 -124 -57q-53 0 -88 25t-35 67q0 46 38 74.5t95 28.5q17 0 33 -3q-8 12 -25.5 36.5t-25.5 35.5h-85v21h70q-61 89 -61 153
q0 87 63.5 136.5t168.5 49.5q81 0 129.5 -28.5t48.5 -67.5q0 -25 -18.5 -43t-45.5 -18q-48 0 -72 59q-1 2 -4.5 10.5t-5 11.5t-4.5 11t-5 11t-6 9.5t-6.5 9l-6.5 6.5t-8 6t-9 3.5t-10 1.5q-25 0 -40 -31t-15 -95q0 -80 43 -195h129v-21h-121q27 -77 29 -117q80 -44 128 -44
q77 0 108 73l14 -3q-20 -85 -55.5 -128t-91.5 -42z" />
    <glyph glyph-name="yen" unicode="&#xa5;" horiz-adv-x="632" 
d="M467 10v-10h-320v10q71 8 71 92v69h-125v21h125v56h-125v21h117l-120 228q-22 42 -39.5 60.5t-40.5 30.5v10h308v-10q-23 -5 -34 -27t3 -59l102 -209l67 137q26 50 22 84t-19.5 51.5t-39.5 22.5v10h203v-10q-32 -3 -70 -42t-73 -112l-79 -165h132v-21h-136v-56h136v-21
h-136v-69q0 -84 71 -92z" />
    <glyph glyph-name="brokenbar" unicode="&#xa6;" horiz-adv-x="228" 
d="M128 701v-443h-28v443h28zM128 194v-443h-28v443h28z" />
    <glyph glyph-name="section" unicode="&#xa7;" horiz-adv-x="515" 
d="M363 221l-78 77q-9 9 -40.5 39.5t-42 41.5t-33 37t-31.5 43t-17 41t-8 47q0 79 52.5 128.5t138.5 49.5q82 0 126 -32t44 -73q0 -26 -18 -45t-47 -19q-51 0 -69 49q-3 8 -8 29t-9 34.5t-14 25t-24 11.5q-42 0 -64.5 -33.5t-22.5 -75.5t29.5 -83.5t72 -77.5t84.5 -75
t71.5 -90t29.5 -107q0 -33 -13 -58.5t-32 -31.5l-1 1q8 63 -76 147zM232 257q9 -9 40.5 -39.5t42 -41.5t33 -37t31.5 -43t17 -41t8 -47q0 -79 -52.5 -128.5t-138.5 -49.5q-83 0 -128 32t-45 73q0 26 18 45t47 19q51 0 69 -49q3 -8 8.5 -29.5t9.5 -34.5t14.5 -24.5
t25.5 -11.5q42 0 64.5 33.5t22.5 75.5t-29.5 83.5t-71.5 77.5t-84.5 75t-72 90t-29.5 107q0 33 13 58.5t32 31.5l1 -1q-8 -63 76 -147z" />
    <glyph glyph-name="dieresis" unicode="&#xa8;" horiz-adv-x="499" 
d="M272 618q0 32 24 56.5t58 24.5t58.5 -24t24.5 -57q0 -34 -24.5 -58t-58.5 -24t-58 24t-24 58zM62 618q0 32 24.5 56.5t57.5 24.5q34 0 58.5 -24t24.5 -57q0 -34 -24.5 -58t-58.5 -24q-33 0 -57.5 24t-24.5 58z" />
    <glyph glyph-name="copyright" unicode="&#xa9;" horiz-adv-x="814" 
d="M407 -17q-156 0 -257.5 105t-101.5 260t101.5 260t257.5 105t257.5 -105t101.5 -260t-101.5 -260t-257.5 -105zM408 1q147 0 241.5 99t94.5 248q0 147 -95.5 247t-242.5 100t-241.5 -99t-94.5 -248q0 -147 95.5 -247t242.5 -100zM514 417q-44 0 -59 44q-2 5 -6.5 24
t-8 29t-12.5 20t-22 10q-27 0 -44.5 -38.5t-17.5 -94.5q0 -89 32.5 -138t92.5 -49q72 0 102 65l11 -4q-19 -74 -64 -112t-108 -38q-84 0 -144 56.5t-60 150.5q0 85 58 152t156 67q72 0 111.5 -27.5t39.5 -61.5q0 -23 -15.5 -39t-41.5 -16z" />
    <glyph glyph-name="ordfeminine" unicode="&#xaa;" horiz-adv-x="343" 
d="M153 450q15 0 27 10q-2 14 -2 25v96q-61 -25 -61 -81q0 -24 10 -37t26 -13zM246 409q-48 0 -62 39q-38 -40 -89 -40q-34 0 -55 18.5t-21 50.5q0 37 33.5 64.5t125.5 51.5v53q0 56 -26 56q-16 0 -19 -17q-1 -3 -2.5 -20t-5.5 -27q-13 -33 -47 -33q-18 0 -30.5 11t-12.5 29
q0 27 28 48.5t93 21.5q64 0 96 -26.5t32 -73.5v-140q0 -25 17 -25q16 0 25 18l9 -5q-28 -54 -89 -54z" />
    <glyph glyph-name="guillemotleft" unicode="&#xab;" horiz-adv-x="565" 
d="M297 444l-104 -220l104 -224h-14l-233 219v14l233 211h14zM520 444l-104 -220l104 -224h-14l-233 219v14l233 211h14z" />
    <glyph glyph-name="registered" unicode="&#xae;" horiz-adv-x="399" 
d="M200 388q-72 0 -118 48t-46 119t46 119t118 48t117.5 -48t45.5 -119t-45.5 -119t-117.5 -48zM199 706q-63 0 -104 -43.5t-41 -107.5t41.5 -107.5t104.5 -43.5t104 43.5t41 107.5t-41.5 107.5t-104.5 43.5zM184 629v-78h7q28 0 28 39t-23 39h-12zM202 483v-5h-92v5
q20 3 20 25v99q0 23 -20 25v5h96q34 0 51 -12.5t17 -31.5q0 -25 -25 -39l21 -44q13 -23 24 -28v-4h-68l-30 65h-12v-35q0 -23 18 -25z" />
    <glyph glyph-name="macron" unicode="&#xaf;" horiz-adv-x="499" 
d="M109 632h281v-31h-281v31z" />
    <glyph glyph-name="degree" unicode="&#xb0;" horiz-adv-x="365" 
d="M337 557q0 -63 -45.5 -108t-109.5 -45q-63 0 -108.5 45t-45.5 108q0 64 45.5 109t108.5 45q64 0 109.5 -45t45.5 -109zM52 557q0 -55 38 -93.5t92 -38.5t92.5 38.5t38.5 93.5t-38.5 94t-92.5 39t-92 -39t-38 -94z" />
    <glyph glyph-name="plusminus" unicode="&#xb1;" horiz-adv-x="606" 
d="M559 311h-240v-212h-31v212h-241v29h241v211h31v-211h240v-29zM47 29h512v-29h-512v29z" />
    <glyph glyph-name="twosuperior" unicode="&#xb2;" horiz-adv-x="320" 
d="M267 345h-252l-3 8l110 112q51 52 51 113q0 82 -70 82q-49 0 -78 -47l-10 4q14 39 53 69.5t100 30.5q50 0 81.5 -22.5t31.5 -62.5q0 -50 -74 -115l-97 -86h103q56 0 72 50h12z" />
    <glyph glyph-name="threesuperior" unicode="&#xb3;" horiz-adv-x="320" 
d="M139 334q-57 0 -88 21.5t-31 49.5q0 18 11.5 30t29.5 12q17 0 30 -10t14 -30q4 -58 38 -58q20 0 34.5 21t14.5 61q0 37 -17 62.5t-55 25.5h-29v16q38 4 61 24.5t23 50.5q0 25 -17 41t-44 16q-44 0 -71 -44l-10 3q9 36 46 63t95 27q45 0 75.5 -21t30.5 -58
q0 -27 -17 -50.5t-45 -36.5q37 -9 59.5 -33.5t22.5 -57.5q0 -51 -45.5 -88t-115.5 -37z" />
    <glyph glyph-name="acute" unicode="&#xb4;" 
d="M154 522h-13l113 154q21 30 52 30q21 0 36.5 -15t15.5 -38q0 -44 -47 -64z" />
    <glyph glyph-name="paragraph" unicode="&#xb6;" horiz-adv-x="779" 
d="M476 -198h-207v10q83 8 83 105v314h-14q-136 0 -215.5 66.5t-79.5 172.5q0 103 70 166.5t212 63.5h439v-10q-38 -4 -60.5 -25t-22.5 -75v-673q0 -97 83 -105v-10h-208v878h-80v-878z" />
    <glyph glyph-name="periodcentered" unicode="&#xb7;" horiz-adv-x="305" 
d="M152 208q-38 0 -65.5 27t-27.5 66q0 38 27.5 65t65.5 27t66 -27t28 -65q0 -39 -27.5 -66t-66.5 -27z" />
    <glyph glyph-name="cedilla" unicode="&#xb8;" 
d="M232 -280q-71 0 -123 37l6 14q42 -27 89 -27q40 0 66 17.5t26 56.5q0 35 -26.5 50t-88.5 8l-3 4l62 112h23l-32 -59q23 5 42 5q53 0 86 -27t33 -73q0 -50 -43 -84t-117 -34z" />
    <glyph glyph-name="onesuperior" unicode="&#xb9;" horiz-adv-x="213" 
d="M23 345v8q21 1 29 14t8 43v197q0 28 -12 39.5t-46 8.5v6l149 64l12 -2v-306q0 -61 38 -64v-8h-178z" />
    <glyph glyph-name="ordmasculine" unicode="&#xba;" horiz-adv-x="350" 
d="M331 561q0 -62 -45 -107.5t-111 -45.5q-67 0 -111.5 43.5t-44.5 107.5q0 63 46 108.5t110 45.5q68 0 112 -44t44 -108zM173 698q-45 -2 -45 -136q0 -139 47 -139q46 0 46 136q0 65 -12.5 102.5t-35.5 36.5z" />
    <glyph glyph-name="guillemotright" unicode="&#xbb;" horiz-adv-x="565" 
d="M268 -1l104 220l-104 224h14l233 -219v-14l-233 -211h-14zM45 -1l104 220l-104 224h14l233 -219v-14l-233 -211h-14z" />
    <glyph glyph-name="onequarter" unicode="&#xbc;" horiz-adv-x="637" 
d="M23 345v8q21 1 29 14t8 43v197q0 28 -12 39.5t-46 8.5v6l149 64l12 -2v-306q0 -61 38 -64v-8h-178zM507 700h27l-460 -700h-27zM581 8v-8h-177v8q21 1 29.5 14.5t8.5 42.5v23h-162l-3 18l186 261h78v-202q53 5 67 50h10l-26 -127h-51v-18q0 -59 40 -62zM340 164h102v145z
" />
    <glyph glyph-name="onehalf" unicode="&#xbd;" horiz-adv-x="648" 
d="M23 345v8q21 1 29 14t8 43v197q0 28 -12 39.5t-46 8.5v6l149 64l12 -2v-306q0 -61 38 -64v-8h-178zM507 700h27l-460 -700h-27zM596 0h-252l-3 8l110 112q51 52 51 113q0 82 -70 82q-49 0 -78 -47l-10 4q14 39 53 69.5t100 30.5q50 0 81.5 -22.5t31.5 -62.5
q0 -50 -74 -115l-97 -86h103q56 0 72 50h12z" />
    <glyph glyph-name="threequarters" unicode="&#xbe;" horiz-adv-x="697" 
d="M568 700h27l-460 -700h-27zM139 334q-57 0 -88 21.5t-31 49.5q0 18 11.5 30t29.5 12q17 0 30 -10t14 -30q4 -58 38 -58q20 0 34.5 21t14.5 61q0 37 -17 62.5t-55 25.5h-29v16q38 4 61 24.5t23 50.5q0 25 -17 41t-44 16q-44 0 -71 -44l-10 3q9 36 46 63t95 27
q45 0 75.5 -21t30.5 -58q0 -27 -17 -50.5t-45 -36.5q37 -9 59.5 -33.5t22.5 -57.5q0 -51 -45.5 -88t-115.5 -37zM641 8v-8h-177v8q21 1 29.5 14.5t8.5 42.5v23h-162l-3 18l186 261h78v-202q53 5 67 50h10l-26 -127h-51v-18q0 -59 40 -62zM400 164h102v145z" />
    <glyph glyph-name="questiondown" unicode="&#xbf;" horiz-adv-x="522" 
d="M346 387q0 -36 -26 -62t-63 -26q-36 0 -62.5 26t-26.5 62q0 37 26.5 63t62.5 26q37 0 63 -26t26 -63zM250 230h27q1 -6 1 -16q0 -38 -15.5 -69t-33.5 -51t-33.5 -62.5t-15.5 -99.5q0 -75 28 -119.5t76 -44.5q36 0 58 29.5t22 74.5q0 25 -10 50t-10 37q0 26 20.5 44.5
t52.5 18.5q34 0 55.5 -24t21.5 -64q0 -75 -68 -130.5t-171 -55.5q-115 0 -179 43t-64 126q0 57 35.5 98t103.5 82q33 19 50 32t33 39.5t16 61.5z" />
    <glyph glyph-name="Agrave" unicode="&#xc0;" horiz-adv-x="750" 
d="M440 770h-11l-158 41q-25 6 -39.5 22.5t-14.5 37.5q0 23 15.5 38.5t38.5 15.5q24 0 46 -22zM297 500l-95 -259h193zM268 10v-10h-258v10q47 10 82 58.5t78 160.5l183 479h58l227 -582q38 -98 102 -116v-10h-353v10q50 10 58.5 39t-23.5 120l-19 50h-208q-60 -191 73 -209
z" />
    <glyph glyph-name="Aacute" unicode="&#xc1;" horiz-adv-x="750" 
d="M303 770l123 133q22 22 46 22q22 0 38 -15.5t16 -38.5q0 -21 -14.5 -37.5t-39.5 -22.5l-158 -41h-11zM297 500l-95 -259h193zM268 10v-10h-258v10q47 10 82 58.5t78 160.5l183 479h58l227 -582q38 -98 102 -116v-10h-353v10q50 10 58.5 39t-23.5 120l-19 50h-208
q-60 -191 73 -209z" />
    <glyph glyph-name="Acircumflex" unicode="&#xc2;" horiz-adv-x="750" 
d="M522 776l-145 55l-151 -55h-14l116 130h100l112 -130h-18zM297 500l-95 -259h193zM268 10v-10h-258v10q47 10 82 58.5t78 160.5l183 479h58l227 -582q38 -98 102 -116v-10h-353v10q50 10 58.5 39t-23.5 120l-19 50h-208q-60 -191 73 -209z" />
    <glyph glyph-name="Atilde" unicode="&#xc3;" horiz-adv-x="750" 
d="M539 904q-4 -53 -32.5 -89.5t-70.5 -36.5q-25 0 -72.5 20t-72.5 20q-47 0 -64 -40l-10 2q4 52 33 88.5t71 36.5q25 0 72 -20t72 -20q47 0 64 41zM297 500l-95 -259h193zM268 10v-10h-258v10q47 10 82 58.5t78 160.5l183 479h58l227 -582q38 -98 102 -116v-10h-353v10
q50 10 58.5 39t-23.5 120l-19 50h-208q-60 -191 73 -209z" />
    <glyph glyph-name="Adieresis" unicode="&#xc4;" horiz-adv-x="750" 
d="M269 777q-33 0 -57.5 24t-24.5 58q0 32 24.5 56.5t57.5 24.5q34 0 58.5 -24t24.5 -57q0 -34 -24.5 -58t-58.5 -24zM479 777q-34 0 -58 24t-24 58q0 33 24.5 57t57.5 24q34 0 58.5 -24t24.5 -57q0 -34 -24.5 -58t-58.5 -24zM297 500l-95 -259h193zM268 10v-10h-258v10
q47 10 82 58.5t78 160.5l183 479h58l227 -582q38 -98 102 -116v-10h-353v10q50 10 58.5 39t-23.5 120l-19 50h-208q-60 -191 73 -209z" />
    <glyph glyph-name="Aring" unicode="&#xc5;" horiz-adv-x="750" 
d="M382 872q-32 0 -54.5 -24.5t-22.5 -58.5t22.5 -57.5t54.5 -23.5t55 23.5t23 57.5t-23 58.5t-55 24.5zM297 500l-95 -259h193zM268 10v-10h-258v10q47 10 82 58.5t78 160.5l177 463q-30 11 -48.5 37.5t-18.5 59.5q0 43 29.5 74t72.5 31t73 -31t30 -74q0 -33 -19 -59.5
t-49 -37.5l221 -566q38 -98 102 -116v-10h-353v10q50 10 58.5 39t-23.5 120l-19 50h-208q-60 -191 73 -209z" />
    <glyph glyph-name="AE" unicode="&#xc6;" horiz-adv-x="1043" 
d="M466 601l-207 -347h208v329zM265 10v-10h-260v10q33 10 60 29.5t74 80t113 169.5l207 344q-20 51 -80 57v10h573l30 -187h-15q-51 76 -122 121t-146 45h-46v-299h40q62 0 111 38t57 90h14v-280h-14q-9 54 -58.5 92.5t-109.5 38.5h-40v-338h66q87 0 163 58.5t108 141.5h17
l-24 -221h-594v10q35 4 56.5 25.5t21.5 75.5v120h-220q-26 -50 -36 -93t-3.5 -69.5t21.5 -41.5t36 -17z" />
    <glyph glyph-name="Ccedilla" unicode="&#xc7;" horiz-adv-x="709" 
d="M385 -280q-71 0 -123 37l6 14q42 -27 89 -27q40 0 66 17.5t26 56.5q0 35 -26.5 50t-88.5 8l-3 4l55 99h-6q-146 0 -248 106t-102 256q0 163 118 271t295 108q138 0 229 -44l-48 -197l-18 2q-16 93 -66.5 154t-117.5 61q-80 0 -138.5 -84.5t-58.5 -220.5
q0 -151 64.5 -229.5t168.5 -78.5q61 0 112 28.5t78 82.5l17 -5q-33 -92 -99.5 -146.5t-155.5 -62.5l-26 -47q23 5 42 5q53 0 86 -27t33 -73q0 -50 -43 -84t-117 -34z" />
    <glyph glyph-name="Egrave" unicode="&#xc8;" horiz-adv-x="675" 
d="M412 770h-11l-158 41q-25 6 -39.5 22.5t-14.5 37.5q0 23 15.5 38.5t38.5 15.5q24 0 46 -22zM639 221l-25 -221h-594v10q36 4 57 25t21 76v472q0 99 -78 107v10h564l30 -187h-15q-52 76 -122.5 121t-145.5 45h-47v-299h40q62 0 111 38t57 90h14v-280h-14q-9 54 -58.5 92.5
t-109.5 38.5h-40v-338h66q87 0 163 58.5t109 141.5h17z" />
    <glyph glyph-name="Eacute" unicode="&#xc9;" horiz-adv-x="675" 
d="M276 770l123 133q22 22 46 22q23 0 38.5 -15.5t15.5 -38.5q0 -21 -14.5 -37.5t-39.5 -22.5l-158 -41h-11zM639 221l-25 -221h-594v10q36 4 57 25t21 76v472q0 99 -78 107v10h564l30 -187h-15q-52 76 -122.5 121t-145.5 45h-47v-299h40q62 0 111 38t57 90h14v-280h-14
q-9 54 -58.5 92.5t-109.5 38.5h-40v-338h66q87 0 163 58.5t109 141.5h17z" />
    <glyph glyph-name="Ecircumflex" unicode="&#xca;" horiz-adv-x="675" 
d="M494 776l-145 55l-151 -55h-14l116 130h100l112 -130h-18zM639 221l-25 -221h-594v10q36 4 57 25t21 76v472q0 99 -78 107v10h564l30 -187h-15q-52 76 -122.5 121t-145.5 45h-47v-299h40q62 0 111 38t57 90h14v-280h-14q-9 54 -58.5 92.5t-109.5 38.5h-40v-338h66
q87 0 163 58.5t109 141.5h17z" />
    <glyph glyph-name="Edieresis" unicode="&#xcb;" horiz-adv-x="675" 
d="M241 777q-33 0 -57.5 24t-24.5 58q0 32 24.5 56.5t57.5 24.5q34 0 58.5 -24t24.5 -57q0 -34 -24.5 -58t-58.5 -24zM451 777q-34 0 -58 24t-24 58q0 33 24.5 57t57.5 24q34 0 58.5 -24t24.5 -57q0 -34 -24.5 -58t-58.5 -24zM639 221l-25 -221h-594v10q36 4 57 25t21 76
v472q0 99 -78 107v10h564l30 -187h-15q-52 76 -122.5 121t-145.5 45h-47v-299h40q62 0 111 38t57 90h14v-280h-14q-9 54 -58.5 92.5t-109.5 38.5h-40v-338h66q87 0 163 58.5t109 141.5h17z" />
    <glyph glyph-name="Igrave" unicode="&#xcc;" horiz-adv-x="383" 
d="M260 770h-11l-158 41q-25 6 -39.5 22.5t-14.5 37.5q0 23 15.5 38.5t38.5 15.5q24 0 46 -22zM363 700v-10q-78 -8 -78 -104v-472q0 -96 78 -104v-10h-343v10q78 8 78 104v472q0 96 -78 104v10h343z" />
    <glyph glyph-name="Iacute" unicode="&#xcd;" horiz-adv-x="383" 
d="M124 770l123 133q22 22 46 22q23 0 38.5 -15.5t15.5 -38.5q0 -21 -14.5 -37.5t-39.5 -22.5l-158 -41h-11zM363 700v-10q-78 -8 -78 -104v-472q0 -96 78 -104v-10h-343v10q78 8 78 104v472q0 96 -78 104v10h343z" />
    <glyph glyph-name="Icircumflex" unicode="&#xce;" horiz-adv-x="383" 
d="M343 776l-145 55l-151 -55h-14l116 130h100l112 -130h-18zM363 700v-10q-78 -8 -78 -104v-472q0 -96 78 -104v-10h-343v10q78 8 78 104v472q0 96 -78 104v10h343z" />
    <glyph glyph-name="Idieresis" unicode="&#xcf;" horiz-adv-x="383" 
d="M90 777q-33 0 -57.5 24t-24.5 58q0 32 24.5 56.5t57.5 24.5q34 0 58.5 -24t24.5 -57q0 -34 -24.5 -58t-58.5 -24zM300 777q-34 0 -58 24t-24 58q0 33 24 57t58 24t58.5 -24t24.5 -57q0 -34 -24.5 -58t-58.5 -24zM363 700v-10q-78 -8 -78 -104v-472q0 -96 78 -104v-10
h-343v10q78 8 78 104v472q0 96 -78 104v10h343z" />
    <glyph glyph-name="Eth" unicode="&#xd0;" horiz-adv-x="782" 
d="M371 0h-351v10q78 8 78 104v249h-75v23h75v201q0 95 -78 103v10h347q168 0 276.5 -100.5t108.5 -244.5q0 -99 -52.5 -181.5t-140 -128t-188.5 -45.5zM284 21h64q96 0 147 76t51 249q0 161 -56.5 247t-146.5 86h-59v-293h97v-23h-97v-342z" />
    <glyph glyph-name="Ntilde" unicode="&#xd1;" horiz-adv-x="777" 
d="M572 904q-4 -53 -32.5 -89.5t-70.5 -36.5q-25 0 -72.5 20t-72.5 20q-47 0 -64 -40l-10 2q4 52 33 88.5t71 36.5q25 0 72 -20t72 -20q47 0 64 41zM654 -13h-35l-466 562l2 -320q1 -110 40 -163t97 -56v-10h-282v10q52 2 83.5 50t32.5 149l2 304q1 77 -29 125.5t-89 51.5
v10h267l354 -428l-3 223q-3 183 -128 195v10h267v-10q-108 -6 -110 -195z" />
    <glyph glyph-name="Ograve" unicode="&#xd2;" horiz-adv-x="820" 
d="M475 770h-11l-158 41q-25 6 -39.5 22.5t-14.5 37.5q0 23 16 38.5t38 15.5q24 0 46 -22zM407 -21q-157 0 -267 107.5t-110 261.5q0 155 113 263.5t270 108.5q156 0 266.5 -107.5t110.5 -261.5q0 -155 -113 -263.5t-270 -108.5zM413 1q76 0 123.5 92t47.5 254
q0 171 -51.5 261t-126.5 90t-123.5 -92.5t-48.5 -253.5q0 -170 52.5 -260.5t126.5 -90.5z" />
    <glyph glyph-name="Oacute" unicode="&#xd3;" horiz-adv-x="820" 
d="M339 770l123 133q22 22 46 22q22 0 38 -15.5t16 -38.5q0 -21 -14.5 -37.5t-39.5 -22.5l-158 -41h-11zM407 -21q-157 0 -267 107.5t-110 261.5q0 155 113 263.5t270 108.5q156 0 266.5 -107.5t110.5 -261.5q0 -155 -113 -263.5t-270 -108.5zM413 1q76 0 123.5 92t47.5 254
q0 171 -51.5 261t-126.5 90t-123.5 -92.5t-48.5 -253.5q0 -170 52.5 -260.5t126.5 -90.5z" />
    <glyph glyph-name="Ocircumflex" unicode="&#xd4;" horiz-adv-x="820" 
d="M557 776l-145 55l-151 -55h-14l116 130h100l112 -130h-18zM407 -21q-157 0 -267 107.5t-110 261.5q0 155 113 263.5t270 108.5q156 0 266.5 -107.5t110.5 -261.5q0 -155 -113 -263.5t-270 -108.5zM413 1q76 0 123.5 92t47.5 254q0 171 -51.5 261t-126.5 90t-123.5 -92.5
t-48.5 -253.5q0 -170 52.5 -260.5t126.5 -90.5z" />
    <glyph glyph-name="Otilde" unicode="&#xd5;" horiz-adv-x="820" 
d="M574 904q-4 -53 -32.5 -89.5t-70.5 -36.5q-25 0 -72.5 20t-72.5 20q-47 0 -64 -40l-10 2q4 52 33 88.5t71 36.5q25 0 72 -20t72 -20q47 0 64 41zM407 -21q-157 0 -267 107.5t-110 261.5q0 155 113 263.5t270 108.5q156 0 266.5 -107.5t110.5 -261.5q0 -155 -113 -263.5
t-270 -108.5zM413 1q76 0 123.5 92t47.5 254q0 171 -51.5 261t-126.5 90t-123.5 -92.5t-48.5 -253.5q0 -170 52.5 -260.5t126.5 -90.5z" />
    <glyph glyph-name="Odieresis" unicode="&#xd6;" horiz-adv-x="820" 
d="M304 777q-33 0 -57.5 24t-24.5 58q0 32 24.5 56.5t57.5 24.5q34 0 58.5 -24t24.5 -57q0 -34 -24.5 -58t-58.5 -24zM514 777q-34 0 -58 24t-24 58q0 33 24 57t58 24t58.5 -24t24.5 -57q0 -34 -24.5 -58t-58.5 -24zM407 -21q-157 0 -267 107.5t-110 261.5q0 155 113 263.5
t270 108.5q156 0 266.5 -107.5t110.5 -261.5q0 -155 -113 -263.5t-270 -108.5zM413 1q76 0 123.5 92t47.5 254q0 171 -51.5 261t-126.5 90t-123.5 -92.5t-48.5 -253.5q0 -170 52.5 -260.5t126.5 -90.5z" />
    <glyph glyph-name="multiply" unicode="&#xd7;" horiz-adv-x="605" 
d="M511 71l-209 210l-208 -209l-19 20l208 208l-209 211l22 18l207 -209l208 208l19 -19l-208 -208l207 -208z" />
    <glyph glyph-name="Oslash" unicode="&#xd8;" horiz-adv-x="820" 
d="M407 -21q-132 0 -235 79l-55 -63h-31l68 78q-124 111 -124 275q0 155 113 263.5t270 108.5q131 0 234 -79l56 64h31l-69 -79q59 -51 92 -122.5t33 -152.5q0 -155 -113 -263.5t-270 -108.5zM234 352q0 -97 18 -166l308 354q-23 78 -64 118t-90 40q-75 0 -123.5 -92.5
t-48.5 -253.5zM413 1q76 0 123.5 92t47.5 254q0 95 -17 166l-308 -355q23 -77 64.5 -117t89.5 -40z" />
    <glyph glyph-name="Ugrave" unicode="&#xd9;" horiz-adv-x="748" 
d="M480 770h-11l-158 41q-25 6 -39.5 22.5t-14.5 37.5q0 23 15.5 38.5t38.5 15.5q24 0 46 -22zM638 460l-2 -192q-2 -140 -67 -214.5t-196 -74.5q-138 0 -208.5 70.5t-70.5 193.5v343q0 96 -83 104v10h352v-10q-83 -8 -83 -104v-383q0 -75 40.5 -120t114.5 -45
q82 0 129 59.5t47 184.5v183q0 102 -30.5 162t-92.5 63v10h251v-10q-56 -3 -78 -61t-23 -169z" />
    <glyph glyph-name="Uacute" unicode="&#xda;" horiz-adv-x="748" 
d="M343 770l123 133q22 22 46 22q22 0 38 -15.5t16 -38.5q0 -21 -14.5 -37.5t-39.5 -22.5l-158 -41h-11zM638 460l-2 -192q-2 -140 -67 -214.5t-196 -74.5q-138 0 -208.5 70.5t-70.5 193.5v343q0 96 -83 104v10h352v-10q-83 -8 -83 -104v-383q0 -75 40.5 -120t114.5 -45
q82 0 129 59.5t47 184.5v183q0 102 -30.5 162t-92.5 63v10h251v-10q-56 -3 -78 -61t-23 -169z" />
    <glyph glyph-name="Ucircumflex" unicode="&#xdb;" horiz-adv-x="748" 
d="M562 776l-145 55l-151 -55h-14l116 130h100l112 -130h-18zM638 460l-2 -192q-2 -140 -67 -214.5t-196 -74.5q-138 0 -208.5 70.5t-70.5 193.5v343q0 96 -83 104v10h352v-10q-83 -8 -83 -104v-383q0 -75 40.5 -120t114.5 -45q82 0 129 59.5t47 184.5v183q0 102 -30.5 162
t-92.5 63v10h251v-10q-56 -3 -78 -61t-23 -169z" />
    <glyph glyph-name="Udieresis" unicode="&#xdc;" horiz-adv-x="748" 
d="M309 777q-33 0 -57.5 24t-24.5 58q0 32 24.5 56.5t57.5 24.5q34 0 58.5 -24t24.5 -57q0 -34 -24.5 -58t-58.5 -24zM519 777q-34 0 -58 24t-24 58q0 33 24.5 57t57.5 24q34 0 58.5 -24t24.5 -57q0 -34 -24.5 -58t-58.5 -24zM638 460l-2 -192q-2 -140 -67 -214.5
t-196 -74.5q-138 0 -208.5 70.5t-70.5 193.5v343q0 96 -83 104v10h352v-10q-83 -8 -83 -104v-383q0 -75 40.5 -120t114.5 -45q82 0 129 59.5t47 184.5v183q0 102 -30.5 162t-92.5 63v10h251v-10q-56 -3 -78 -61t-23 -169z" />
    <glyph glyph-name="Yacute" unicode="&#xdd;" horiz-adv-x="710" 
d="M302 770l123 133q22 22 46 22q23 0 38.5 -15.5t15.5 -38.5q0 -21 -14.5 -37.5t-39.5 -22.5l-158 -41h-11zM520 0h-352v10q83 8 83 104v186l-148 287q-26 48 -47 70.5t-46 32.5v10h331v-10q-33 -3 -44 -32t8 -66l123 -251l72 146q90 179 -42 203v10h243v-10
q-33 -2 -74.5 -44.5t-78.5 -116.5l-111 -223v-192q0 -96 83 -104v-10z" />
    <glyph glyph-name="Thorn" unicode="&#xde;" horiz-adv-x="672" 
d="M362 10v-10h-342v10q78 8 78 104v472q0 96 -78 104v10h342v-10q-78 -8 -78 -104v-19h63q143 0 219.5 -56.5t76.5 -145.5q0 -95 -82 -156.5t-221 -61.5h-56v-33q0 -96 78 -104zM315 545h-31v-374h20q75 0 113.5 50.5t38.5 140.5q0 183 -141 183z" />
    <glyph glyph-name="germandbls" unicode="&#xdf;" horiz-adv-x="671" 
d="M452 -18q-97 0 -165 34l40 132l12 -1q11 -65 45.5 -106t75.5 -41q26 0 44 18t18 44t-20.5 47t-49.5 37.5t-58 35.5t-49.5 49.5t-20.5 70.5q0 29 11.5 53t28 42.5t33.5 39t28.5 53t11.5 74.5q0 66 -27 100t-70 34q-46 0 -73 -41t-27 -120v-537h-230v10q65 6 65 85v342h-72
v21h72q5 127 81.5 193.5t204.5 66.5q102 0 155.5 -35.5t53.5 -90.5q0 -28 -15 -52t-37 -40.5t-44 -31.5t-37 -33.5t-15 -38.5q0 -24 22.5 -45t55 -39t64.5 -39.5t54.5 -56.5t22.5 -80q0 -67 -54 -110.5t-135 -43.5z" />
    <glyph glyph-name="agrave" unicode="&#xe0;" horiz-adv-x="526" 
d="M302 523h-13l-157 67q-48 21 -48 63q0 23 15.5 39t37.5 16q29 0 52 -31zM235 52q26 0 48 18q-3 16 -3 36v156q-106 -41 -106 -133q0 -38 17.5 -57.5t43.5 -19.5zM385 -16q-76 0 -97 66q-66 -68 -149 -68q-49 0 -83.5 29t-34.5 80q0 60 56.5 104.5t202.5 83.5v88
q0 51 -10 72t-32 21q-21 0 -28.5 -12t-12 -41.5t-10.5 -45.5q-21 -58 -75 -58q-28 0 -46.5 18t-18.5 47q0 47 50.5 77.5t144.5 30.5q101 0 153 -42.5t52 -116.5v-229q0 -40 29 -40q22 0 39 24l10 -7q-48 -81 -140 -81z" />
    <glyph glyph-name="aacute" unicode="&#xe1;" horiz-adv-x="526" 
d="M188 522h-13l113 154q21 30 52 30q21 0 36.5 -15t15.5 -38q0 -44 -47 -64zM235 52q26 0 48 18q-3 16 -3 36v156q-106 -41 -106 -133q0 -38 17.5 -57.5t43.5 -19.5zM385 -16q-76 0 -97 66q-66 -68 -149 -68q-49 0 -83.5 29t-34.5 80q0 60 56.5 104.5t202.5 83.5v88
q0 51 -10 72t-32 21q-21 0 -28.5 -12t-12 -41.5t-10.5 -45.5q-21 -58 -75 -58q-28 0 -46.5 18t-18.5 47q0 47 50.5 77.5t144.5 30.5q101 0 153 -42.5t52 -116.5v-229q0 -40 29 -40q22 0 39 24l10 -7q-48 -81 -140 -81z" />
    <glyph glyph-name="acircumflex" unicode="&#xe2;" horiz-adv-x="526" 
d="M384 521l-146 79l-152 -79h-14l117 155h100l113 -155h-18zM235 52q26 0 48 18q-3 16 -3 36v156q-106 -41 -106 -133q0 -38 17.5 -57.5t43.5 -19.5zM385 -16q-76 0 -97 66q-66 -68 -149 -68q-49 0 -83.5 29t-34.5 80q0 60 56.5 104.5t202.5 83.5v88q0 51 -10 72t-32 21
q-21 0 -28.5 -12t-12 -41.5t-10.5 -45.5q-21 -58 -75 -58q-28 0 -46.5 18t-18.5 47q0 47 50.5 77.5t144.5 30.5q101 0 153 -42.5t52 -116.5v-229q0 -40 29 -40q22 0 39 24l10 -7q-48 -81 -140 -81z" />
    <glyph glyph-name="atilde" unicode="&#xe3;" horiz-adv-x="526" 
d="M308 544q-26 0 -76 18.5t-76 18.5q-50 0 -70 -47l-9 2q4 56 34 95.5t75 39.5q26 0 76 -18.5t76 -18.5q51 0 70 47l10 -2q-5 -57 -35 -96t-75 -39zM235 52q26 0 48 18q-3 16 -3 36v156q-106 -41 -106 -133q0 -38 17.5 -57.5t43.5 -19.5zM385 -16q-76 0 -97 66
q-66 -68 -149 -68q-49 0 -83.5 29t-34.5 80q0 60 56.5 104.5t202.5 83.5v88q0 51 -10 72t-32 21q-21 0 -28.5 -12t-12 -41.5t-10.5 -45.5q-21 -58 -75 -58q-28 0 -46.5 18t-18.5 47q0 47 50.5 77.5t144.5 30.5q101 0 153 -42.5t52 -116.5v-229q0 -40 29 -40q22 0 39 24
l10 -7q-48 -81 -140 -81z" />
    <glyph glyph-name="adieresis" unicode="&#xe4;" horiz-adv-x="526" 
d="M260 618q0 32 24 56.5t58 24.5t58.5 -24t24.5 -57q0 -34 -24.5 -58t-58.5 -24t-58 24t-24 58zM50 618q0 32 24.5 56.5t57.5 24.5q34 0 58.5 -24t24.5 -57q0 -34 -24.5 -58t-58.5 -24q-33 0 -57.5 24t-24.5 58zM235 52q26 0 48 18q-3 16 -3 36v156q-106 -41 -106 -133
q0 -38 17.5 -57.5t43.5 -19.5zM385 -16q-76 0 -97 66q-66 -68 -149 -68q-49 0 -83.5 29t-34.5 80q0 60 56.5 104.5t202.5 83.5v88q0 51 -10 72t-32 21q-21 0 -28.5 -12t-12 -41.5t-10.5 -45.5q-21 -58 -75 -58q-28 0 -46.5 18t-18.5 47q0 47 50.5 77.5t144.5 30.5
q101 0 153 -42.5t52 -116.5v-229q0 -40 29 -40q22 0 39 24l10 -7q-48 -81 -140 -81z" />
    <glyph glyph-name="aring" unicode="&#xe5;" horiz-adv-x="526" 
d="M234 721q43 0 73 -31t30 -73q0 -43 -30 -73.5t-73 -30.5t-72.5 30t-29.5 74q0 43 29.5 73.5t72.5 30.5zM234 699q-32 0 -54.5 -24.5t-22.5 -57.5q0 -34 22.5 -58t54.5 -24t55 24t23 58q0 33 -23.5 57.5t-54.5 24.5zM235 52q26 0 48 18q-3 16 -3 36v156
q-106 -41 -106 -133q0 -38 17.5 -57.5t43.5 -19.5zM385 -16q-76 0 -97 66q-66 -68 -149 -68q-49 0 -83.5 29t-34.5 80q0 60 56.5 104.5t202.5 83.5v88q0 51 -10 72t-32 21q-21 0 -28.5 -12t-12 -41.5t-10.5 -45.5q-21 -58 -75 -58q-28 0 -46.5 18t-18.5 47q0 47 50.5 77.5
t144.5 30.5q101 0 153 -42.5t52 -116.5v-229q0 -40 29 -40q22 0 39 24l10 -7q-48 -81 -140 -81z" />
    <glyph glyph-name="ae" unicode="&#xe6;" horiz-adv-x="748" 
d="M722 156q-21 -84 -78.5 -129t-135.5 -45q-53 0 -102 25t-81 70q-44 -47 -83.5 -71t-88.5 -24q-56 0 -93.5 29t-37.5 83q0 58 54.5 101.5t203.5 83.5v88q0 52 -10 73t-32 21q-21 0 -28.5 -12t-12 -41.5t-10.5 -46.5q-21 -58 -76 -58q-27 0 -45.5 18t-18.5 47
q0 47 50.5 77.5t144.5 30.5q96 0 140 -46q62 46 134 46q90 0 147 -57t61 -153h-286q4 -87 44.5 -134.5t104.5 -47.5q80 0 123 76zM516 458q-30 0 -54 -48.5t-24 -122.5h136q6 171 -58 171zM245 66q38 0 69 27q-34 58 -34 130v39q-106 -41 -106 -128q0 -27 18 -47.5t53 -20.5
z" />
    <glyph glyph-name="ccedilla" unicode="&#xe7;" horiz-adv-x="491" 
d="M239 -280q-71 0 -123 37l6 14q42 -27 89 -27q40 0 66 17.5t26 56.5q0 35 -26.5 50t-88.5 8l-3 4l57 102q-91 6 -153 72t-62 166q0 110 73.5 183t185.5 73q81 0 126 -32t45 -73q0 -27 -18.5 -45t-48.5 -18q-49 0 -66 48q-3 8 -9 30t-10.5 35t-15.5 25t-26 12
q-31 0 -52 -44.5t-21 -123.5q0 -98 39.5 -151.5t107.5 -53.5q81 0 122 75l12 -5q-22 -82 -75.5 -126.5t-130.5 -46.5l-27 -49q23 5 42 5q53 0 86 -27t33 -73q0 -50 -43 -84t-117 -34z" />
    <glyph glyph-name="egrave" unicode="&#xe8;" horiz-adv-x="495" 
d="M328 523h-13l-157 67q-48 21 -48 63q0 23 15.5 39t37.5 16q29 0 52 -31zM469 157q-21 -81 -77.5 -128t-134.5 -47q-96 0 -163 68t-67 170q0 107 71.5 181.5t168.5 74.5q88 0 144.5 -57.5t60.5 -152.5h-286q4 -87 43.5 -134.5t101.5 -47.5q85 0 127 76zM266 458
q-32 0 -56 -47.5t-24 -123.5h136q3 171 -56 171z" />
    <glyph glyph-name="eacute" unicode="&#xe9;" horiz-adv-x="495" 
d="M213 522h-13l113 154q21 30 52 30q21 0 36.5 -15t15.5 -38q0 -44 -47 -64zM469 157q-21 -81 -77.5 -128t-134.5 -47q-96 0 -163 68t-67 170q0 107 71.5 181.5t168.5 74.5q88 0 144.5 -57.5t60.5 -152.5h-286q4 -87 43.5 -134.5t101.5 -47.5q85 0 127 76zM266 458
q-32 0 -56 -47.5t-24 -123.5h136q3 171 -56 171z" />
    <glyph glyph-name="ecircumflex" unicode="&#xea;" horiz-adv-x="495" 
d="M410 521l-146 79l-152 -79h-14l117 155h100l113 -155h-18zM469 157q-21 -81 -77.5 -128t-134.5 -47q-96 0 -163 68t-67 170q0 107 71.5 181.5t168.5 74.5q88 0 144.5 -57.5t60.5 -152.5h-286q4 -87 43.5 -134.5t101.5 -47.5q85 0 127 76zM266 458q-32 0 -56 -47.5
t-24 -123.5h136q3 171 -56 171z" />
    <glyph glyph-name="edieresis" unicode="&#xeb;" horiz-adv-x="495" 
d="M286 618q0 32 24 56.5t58 24.5t58.5 -24t24.5 -57q0 -34 -24.5 -58t-58.5 -24t-58 24t-24 58zM76 618q0 32 24.5 56.5t57.5 24.5q34 0 58.5 -24t24.5 -57q0 -34 -24.5 -58t-58.5 -24q-33 0 -57.5 24t-24.5 58zM469 157q-21 -81 -77.5 -128t-134.5 -47q-96 0 -163 68
t-67 170q0 107 71.5 181.5t168.5 74.5q88 0 144.5 -57.5t60.5 -152.5h-286q4 -87 43.5 -134.5t101.5 -47.5q85 0 127 76zM266 458q-32 0 -56 -47.5t-24 -123.5h136q3 171 -56 171z" />
    <glyph glyph-name="igrave" unicode="&#xec;" horiz-adv-x="317" 
d="M226 523h-13l-157 67q-48 21 -48 63q0 23 15.5 39t37.5 16q29 0 52 -31zM302 0h-281v10q56 6 56 71v252q0 40 -19 56t-47 14v10l226 62l8 -3l-2 -129v-262q0 -65 59 -71v-10z" />
    <glyph glyph-name="iacute" unicode="&#xed;" horiz-adv-x="317" 
d="M102 522h-13l113 154q21 30 52 30q21 0 36.5 -15t15.5 -38q0 -44 -47 -64zM302 0h-281v10q56 6 56 71v252q0 40 -19 56t-47 14v10l226 62l8 -3l-2 -129v-262q0 -65 59 -71v-10z" />
    <glyph glyph-name="icircumflex" unicode="&#xee;" horiz-adv-x="317" 
d="M308 521l-146 79l-152 -79h-14l117 155h100l113 -155h-18zM302 0h-281v10q56 6 56 71v252q0 40 -19 56t-47 14v10l226 62l8 -3l-2 -129v-262q0 -65 59 -71v-10z" />
    <glyph glyph-name="idieresis" unicode="&#xef;" horiz-adv-x="317" 
d="M184 618q0 32 24 56.5t58 24.5t58.5 -24t24.5 -57q0 -34 -24.5 -58t-58.5 -24t-58 24t-24 58zM-26 618q0 32 24.5 56.5t57.5 24.5q34 0 58.5 -24t24.5 -57q0 -34 -24.5 -58t-58.5 -24q-33 0 -57.5 24t-24.5 58zM302 0h-281v10q56 6 56 71v252q0 40 -19 56t-47 14v10
l226 62l8 -3l-2 -129v-262q0 -65 59 -71v-10z" />
    <glyph glyph-name="eth" unicode="&#xf0;" horiz-adv-x="559" 
d="M275 -18q-104 0 -176 71.5t-72 177.5q0 97 72.5 171t168.5 74q33 0 58 -13q-37 80 -88 134l-87 -51l-8 16l83 48q-48 48 -119 86l8 14q85 -27 163 -70l83 48l7 -15l-74 -43q114 -69 176 -165t62 -204q0 -70 -24.5 -126t-63.5 -88t-82.5 -48.5t-86.5 -16.5zM199 230
q0 -230 83 -230q75 0 75 226q0 107 -20.5 169.5t-60.5 61.5q-77 -2 -77 -227z" />
    <glyph glyph-name="ntilde" unicode="&#xf1;" horiz-adv-x="606" 
d="M378 544q-26 0 -76 18.5t-76 18.5q-50 0 -70 -47l-9 2q4 56 34 95.5t75 39.5q26 0 76 -18.5t76 -18.5q51 0 70 47l10 -2q-5 -57 -35 -96t-75 -39zM287 9v-9h-266v10q56 6 56 71v252q0 40 -19 56t-47 14v10l222 62l8 -3v-80q78 84 168 84q57 0 91.5 -33.5t34.5 -96.5v-265
q0 -65 56 -71v-10h-267v9q24 2 34.5 18t10.5 54v248q0 73 -56 73q-35 0 -70 -32v-289q0 -67 44 -72z" />
    <glyph glyph-name="ograve" unicode="&#xf2;" horiz-adv-x="558" 
d="M342 523h-13l-157 67q-48 21 -48 63q0 23 15.5 39t37.5 16q29 0 52 -31zM279 -18q-108 0 -180 71t-72 174q0 102 74.5 175.5t177.5 73.5q111 0 181.5 -71t70.5 -175q0 -100 -73 -174t-179 -74zM199 232q0 -109 21.5 -170.5t58.5 -61.5q78 0 78 227q0 110 -21.5 170.5
t-60.5 60.5q-76 0 -76 -226z" />
    <glyph glyph-name="oacute" unicode="&#xf3;" horiz-adv-x="558" 
d="M228 522h-13l113 154q21 30 52 30q21 0 36.5 -15t15.5 -38q0 -44 -47 -64zM279 -18q-108 0 -180 71t-72 174q0 102 74.5 175.5t177.5 73.5q111 0 181.5 -71t70.5 -175q0 -100 -73 -174t-179 -74zM199 232q0 -109 21.5 -170.5t58.5 -61.5q78 0 78 227q0 110 -21.5 170.5
t-60.5 60.5q-76 0 -76 -226z" />
    <glyph glyph-name="ocircumflex" unicode="&#xf4;" horiz-adv-x="558" 
d="M424 521l-146 79l-152 -79h-14l117 155h100l113 -155h-18zM279 -18q-108 0 -180 71t-72 174q0 102 74.5 175.5t177.5 73.5q111 0 181.5 -71t70.5 -175q0 -100 -73 -174t-179 -74zM199 232q0 -109 21.5 -170.5t58.5 -61.5q78 0 78 227q0 110 -21.5 170.5t-60.5 60.5
q-76 0 -76 -226z" />
    <glyph glyph-name="otilde" unicode="&#xf5;" horiz-adv-x="558" 
d="M348 544q-26 0 -76 18.5t-76 18.5q-50 0 -70 -47l-9 2q4 56 34 95.5t75 39.5q26 0 76 -18.5t76 -18.5q51 0 70 47l10 -2q-5 -57 -35 -96t-75 -39zM279 -18q-108 0 -180 71t-72 174q0 102 74.5 175.5t177.5 73.5q111 0 181.5 -71t70.5 -175q0 -100 -73 -174t-179 -74z
M199 232q0 -109 21.5 -170.5t58.5 -61.5q78 0 78 227q0 110 -21.5 170.5t-60.5 60.5q-76 0 -76 -226z" />
    <glyph glyph-name="odieresis" unicode="&#xf6;" horiz-adv-x="558" 
d="M300 618q0 32 24 56.5t58 24.5t58.5 -24t24.5 -57q0 -34 -24.5 -58t-58.5 -24t-58 24t-24 58zM90 618q0 32 24.5 56.5t57.5 24.5q34 0 58.5 -24t24.5 -57q0 -34 -24.5 -58t-58.5 -24q-33 0 -57.5 24t-24.5 58zM279 -18q-108 0 -180 71t-72 174q0 102 74.5 175.5
t177.5 73.5q111 0 181.5 -71t70.5 -175q0 -100 -73 -174t-179 -74zM199 232q0 -109 21.5 -170.5t58.5 -61.5q78 0 78 227q0 110 -21.5 170.5t-60.5 60.5q-76 0 -76 -226z" />
    <glyph glyph-name="divide" unicode="&#xf7;" horiz-adv-x="606" 
d="M303 401q-38 0 -65.5 27t-27.5 66q0 38 27.5 65t65.5 27t66 -27t28 -65q0 -39 -27.5 -66t-66.5 -27zM47 315h512v-29h-512v29zM303 18q-38 0 -65.5 27t-27.5 66q0 38 27.5 65t65.5 27t66 -27t28 -65q0 -39 -27.5 -66t-66.5 -27z" />
    <glyph glyph-name="oslash" unicode="&#xf8;" horiz-adv-x="558" 
d="M279 -18q-88 0 -157 51l-33 -38h-27l45 51q-80 72 -80 181q0 102 74.5 175.5t177.5 73.5q94 0 160 -52l34 39h28l-46 -53q76 -71 76 -180q0 -100 -73 -174t-179 -74zM199 232q0 -43 3 -77l150 170q-17 133 -77 133q-76 0 -76 -226zM279 0q78 0 78 227q0 37 -3 69
l-149 -169q19 -127 74 -127z" />
    <glyph glyph-name="ugrave" unicode="&#xf9;" horiz-adv-x="590" 
d="M358 523h-13l-157 67q-48 21 -48 63q0 23 15.5 39t37.5 16q29 0 52 -31zM354 -12v71q-77 -77 -161 -77q-55 0 -88 33.5t-33 96.5v221q0 40 -17.5 56t-44.5 14v10l220 62l8 -3v-357q0 -30 14.5 -46t37.5 -16q30 0 61 27v254q0 40 -15 56t-38 14v9l211 62l8 -3v-373
q0 -42 16.5 -60t41.5 -16v-10l-213 -28z" />
    <glyph glyph-name="uacute" unicode="&#xfa;" horiz-adv-x="590" 
d="M244 522h-13l113 154q21 30 52 30q21 0 36.5 -15t15.5 -38q0 -44 -47 -64zM354 -12v71q-77 -77 -161 -77q-55 0 -88 33.5t-33 96.5v221q0 40 -17.5 56t-44.5 14v10l220 62l8 -3v-357q0 -30 14.5 -46t37.5 -16q30 0 61 27v254q0 40 -15 56t-38 14v9l211 62l8 -3v-373
q0 -42 16.5 -60t41.5 -16v-10l-213 -28z" />
    <glyph glyph-name="ucircumflex" unicode="&#xfb;" horiz-adv-x="590" 
d="M440 521l-146 79l-152 -79h-14l117 155h100l113 -155h-18zM354 -12v71q-77 -77 -161 -77q-55 0 -88 33.5t-33 96.5v221q0 40 -17.5 56t-44.5 14v10l220 62l8 -3v-357q0 -30 14.5 -46t37.5 -16q30 0 61 27v254q0 40 -15 56t-38 14v9l211 62l8 -3v-373q0 -42 16.5 -60
t41.5 -16v-10l-213 -28z" />
    <glyph glyph-name="udieresis" unicode="&#xfc;" horiz-adv-x="590" 
d="M316 618q0 32 24 56.5t58 24.5t58.5 -24t24.5 -57q0 -34 -24.5 -58t-58.5 -24t-58 24t-24 58zM106 618q0 32 24.5 56.5t57.5 24.5q34 0 58.5 -24t24.5 -57q0 -34 -24.5 -58t-58.5 -24q-33 0 -57.5 24t-24.5 58zM354 -12v71q-77 -77 -161 -77q-55 0 -88 33.5t-33 96.5v221
q0 40 -17.5 56t-44.5 14v10l220 62l8 -3v-357q0 -30 14.5 -46t37.5 -16q30 0 61 27v254q0 40 -15 56t-38 14v9l211 62l8 -3v-373q0 -42 16.5 -60t41.5 -16v-10l-213 -28z" />
    <glyph glyph-name="yacute" unicode="&#xfd;" horiz-adv-x="554" 
d="M259 522h-13l113 154q21 30 52 30q21 0 36.5 -15t15.5 -38q0 -44 -47 -64zM63 -245q-44 0 -72.5 22t-28.5 61q0 32 21.5 53t51.5 21q45 0 66 -45q3 -6 7 -16t6.5 -15t6.5 -11.5t9 -9t11 -2.5q18 0 39.5 23.5t38.5 63.5l35 79l-168 368q-39 84 -81 102v9h291v-9
q-30 -2 -38 -30.5t13 -78.5l74 -167l40 89q36 80 27 131.5t-57 55.5v9h193v-9q-32 -8 -59 -44t-73 -135l-175 -378q-31 -68 -78 -102.5t-100 -34.5z" />
    <glyph glyph-name="thorn" unicode="&#xfe;" horiz-adv-x="574" 
d="M288 -1q35 0 62 59.5t27 155.5q0 86 -25 129t-70 43q-24 0 -46 -15v-304q4 -32 19 -50t33 -18zM294 -219v-10h-282v10q58 6 58 71v766q0 41 -17.5 57t-44.5 14v10l220 57l8 -3v-353q57 76 140 76q82 0 126 -63t44 -149q0 -119 -80 -200.5t-178 -81.5q-30 0 -52 9v-139
q0 -65 58 -71z" />
    <glyph glyph-name="ydieresis" unicode="&#xff;" horiz-adv-x="554" 
d="M332 618q0 32 24 56.5t58 24.5t58.5 -24t24.5 -57q0 -34 -24.5 -58t-58.5 -24t-58 24t-24 58zM122 618q0 32 24.5 56.5t57.5 24.5q34 0 58.5 -24t24.5 -57q0 -34 -24.5 -58t-58.5 -24q-33 0 -57.5 24t-24.5 58zM63 -245q-44 0 -72.5 22t-28.5 61q0 32 21.5 53t51.5 21
q45 0 66 -45q3 -6 7 -16t6.5 -15t6.5 -11.5t9 -9t11 -2.5q18 0 39.5 23.5t38.5 63.5l35 79l-168 368q-39 84 -81 102v9h291v-9q-30 -2 -38 -30.5t13 -78.5l74 -167l40 89q36 80 27 131.5t-57 55.5v9h193v-9q-32 -8 -59 -44t-73 -135l-175 -378q-31 -68 -78 -102.5
t-100 -34.5z" />
    <glyph glyph-name="Amacron" unicode="&#x100;" horiz-adv-x="750" 
d="M237 845h281v-31h-281v31zM297 500l-95 -259h193zM268 10v-10h-258v10q47 10 82 58.5t78 160.5l183 479h58l227 -582q38 -98 102 -116v-10h-353v10q50 10 58.5 39t-23.5 120l-19 50h-208q-60 -191 73 -209z" />
    <glyph glyph-name="amacron" unicode="&#x101;" horiz-adv-x="526" 
d="M97 632h281v-31h-281v31zM235 52q26 0 48 18q-3 16 -3 36v156q-106 -41 -106 -133q0 -38 17.5 -57.5t43.5 -19.5zM385 -16q-76 0 -97 66q-66 -68 -149 -68q-49 0 -83.5 29t-34.5 80q0 60 56.5 104.5t202.5 83.5v88q0 51 -10 72t-32 21q-21 0 -28.5 -12t-12 -41.5
t-10.5 -45.5q-21 -58 -75 -58q-28 0 -46.5 18t-18.5 47q0 47 50.5 77.5t144.5 30.5q101 0 153 -42.5t52 -116.5v-229q0 -40 29 -40q22 0 39 24l10 -7q-48 -81 -140 -81z" />
    <glyph glyph-name="Abreve" unicode="&#x102;" horiz-adv-x="750" 
d="M375 779q-64 0 -105 36t-41 100h16q4 -28 38.5 -43t91.5 -15t92 15t39 43h16q0 -64 -41.5 -100t-105.5 -36zM297 500l-95 -259h193zM268 10v-10h-258v10q47 10 82 58.5t78 160.5l183 479h58l227 -582q38 -98 102 -116v-10h-353v10q50 10 58.5 39t-23.5 120l-19 50h-208
q-60 -191 73 -209z" />
    <glyph glyph-name="abreve" unicode="&#x103;" horiz-adv-x="526" 
d="M236 541q-64 0 -105 37.5t-41 103.5h16q5 -30 39.5 -46.5t90.5 -16.5q57 0 91.5 16.5t39.5 46.5h16q0 -66 -41.5 -103.5t-105.5 -37.5zM235 52q26 0 48 18q-3 16 -3 36v156q-106 -41 -106 -133q0 -38 17.5 -57.5t43.5 -19.5zM385 -16q-76 0 -97 66q-66 -68 -149 -68
q-49 0 -83.5 29t-34.5 80q0 60 56.5 104.5t202.5 83.5v88q0 51 -10 72t-32 21q-21 0 -28.5 -12t-12 -41.5t-10.5 -45.5q-21 -58 -75 -58q-28 0 -46.5 18t-18.5 47q0 47 50.5 77.5t144.5 30.5q101 0 153 -42.5t52 -116.5v-229q0 -40 29 -40q22 0 39 24l10 -7
q-48 -81 -140 -81z" />
    <glyph glyph-name="Aogonek" unicode="&#x104;" horiz-adv-x="750" 
d="M297 500l-95 -259h193zM692 -193q-35 -52 -97 -52q-48 0 -74 28t-26 69q0 45 31.5 85.5t88.5 62.5h-228v10q50 10 58.5 39t-23.5 120l-19 50h-208q-60 -191 73 -209v-10h-258v10q47 10 82 58.5t78 160.5l183 479h58l227 -582q38 -98 102 -116v-10h-94q-62 -26 -62 -118
q0 -85 57 -85q23 0 43 17z" />
    <glyph glyph-name="aogonek" unicode="&#x105;" horiz-adv-x="526" 
d="M403 -245q-48 0 -74 28t-26 69q0 81 86 132h-4q-76 0 -97 66q-66 -68 -149 -68q-49 0 -83.5 29t-34.5 80q0 60 56.5 104.5t202.5 83.5v88q0 51 -10 72t-32 21q-21 0 -28.5 -12t-12 -41.5t-10.5 -45.5q-21 -58 -75 -58q-28 0 -46.5 18t-18.5 47q0 47 50.5 77.5t144.5 30.5
q101 0 153 -42.5t52 -116.5v-229q0 -40 29 -40q22 0 39 24l10 -7q-30 -51 -82 -71q-51 -31 -51 -112q0 -85 57 -85q23 0 43 17l8 -7q-35 -52 -97 -52zM235 52q26 0 48 18q-3 16 -3 36v156q-106 -41 -106 -133q0 -38 17.5 -57.5t43.5 -19.5z" />
    <glyph glyph-name="Cacute" unicode="&#x106;" horiz-adv-x="709" 
d="M348 770l123 133q22 22 46 22q23 0 38.5 -15.5t15.5 -38.5q0 -21 -14.5 -37.5t-39.5 -22.5l-158 -41h-11zM624 479l-18 2q-16 93 -66.5 154t-117.5 61q-80 0 -138.5 -84.5t-58.5 -220.5q0 -149 64.5 -227t168.5 -78q62 0 113 28t77 80l17 -5q-35 -99 -110 -153t-175 -54
q-146 0 -248 105.5t-102 253.5q0 163 118 271t295 108q138 0 229 -44z" />
    <glyph glyph-name="cacute" unicode="&#x107;" horiz-adv-x="491" 
d="M223 522h-13l113 154q21 30 52 30q21 0 36.5 -15t15.5 -38q0 -44 -47 -64zM324 356q-3 8 -9 30t-10.5 35t-15.5 25t-26 12q-31 0 -52 -44.5t-21 -123.5q0 -98 39.5 -151.5t107.5 -53.5q81 0 122 75l12 -5q-23 -84 -78.5 -128.5t-135.5 -44.5q-96 0 -163 66.5t-67 171.5
q0 110 73.5 183t185.5 73q81 0 126 -32t45 -73q0 -27 -18.5 -45t-48.5 -18q-49 0 -66 48z" />
    <glyph glyph-name="Ccircumflex" unicode="&#x108;" horiz-adv-x="709" 
d="M567 776l-145 55l-151 -55h-14l116 130h100l112 -130h-18zM624 479l-18 2q-16 93 -66.5 154t-117.5 61q-80 0 -138.5 -84.5t-58.5 -220.5q0 -149 64.5 -227t168.5 -78q62 0 113 28t77 80l17 -5q-35 -99 -110 -153t-175 -54q-146 0 -248 105.5t-102 253.5q0 163 118 271
t295 108q138 0 229 -44z" />
    <glyph glyph-name="ccircumflex" unicode="&#x109;" horiz-adv-x="491" 
d="M420 521l-146 79l-152 -79h-14l117 155h100l113 -155h-18zM324 356q-3 8 -9 30t-10.5 35t-15.5 25t-26 12q-31 0 -52 -44.5t-21 -123.5q0 -98 39.5 -151.5t107.5 -53.5q81 0 122 75l12 -5q-23 -84 -78.5 -128.5t-135.5 -44.5q-96 0 -163 66.5t-67 171.5q0 110 73.5 183
t185.5 73q81 0 126 -32t45 -73q0 -27 -18.5 -45t-48.5 -18q-49 0 -66 48z" />
    <glyph glyph-name="Cdotaccent" unicode="&#x10a;" horiz-adv-x="709" 
d="M419 777q-33 0 -57.5 24t-24.5 58q0 32 24.5 56.5t57.5 24.5q34 0 58.5 -24t24.5 -57q0 -34 -24.5 -58t-58.5 -24zM624 479l-18 2q-16 93 -66.5 154t-117.5 61q-80 0 -138.5 -84.5t-58.5 -220.5q0 -149 64.5 -227t168.5 -78q62 0 113 28t77 80l17 -5q-35 -99 -110 -153
t-175 -54q-146 0 -248 105.5t-102 253.5q0 163 118 271t295 108q138 0 229 -44z" />
    <glyph glyph-name="cdotaccent" unicode="&#x10b;" horiz-adv-x="491" 
d="M188 618q0 32 24.5 56.5t57.5 24.5q34 0 58.5 -24t24.5 -57q0 -34 -24.5 -58t-58.5 -24q-33 0 -57.5 24t-24.5 58zM324 356q-3 8 -9 30t-10.5 35t-15.5 25t-26 12q-31 0 -52 -44.5t-21 -123.5q0 -98 39.5 -151.5t107.5 -53.5q81 0 122 75l12 -5q-23 -84 -78.5 -128.5
t-135.5 -44.5q-96 0 -163 66.5t-67 171.5q0 110 73.5 183t185.5 73q81 0 126 -32t45 -73q0 -27 -18.5 -45t-48.5 -18q-49 0 -66 48z" />
    <glyph glyph-name="Ccaron" unicode="&#x10c;" horiz-adv-x="709" 
d="M275 906l145 -54l151 54h14l-116 -130h-100l-112 130h18zM624 479l-18 2q-16 93 -66.5 154t-117.5 61q-80 0 -138.5 -84.5t-58.5 -220.5q0 -149 64.5 -227t168.5 -78q62 0 113 28t77 80l17 -5q-35 -99 -110 -153t-175 -54q-146 0 -248 105.5t-102 253.5q0 163 118 271
t295 108q138 0 229 -44z" />
    <glyph glyph-name="ccaron" unicode="&#x10d;" horiz-adv-x="491" 
d="M415 683h18l-113 -155h-100l-117 155h14l152 -79zM324 356q-3 8 -9 30t-10.5 35t-15.5 25t-26 12q-31 0 -52 -44.5t-21 -123.5q0 -98 39.5 -151.5t107.5 -53.5q81 0 122 75l12 -5q-23 -84 -78.5 -128.5t-135.5 -44.5q-96 0 -163 66.5t-67 171.5q0 110 73.5 183t185.5 73
q81 0 126 -32t45 -73q0 -27 -18.5 -45t-48.5 -18q-49 0 -66 48z" />
    <glyph glyph-name="Dcaron" unicode="&#x10e;" horiz-adv-x="782" 
d="M224 906l145 -54l151 54h14l-116 -130h-100l-112 130h18zM20 0v10q78 8 78 104v473q0 95 -78 103v10h347q168 0 276.5 -100.5t108.5 -244.5q0 -99 -52.5 -181.5t-140 -128t-188.5 -45.5h-351zM343 679h-59v-658h64q96 0 147 76t51 249q0 161 -56.5 247t-146.5 86z" />
    <glyph glyph-name="dcaron" unicode="&#x10f;" horiz-adv-x="699" 
d="M584 485h-9l-3 200q-1 36 16.5 54t43.5 18q23 0 40 -16t17 -43q0 -22 -15 -52zM288 68q24 0 44 15v327q-12 51 -50 51q-37 0 -64 -62t-27 -157q0 -88 27 -131t70 -43zM335 -12v74q-58 -80 -138 -80q-73 0 -121.5 58t-48.5 152q0 119 77.5 201.5t181.5 82.5q22 0 46 -7
v149q0 41 -17.5 57t-44.5 14v10l220 57l8 -3v-654q0 -42 16.5 -60t41.5 -16v-10l-213 -28z" />
    <glyph glyph-name="Dcroat" unicode="&#x110;" horiz-adv-x="782" 
d="M371 0h-351v10q78 8 78 104v249h-75v23h75v201q0 95 -78 103v10h347q168 0 276.5 -100.5t108.5 -244.5q0 -99 -52.5 -181.5t-140 -128t-188.5 -45.5zM284 21h64q96 0 147 76t51 249q0 161 -56.5 247t-146.5 86h-59v-293h97v-23h-97v-342z" />
    <glyph glyph-name="dcroat" unicode="&#x111;" horiz-adv-x="569" 
d="M288 68q24 0 44 15v327q-12 51 -50 51q-37 0 -64 -62t-27 -157q0 -88 27 -131t70 -43zM335 -12v74q-58 -80 -138 -80q-73 0 -121.5 58t-48.5 152q0 119 77.5 201.5t181.5 82.5q22 0 46 -7v92h-123v21h123v36q0 41 -17.5 57t-44.5 14v10l220 57l8 -3v-171h62v-21h-62v-462
q0 -42 16.5 -60t41.5 -16v-10l-213 -28z" />
    <glyph glyph-name="Emacron" unicode="&#x112;" horiz-adv-x="675" 
d="M209 845h281v-31h-281v31zM639 221l-25 -221h-594v10q36 4 57 25t21 76v472q0 99 -78 107v10h564l30 -187h-15q-52 76 -122.5 121t-145.5 45h-47v-299h40q62 0 111 38t57 90h14v-280h-14q-9 54 -58.5 92.5t-109.5 38.5h-40v-338h66q87 0 163 58.5t109 141.5h17z" />
    <glyph glyph-name="emacron" unicode="&#x113;" horiz-adv-x="495" 
d="M123 632h281v-31h-281v31zM469 157q-21 -81 -77.5 -128t-134.5 -47q-96 0 -163 68t-67 170q0 107 71.5 181.5t168.5 74.5q88 0 144.5 -57.5t60.5 -152.5h-286q4 -87 43.5 -134.5t101.5 -47.5q85 0 127 76zM266 458q-32 0 -56 -47.5t-24 -123.5h136q3 171 -56 171z" />
    <glyph glyph-name="Ebreve" unicode="&#x114;" horiz-adv-x="675" 
d="M347 779q-64 0 -105 36t-41 100h16q4 -28 38.5 -43t91.5 -15t92 15t39 43h16q0 -64 -41.5 -100t-105.5 -36zM639 221l-25 -221h-594v10q36 4 57 25t21 76v472q0 99 -78 107v10h564l30 -187h-15q-52 76 -122.5 121t-145.5 45h-47v-299h40q62 0 111 38t57 90h14v-280h-14
q-9 54 -58.5 92.5t-109.5 38.5h-40v-338h66q87 0 163 58.5t109 141.5h17z" />
    <glyph glyph-name="ebreve" unicode="&#x115;" horiz-adv-x="495" 
d="M262 541q-64 0 -105 37.5t-41 103.5h16q5 -30 39.5 -46.5t90.5 -16.5q57 0 91.5 16.5t39.5 46.5h16q0 -66 -41.5 -103.5t-105.5 -37.5zM469 157q-21 -81 -77.5 -128t-134.5 -47q-96 0 -163 68t-67 170q0 107 71.5 181.5t168.5 74.5q88 0 144.5 -57.5t60.5 -152.5h-286
q4 -87 43.5 -134.5t101.5 -47.5q85 0 127 76zM266 458q-32 0 -56 -47.5t-24 -123.5h136q3 171 -56 171z" />
    <glyph glyph-name="Edotaccent" unicode="&#x116;" horiz-adv-x="675" 
d="M346 777q-33 0 -57.5 24t-24.5 58q0 32 24.5 56.5t57.5 24.5q34 0 58.5 -24t24.5 -57q0 -34 -24.5 -58t-58.5 -24zM639 221l-25 -221h-594v10q36 4 57 25t21 76v472q0 99 -78 107v10h564l30 -187h-15q-52 76 -122.5 121t-145.5 45h-47v-299h40q62 0 111 38t57 90h14v-280
h-14q-9 54 -58.5 92.5t-109.5 38.5h-40v-338h66q87 0 163 58.5t109 141.5h17z" />
    <glyph glyph-name="edotaccent" unicode="&#x117;" horiz-adv-x="495" 
d="M178 618q0 32 24.5 56.5t57.5 24.5q34 0 58.5 -24t24.5 -57q0 -34 -24.5 -58t-58.5 -24q-33 0 -57.5 24t-24.5 58zM469 157q-21 -81 -77.5 -128t-134.5 -47q-96 0 -163 68t-67 170q0 107 71.5 181.5t168.5 74.5q88 0 144.5 -57.5t60.5 -152.5h-286q4 -87 43.5 -134.5
t101.5 -47.5q85 0 127 76zM266 458q-32 0 -56 -47.5t-24 -123.5h136q3 171 -56 171z" />
    <glyph glyph-name="Eogonek" unicode="&#x118;" horiz-adv-x="675" 
d="M573 -193q-35 -52 -97 -52q-48 0 -74 28t-26 69q0 45 31.5 85.5t88.5 62.5h-476v10q36 4 57 25t21 76v472q0 99 -78 107v10h564l30 -187h-15q-52 76 -122.5 121t-145.5 45h-47v-299h40q62 0 111 38t57 90h14v-280h-14q-9 54 -58.5 92.5t-109.5 38.5h-40v-338h66
q87 0 163 58.5t109 141.5h17l-25 -221h-87q-62 -26 -62 -118q0 -85 57 -85q23 0 43 17z" />
    <glyph glyph-name="eogonek" unicode="&#x119;" horiz-adv-x="495" 
d="M390 -193q-35 -52 -97 -52q-48 0 -74 28t-26 69q0 37 22 72t62 59q-6 -1 -20 -1q-96 0 -163 68t-67 170q0 107 71.5 181.5t168.5 74.5q88 0 144.5 -57.5t60.5 -152.5h-286q4 -87 43.5 -134.5t101.5 -47.5q85 0 127 76l11 -3q-31 -119 -131 -160q-56 -29 -56 -115
q0 -85 57 -85q23 0 43 17zM266 458q-32 0 -56 -47.5t-24 -123.5h136q3 171 -56 171z" />
    <glyph glyph-name="Ecaron" unicode="&#x11a;" horiz-adv-x="675" 
d="M202 906l145 -54l151 54h14l-116 -130h-100l-112 130h18zM639 221l-25 -221h-594v10q36 4 57 25t21 76v472q0 99 -78 107v10h564l30 -187h-15q-52 76 -122.5 121t-145.5 45h-47v-299h40q62 0 111 38t57 90h14v-280h-14q-9 54 -58.5 92.5t-109.5 38.5h-40v-338h66
q87 0 163 58.5t109 141.5h17z" />
    <glyph glyph-name="ecaron" unicode="&#x11b;" horiz-adv-x="495" 
d="M405 683h18l-113 -155h-100l-117 155h14l152 -79zM469 157q-21 -81 -77.5 -128t-134.5 -47q-96 0 -163 68t-67 170q0 107 71.5 181.5t168.5 74.5q88 0 144.5 -57.5t60.5 -152.5h-286q4 -87 43.5 -134.5t101.5 -47.5q85 0 127 76zM266 458q-32 0 -56 -47.5t-24 -123.5h136
q3 171 -56 171z" />
    <glyph glyph-name="Gcircumflex" unicode="&#x11c;" horiz-adv-x="805" 
d="M570 776l-145 55l-151 -55h-14l116 130h100l112 -130h-18zM723 220v-157q-50 -35 -134.5 -59.5t-167.5 -24.5q-101 0 -189 43.5t-145 130t-57 197.5q0 170 119.5 270t300.5 100q67 0 136 -12t112 -32l-57 -197l-18 2q-13 99 -67.5 157.5t-129.5 58.5q-87 0 -139.5 -84.5
t-52.5 -255.5q0 -179 52.5 -267.5t136.5 -88.5q53 0 86 27.5t33 81.5v110q0 56 -22 78.5t-60 25.5v10h327v-10q-64 -8 -64 -104z" />
    <glyph glyph-name="gcircumflex" unicode="&#x11d;" horiz-adv-x="534" 
d="M413 521l-146 79l-152 -79h-14l117 155h100l113 -155h-18zM195 308q0 -75 20 -113t49 -38q28 0 49 38.5t21 111.5t-21 111.5t-49 38.5q-29 0 -49 -38t-20 -111zM528 -61q0 -75 -81.5 -131t-220.5 -56q-111 0 -174 31.5t-63 82.5q0 69 100 102q-47 31 -47 87q0 71 85 114
q-41 22 -65.5 57t-24.5 75q0 71 67.5 123t156.5 52q51 0 100 -18h160v-23h-52q-43 0 -61 1q83 -50 83 -128q0 -74 -71 -122.5t-161 -48.5q-60 0 -108 21q-28 -17 -26 -40q1 -16 15.5 -23t57.5 -10l149 -7q85 -5 133 -41.5t48 -97.5zM243 -229q73 0 115.5 29t42.5 70
q0 57 -59 60l-139 6q-39 2 -72 12q-30 -26 -30 -69q0 -52 37.5 -80t104.5 -28z" />
    <glyph glyph-name="Gbreve" unicode="&#x11e;" horiz-adv-x="805" 
d="M423 779q-64 0 -105 36t-41 100h16q4 -28 38.5 -43t91.5 -15t92 15t39 43h16q0 -64 -41.5 -100t-105.5 -36zM723 220v-157q-50 -35 -134.5 -59.5t-167.5 -24.5q-101 0 -189 43.5t-145 130t-57 197.5q0 170 119.5 270t300.5 100q67 0 136 -12t112 -32l-57 -197l-18 2
q-13 99 -67.5 157.5t-129.5 58.5q-87 0 -139.5 -84.5t-52.5 -255.5q0 -179 52.5 -267.5t136.5 -88.5q53 0 86 27.5t33 81.5v110q0 56 -22 78.5t-60 25.5v10h327v-10q-64 -8 -64 -104z" />
    <glyph glyph-name="gbreve" unicode="&#x11f;" horiz-adv-x="534" 
d="M265 541q-64 0 -105 37.5t-41 103.5h16q5 -30 39.5 -46.5t90.5 -16.5q57 0 91.5 16.5t39.5 46.5h16q0 -66 -41.5 -103.5t-105.5 -37.5zM195 308q0 -75 20 -113t49 -38q28 0 49 38.5t21 111.5t-21 111.5t-49 38.5q-29 0 -49 -38t-20 -111zM528 -61q0 -75 -81.5 -131
t-220.5 -56q-111 0 -174 31.5t-63 82.5q0 69 100 102q-47 31 -47 87q0 71 85 114q-41 22 -65.5 57t-24.5 75q0 71 67.5 123t156.5 52q51 0 100 -18h160v-23h-52q-43 0 -61 1q83 -50 83 -128q0 -74 -71 -122.5t-161 -48.5q-60 0 -108 21q-28 -17 -26 -40q1 -16 15.5 -23
t57.5 -10l149 -7q85 -5 133 -41.5t48 -97.5zM243 -229q73 0 115.5 29t42.5 70q0 57 -59 60l-139 6q-39 2 -72 12q-30 -26 -30 -69q0 -52 37.5 -80t104.5 -28z" />
    <glyph glyph-name="Gdotaccent" unicode="&#x120;" horiz-adv-x="805" 
d="M422 777q-33 0 -57.5 24t-24.5 58q0 32 24.5 56.5t57.5 24.5q34 0 58.5 -24t24.5 -57q0 -34 -24.5 -58t-58.5 -24zM723 220v-157q-50 -35 -134.5 -59.5t-167.5 -24.5q-101 0 -189 43.5t-145 130t-57 197.5q0 170 119.5 270t300.5 100q67 0 136 -12t112 -32l-57 -197
l-18 2q-13 99 -67.5 157.5t-129.5 58.5q-87 0 -139.5 -84.5t-52.5 -255.5q0 -179 52.5 -267.5t136.5 -88.5q53 0 86 27.5t33 81.5v110q0 56 -22 78.5t-60 25.5v10h327v-10q-64 -8 -64 -104z" />
    <glyph glyph-name="gdotaccent" unicode="&#x121;" horiz-adv-x="534" 
d="M181 618q0 32 24.5 56.5t57.5 24.5q34 0 58.5 -24t24.5 -57q0 -34 -24.5 -58t-58.5 -24q-33 0 -57.5 24t-24.5 58zM195 308q0 -75 20 -113t49 -38q28 0 49 38.5t21 111.5t-21 111.5t-49 38.5q-29 0 -49 -38t-20 -111zM528 -61q0 -75 -81.5 -131t-220.5 -56
q-111 0 -174 31.5t-63 82.5q0 69 100 102q-47 31 -47 87q0 71 85 114q-41 22 -65.5 57t-24.5 75q0 71 67.5 123t156.5 52q51 0 100 -18h160v-23h-52q-43 0 -61 1q83 -50 83 -128q0 -74 -71 -122.5t-161 -48.5q-60 0 -108 21q-28 -17 -26 -40q1 -16 15.5 -23t57.5 -10l149 -7
q85 -5 133 -41.5t48 -97.5zM243 -229q73 0 115.5 29t42.5 70q0 57 -59 60l-139 6q-39 2 -72 12q-30 -26 -30 -69q0 -52 37.5 -80t104.5 -28z" />
    <glyph glyph-name="Gcommaaccent" unicode="&#x122;" horiz-adv-x="805" 
d="M723 220v-157q-50 -35 -134.5 -59.5t-167.5 -24.5q-101 0 -189 43.5t-145 130t-57 197.5q0 170 119.5 270t300.5 100q67 0 136 -12t112 -32l-57 -197l-18 2q-13 99 -67.5 157.5t-129.5 58.5q-87 0 -139.5 -84.5t-52.5 -255.5q0 -179 52.5 -267.5t136.5 -88.5
q53 0 86 27.5t33 81.5v110q0 56 -22 78.5t-60 25.5v10h327v-10q-64 -8 -64 -104zM441 -279q0 11 -5.5 19t-12 11t-20 8.5t-20.5 8.5q-49 24 -49 73q0 35 24 59.5t64 24.5q38 0 61.5 -26t23.5 -71q0 -70 -39.5 -129.5t-103.5 -74.5l-6 15q28 5 55.5 32t27.5 50z" />
    <glyph glyph-name="gcommaaccent" unicode="&#x123;" horiz-adv-x="538" 
d="M242 743q0 -11 5.5 -19t12 -11t20 -8.5t20.5 -8.5q49 -24 49 -73q0 -35 -24 -59.5t-64 -24.5q-38 0 -61.5 26t-23.5 71q0 70 39.5 129.5t103.5 74.5l6 -15q-28 -5 -55.5 -32t-27.5 -50zM195 308q0 -75 20 -113t49 -38q28 0 49 38.5t21 111.5t-21 111.5t-49 38.5
q-29 0 -49 -38t-20 -111zM528 -61q0 -75 -81.5 -131t-220.5 -56q-111 0 -174 31.5t-63 82.5q0 69 100 102q-47 31 -47 87q0 71 85 114q-41 22 -65.5 57t-24.5 75q0 71 67.5 123t156.5 52q51 0 100 -18h160v-23h-52q-43 0 -61 1q83 -50 83 -128q0 -74 -71 -122.5t-161 -48.5
q-60 0 -108 21q-28 -17 -26 -40q1 -16 15.5 -23t57.5 -10l149 -7q85 -5 133 -41.5t48 -97.5zM243 -229q73 0 115.5 29t42.5 70q0 57 -59 60l-139 6q-39 2 -72 12q-30 -26 -30 -69q0 -52 37.5 -80t104.5 -28z" />
    <glyph glyph-name="Hcircumflex" unicode="&#x124;" horiz-adv-x="801" 
d="M545 776l-145 55l-151 -55h-14l116 130h100l112 -130h-18zM359 10v-10h-339v10q78 8 78 104v472q0 96 -78 104v10h339v-10q-34 -4 -54 -24.5t-20 -74.5v-218h231v218q0 54 -20 74.5t-54 24.5v10h339v-10q-79 -8 -79 -104v-472q0 -96 79 -104v-10h-339v10q34 4 54 24.5
t20 74.5v241h-231v-241q0 -54 20 -74.5t54 -24.5z" />
    <glyph glyph-name="hcircumflex" unicode="&#x125;" horiz-adv-x="603" 
d="M433 786l-145 55l-151 -55h-14l116 130h100l112 -130h-18zM284 9v-9h-263v10q53 6 53 71v537q0 41 -17.5 57t-44.5 14v10l220 57l8 -3v-358q77 81 166 81q57 0 91 -33.5t34 -96.5v-265q0 -65 56 -71v-10h-266v9q23 2 33.5 18t10.5 53v249q0 36 -15 54.5t-40 18.5
q-35 0 -70 -32v-290q0 -66 44 -71z" />
    <glyph glyph-name="Hbar" unicode="&#x126;" horiz-adv-x="801" 
d="M516 373v122h-231v-122h231zM359 10v-10h-339v10q78 8 78 104v381h-87v22h87v69q0 96 -78 104v10h339v-10q-34 -4 -54 -24.5t-20 -74.5v-74h231v74q0 54 -20 74.5t-54 24.5v10h339v-10q-79 -8 -79 -104v-69h86v-22h-86v-381q0 -96 79 -104v-10h-339v10q34 4 54 24.5
t20 74.5v241h-231v-241q0 -54 20 -74.5t54 -24.5z" />
    <glyph glyph-name="hbar" unicode="&#x127;" horiz-adv-x="603" 
d="M284 9v-9h-263v10q53 6 53 71v480h-75v21h75v36q0 41 -17.5 57t-44.5 14v10l220 57l8 -3v-171h111v-21h-111v-166q77 81 166 81q57 0 91 -33.5t34 -96.5v-265q0 -65 56 -71v-10h-266v9q23 2 33.5 18t10.5 53v249q0 36 -15 54.5t-40 18.5q-35 0 -70 -32v-290q0 -66 44 -71
z" />
    <glyph glyph-name="Itilde" unicode="&#x128;" horiz-adv-x="383" 
d="M360 904q-4 -53 -32.5 -89.5t-70.5 -36.5q-25 0 -72.5 20t-72.5 20q-47 0 -64 -40l-10 2q4 52 33 88.5t71 36.5q25 0 72 -20t72 -20q47 0 64 41zM363 700v-10q-78 -8 -78 -104v-472q0 -96 78 -104v-10h-343v10q78 8 78 104v472q0 96 -78 104v10h343z" />
    <glyph glyph-name="itilde" unicode="&#x129;" horiz-adv-x="317" 
d="M232 544q-27 0 -76.5 18.5t-75.5 18.5q-50 0 -70 -47l-9 2q4 56 34 95.5t75 39.5q26 0 76 -18.5t76 -18.5q51 0 70 47l10 -2q-5 -57 -35 -96t-75 -39zM302 0h-281v10q56 6 56 71v252q0 40 -19 56t-47 14v10l226 62l8 -3l-2 -129v-262q0 -65 59 -71v-10z" />
    <glyph glyph-name="Imacron" unicode="&#x12a;" horiz-adv-x="383" 
d="M58 845h281v-31h-281v31zM363 700v-10q-78 -8 -78 -104v-472q0 -96 78 -104v-10h-343v10q78 8 78 104v472q0 96 -78 104v10h343z" />
    <glyph glyph-name="imacron" unicode="&#x12b;" horiz-adv-x="317" 
d="M21 632h281v-31h-281v31zM302 0h-281v10q56 6 56 71v252q0 40 -19 56t-47 14v10l226 62l8 -3l-2 -129v-262q0 -65 59 -71v-10z" />
    <glyph glyph-name="Ibreve" unicode="&#x12c;" horiz-adv-x="383" 
d="M196 779q-64 0 -105 36t-41 100h16q4 -28 38.5 -43t91.5 -15t92 15t39 43h16q0 -64 -41.5 -100t-105.5 -36zM363 700v-10q-78 -8 -78 -104v-472q0 -96 78 -104v-10h-343v10q78 8 78 104v472q0 96 -78 104v10h343z" />
    <glyph glyph-name="ibreve" unicode="&#x12d;" horiz-adv-x="317" 
d="M160 541q-64 0 -105 37.5t-41 103.5h16q5 -30 39.5 -46.5t90.5 -16.5q57 0 91.5 16.5t39.5 46.5h16q0 -66 -41.5 -103.5t-105.5 -37.5zM302 0h-281v10q56 6 56 71v252q0 40 -19 56t-47 14v10l226 62l8 -3l-2 -129v-262q0 -65 59 -71v-10z" />
    <glyph glyph-name="Iogonek" unicode="&#x12e;" horiz-adv-x="383" 
d="M308 -193q-35 -52 -97 -52q-48 0 -74 28t-26 69q0 45 31.5 85.5t88.5 62.5h-211v10q78 8 78 104v472q0 96 -78 104v10h343v-10q-78 -8 -78 -104v-472q0 -96 78 -104v-10h-101q-62 -26 -62 -118q0 -85 57 -85q23 0 43 17z" />
    <glyph glyph-name="iogonek" unicode="&#x12f;" horiz-adv-x="309" 
d="M60 621q0 40 29 68.5t68 28.5q41 0 69.5 -28t28.5 -69q0 -39 -28.5 -66.5t-69.5 -27.5q-39 0 -68 28t-29 66zM252 -193q-35 -52 -97 -52q-48 0 -74 28t-26 69q0 45 31.5 85.5t88.5 62.5h-154v10q56 6 56 71v252q0 40 -19 56t-47 14v10l226 62l8 -3l-2 -129v-262
q0 -65 59 -71v-10h-96q-62 -26 -62 -118q0 -85 57 -85q23 0 43 17z" />
    <glyph glyph-name="Idotaccent" unicode="&#x130;" horiz-adv-x="383" 
d="M195 777q-33 0 -57.5 24t-24.5 58q0 32 24.5 56.5t57.5 24.5q34 0 58.5 -24t24.5 -57q0 -34 -24.5 -58t-58.5 -24zM363 700v-10q-78 -8 -78 -104v-472q0 -96 78 -104v-10h-343v10q78 8 78 104v472q0 96 -78 104v10h343z" />
    <glyph glyph-name="dotlessi" unicode="&#x131;" horiz-adv-x="317" 
d="M302 0h-281v10q56 6 56 71v252q0 40 -19 56t-47 14v10l226 62l8 -3l-2 -129v-262q0 -65 59 -71v-10z" />
    <glyph glyph-name="IJ" unicode="&#x132;" horiz-adv-x="809" 
d="M363 700v-10q-78 -8 -78 -104v-472q0 -96 78 -104v-10h-343v10q78 8 78 104v472q0 96 -78 104v10h343zM721 584v-552q0 -107 -77.5 -180t-189.5 -73q-68 0 -111.5 29t-43.5 77q0 33 20.5 52.5t49.5 19.5t50.5 -18.5t21.5 -51.5q0 -10 -3.5 -29.5t-3.5 -27.5q0 -30 33 -30
q31 0 54.5 27t23.5 84q0 21 -5.5 95t-5.5 123v455q0 98 -83 106v10h342v-10q-72 -8 -72 -106z" />
    <glyph glyph-name="ij" unicode="&#x133;" horiz-adv-x="619" 
d="M374 621q0 40 28.5 68.5t68.5 28.5q41 0 69.5 -28t28.5 -69q0 -39 -28.5 -66.5t-69.5 -27.5q-40 0 -68.5 28t-28.5 66zM60 621q0 40 29 68.5t68 28.5q41 0 69.5 -28t28.5 -69q0 -39 -28.5 -66.5t-69.5 -27.5q-39 0 -68 28t-29 66zM302 0h-281v10q56 6 56 71v252
q0 40 -19 56t-47 14v10l226 62l8 -3l-2 -129v-262q0 -65 59 -71v-10zM333 -243q-67 0 -103.5 26t-36.5 65q0 29 19.5 47.5t48.5 18.5q28 0 46.5 -16.5t18.5 -46.5q0 -9 -3.5 -26.5t-3.5 -25.5q0 -24 24 -24q32 0 42.5 22.5t10.5 75.5q0 32 -2.5 116t-2.5 135v209
q0 40 -19 56t-48 14v10l227 62l8 -3l-2 -129v-320q0 -129 -59.5 -197.5t-164.5 -68.5z" />
    <glyph glyph-name="Jcircumflex" unicode="&#x134;" horiz-adv-x="430" 
d="M390 776l-145 55l-151 -55h-14l116 130h100l112 -130h-18zM338 584v-552q0 -107 -77.5 -180t-189.5 -73q-68 0 -111.5 29t-43.5 77q0 33 20.5 52.5t49.5 19.5t50.5 -18.5t21.5 -51.5q0 -10 -3.5 -29.5t-3.5 -27.5q0 -30 33 -30q31 0 54.5 27t23.5 84q0 21 -5.5 95
t-5.5 123v455q0 98 -83 106v10h342v-10q-72 -8 -72 -106z" />
    <glyph glyph-name="jcircumflex" unicode="&#x135;" horiz-adv-x="305" 
d="M304 521l-146 79l-152 -79h-14l117 155h100l113 -155h-18zM16 -243q-67 0 -103.5 26t-36.5 65q0 29 19.5 47.5t48.5 18.5q28 0 46.5 -16.5t18.5 -46.5q0 -9 -3.5 -26.5t-3.5 -25.5q0 -24 24 -24q32 0 42.5 22.5t10.5 75.5q0 32 -2.5 116t-2.5 135v209q0 40 -19 56t-48 14
v10l227 62l8 -3l-2 -129v-320q0 -129 -59.5 -197.5t-164.5 -68.5z" />
    <glyph glyph-name="Kcommaaccent" unicode="&#x136;" horiz-adv-x="774" 
d="M367 700v-10q-83 -8 -83 -104v-472q0 -96 83 -104v-10h-347v10q37 3 57.5 26t20.5 78v472q0 97 -78 104v10h347zM769 0h-262l-192 301v15l175 218q36 45 42.5 80.5t-10.5 53t-49 22.5v10h270v-10q-106 -9 -218 -150l-78 -98l187 -296q41 -66 72.5 -96t62.5 -40v-10z
M415 -279q0 11 -5.5 19t-12 11t-20 8.5t-20.5 8.5q-49 24 -49 73q0 35 24 59.5t64 24.5q38 0 61.5 -26t23.5 -71q0 -70 -39.5 -129.5t-103.5 -74.5l-6 15q28 5 55.5 32t27.5 50z" />
    <glyph glyph-name="kcommaaccent" unicode="&#x137;" horiz-adv-x="614" 
d="M240 753v-673q0 -65 58 -71v-9h-277v9q53 6 53 71v538q0 41 -17.5 57t-44.5 14v10l220 57zM607 0h-216l-127 210v5l90 93q49 53 47 94.5t-45 45.5v10h233v-10q-51 -4 -96.5 -38t-103.5 -98l122 -196q61 -98 96 -106v-10zM353 -279q0 11 -5.5 19t-12 11t-20 8.5t-20.5 8.5
q-49 24 -49 73q0 35 24 59.5t64 24.5q38 0 61.5 -26t23.5 -71q0 -70 -39.5 -129.5t-103.5 -74.5l-6 15q28 5 55.5 32t27.5 50z" />
    <glyph glyph-name="kgreenlandic" unicode="&#x138;" horiz-adv-x="617" 
d="M243 472v-391q0 -67 48 -72v-9h-270v10q56 6 56 71v252q0 40 -19 56t-47 14v10l224 62zM610 0h-215l-128 210v5l90 93q49 53 47 94.5t-44 45.5v10h232v-10q-51 -4 -95.5 -37.5t-104.5 -98.5l122 -196q61 -98 96 -106v-10z" />
    <glyph glyph-name="Lacute" unicode="&#x139;" horiz-adv-x="670" 
d="M125 770l123 133q22 22 46 22q22 0 38 -15.5t16 -38.5q0 -21 -14.5 -37.5t-39.5 -22.5l-158 -41h-11zM285 585v-564h71q77 0 158 62t117 170h18l-35 -253h-594v10q78 8 78 103v472q0 97 -78 105v10h349v-10q-84 -8 -84 -105z" />
    <glyph glyph-name="lacute" unicode="&#x13a;" horiz-adv-x="314" 
d="M51 785l123 133q22 22 46 22q22 0 38 -16t16 -38q0 -21 -14.5 -37.5t-39.5 -22.5l-158 -41h-11zM240 753v-672q0 -65 59 -71v-10h-280v10q55 6 55 71v537q0 41 -17.5 57t-44.5 14v10l220 57z" />
    <glyph glyph-name="Lcommaaccent" unicode="&#x13b;" horiz-adv-x="670" 
d="M285 585v-564h71q77 0 158 62t117 170h18l-35 -253h-594v10q78 8 78 103v472q0 97 -78 105v10h349v-10q-84 -8 -84 -105zM368 -279q0 11 -5.5 19t-12 11t-20 8.5t-20.5 8.5q-49 24 -49 73q0 35 24 59.5t64 24.5q38 0 61.5 -26t23.5 -71q0 -70 -39.5 -129.5t-103.5 -74.5
l-6 15q28 5 55.5 32t27.5 50z" />
    <glyph glyph-name="lcommaaccent" unicode="&#x13c;" horiz-adv-x="314" 
d="M240 753v-672q0 -65 59 -71v-10h-280v10q55 6 55 71v537q0 41 -17.5 57t-44.5 14v10l220 57zM172 -279q0 11 -5.5 19t-12 11t-20 8.5t-20.5 8.5q-49 24 -49 73q0 35 24 59.5t64 24.5q38 0 61.5 -26t23.5 -71q0 -70 -39.5 -129.5t-103.5 -74.5l-6 15q28 5 55.5 32t27.5 50
z" />
    <glyph glyph-name="Lcaron" unicode="&#x13d;" horiz-adv-x="670" 
d="M449 455h-9l-3 200q-1 36 16.5 54t43.5 18q23 0 40 -16t17 -43q0 -22 -15 -52zM285 585v-564h71q77 0 158 62t117 170h18l-35 -253h-594v10q78 8 78 103v472q0 97 -78 105v10h349v-10q-84 -8 -84 -105z" />
    <glyph glyph-name="lcaron" unicode="&#x13e;" horiz-adv-x="446" 
d="M327 485h-9l-3 200q-1 36 16.5 54t43.5 18q23 0 40 -16t17 -43q0 -22 -15 -52zM240 753v-672q0 -65 59 -71v-10h-280v10q55 6 55 71v537q0 41 -17.5 57t-44.5 14v10l220 57z" />
    <glyph glyph-name="Ldot" unicode="&#x13f;" horiz-adv-x="670" 
d="M285 585v-564h71q77 0 158 62t117 170h18l-35 -253h-594v10q78 8 78 103v472q0 97 -78 105v10h349v-10q-84 -8 -84 -105zM429 388q0 32 24.5 56.5t57.5 24.5q34 0 58.5 -24t24.5 -57q0 -34 -24.5 -58t-58.5 -24q-33 0 -57.5 24t-24.5 58z" />
    <glyph glyph-name="ldot" unicode="&#x140;" horiz-adv-x="486" 
d="M240 753v-672q0 -65 59 -71v-10h-280v10q55 6 55 71v537q0 41 -17.5 57t-44.5 14v10l220 57zM317 380q0 32 24.5 56.5t57.5 24.5q34 0 58.5 -24t24.5 -57q0 -34 -24.5 -58t-58.5 -24q-33 0 -57.5 24t-24.5 58z" />
    <glyph glyph-name="Lslash" unicode="&#x141;" horiz-adv-x="670" 
d="M614 0h-594v10q78 8 78 103v70l-98 -68v29l98 68v373q0 97 -78 105v10h349v-10q-84 -8 -84 -105v-244l193 133v-29l-193 -133v-291h71q77 0 158 62t117 170h18z" />
    <glyph glyph-name="lslash" unicode="&#x142;" horiz-adv-x="358" 
d="M323 0h-280v10q55 6 55 71v133l-87 -79v31l87 79v373q0 41 -17.5 57t-44.5 14v10l220 57l8 -3v-358l85 77v-31l-85 -77v-283q0 -65 59 -71v-10z" />
    <glyph glyph-name="Nacute" unicode="&#x143;" horiz-adv-x="777" 
d="M336 770l123 133q22 22 46 22q23 0 38.5 -15.5t15.5 -38.5q0 -21 -14.5 -37.5t-39.5 -22.5l-158 -41h-11zM654 -13h-35l-466 562l2 -320q1 -110 40 -163t97 -56v-10h-282v10q52 2 83.5 50t32.5 149l2 304q1 77 -29 125.5t-89 51.5v10h267l354 -428l-3 223
q-3 183 -128 195v10h267v-10q-108 -6 -110 -195z" />
    <glyph glyph-name="nacute" unicode="&#x144;" horiz-adv-x="606" 
d="M257 522h-13l113 154q21 30 52 30q21 0 36.5 -15t15.5 -38q0 -44 -47 -64zM287 9v-9h-266v10q56 6 56 71v252q0 40 -19 56t-47 14v10l222 62l8 -3v-80q78 84 168 84q57 0 91.5 -33.5t34.5 -96.5v-265q0 -65 56 -71v-10h-267v9q24 2 34.5 18t10.5 54v248q0 73 -56 73
q-35 0 -70 -32v-289q0 -67 44 -72z" />
    <glyph glyph-name="Ncommaaccent" unicode="&#x145;" horiz-adv-x="777" 
d="M654 -13h-35l-466 562l2 -320q1 -110 40 -163t97 -56v-10h-282v10q52 2 83.5 50t32.5 149l2 304q1 77 -29 125.5t-89 51.5v10h267l354 -428l-3 223q-3 183 -128 195v10h267v-10q-108 -6 -110 -195zM402 -279q0 11 -5.5 19t-12 11t-20 8.5t-20.5 8.5q-49 24 -49 73
q0 35 24 59.5t64 24.5q38 0 61.5 -26t23.5 -71q0 -70 -39.5 -129.5t-103.5 -74.5l-6 15q28 5 55.5 32t27.5 50z" />
    <glyph glyph-name="ncommaaccent" unicode="&#x146;" horiz-adv-x="606" 
d="M287 9v-9h-266v10q56 6 56 71v252q0 40 -19 56t-47 14v10l222 62l8 -3v-80q78 84 168 84q57 0 91.5 -33.5t34.5 -96.5v-265q0 -65 56 -71v-10h-267v9q24 2 34.5 18t10.5 54v248q0 73 -56 73q-35 0 -70 -32v-289q0 -67 44 -72zM320 -278q0 11 -5.5 19t-12 11t-20 8.5
t-20.5 8.5q-49 25 -49 73q0 35 24 59.5t64 24.5q38 0 61.5 -26t23.5 -71q0 -70 -39.5 -129.5t-103.5 -74.5l-6 15q28 5 55.5 32t27.5 50z" />
    <glyph glyph-name="Ncaron" unicode="&#x147;" horiz-adv-x="777" 
d="M263 906l145 -54l151 54h14l-116 -130h-100l-112 130h18zM654 -13h-35l-466 562l2 -320q1 -110 40 -163t97 -56v-10h-282v10q52 2 83.5 50t32.5 149l2 304q1 77 -29 125.5t-89 51.5v10h267l354 -428l-3 223q-3 183 -128 195v10h267v-10q-108 -6 -110 -195z" />
    <glyph glyph-name="ncaron" unicode="&#x148;" horiz-adv-x="606" 
d="M449 683h18l-113 -155h-100l-117 155h14l152 -79zM287 9v-9h-266v10q56 6 56 71v252q0 40 -19 56t-47 14v10l222 62l8 -3v-80q78 84 168 84q57 0 91.5 -33.5t34.5 -96.5v-265q0 -65 56 -71v-10h-267v9q24 2 34.5 18t10.5 54v248q0 73 -56 73q-35 0 -70 -32v-289
q0 -67 44 -72z" />
    <glyph glyph-name="Eng" unicode="&#x14a;" horiz-adv-x="777" 
d="M472 -241q-65 0 -100 25t-35 64q0 29 19.5 47.5t48.5 18.5q28 0 46.5 -16.5t18.5 -46.5q0 -11 -3 -27t-3 -22q0 -20 29 -20q53 0 93 50t39 147l-472 570l2 -320q1 -116 42.5 -165.5t94.5 -53.5v-10h-282v10q52 2 83.5 50t32.5 149l2 304q1 77 -29 125.5t-89 51.5v10h267
l354 -418l-3 213q-3 182 -128 195v10h267v-10q-59 -3 -84 -53.5t-26 -141.5l-3 -511q-1 -109 -48.5 -167t-133.5 -58z" />
    <glyph glyph-name="eng" unicode="&#x14b;" horiz-adv-x="599" 
d="M310 -243q-67 0 -103.5 26t-36.5 65q0 29 20 47.5t49 18.5q27 0 45.5 -16.5t18.5 -46.5q0 -9 -3 -26.5t-3 -25.5q0 -24 24 -24q32 0 42 22t10 76q0 32 -2 116t-2 135v205q0 35 -16 54t-40 19q-35 0 -70 -32v-289q0 -67 48 -72v-9h-270v10q56 6 56 71v252q0 40 -19 56
t-47 14v10l222 62l8 -3v-82q76 86 168 86q57 0 91.5 -33.5t34.5 -96.5v-323q0 -129 -59.5 -197.5t-165.5 -68.5z" />
    <glyph glyph-name="Omacron" unicode="&#x14c;" horiz-adv-x="820" 
d="M272 845h281v-31h-281v31zM407 -21q-157 0 -267 107.5t-110 261.5q0 155 113 263.5t270 108.5q156 0 266.5 -107.5t110.5 -261.5q0 -155 -113 -263.5t-270 -108.5zM413 1q76 0 123.5 92t47.5 254q0 171 -51.5 261t-126.5 90t-123.5 -92.5t-48.5 -253.5
q0 -170 52.5 -260.5t126.5 -90.5z" />
    <glyph glyph-name="omacron" unicode="&#x14d;" horiz-adv-x="558" 
d="M137 632h281v-31h-281v31zM279 -18q-108 0 -180 71t-72 174q0 102 74.5 175.5t177.5 73.5q111 0 181.5 -71t70.5 -175q0 -100 -73 -174t-179 -74zM199 232q0 -109 21.5 -170.5t58.5 -61.5q78 0 78 227q0 110 -21.5 170.5t-60.5 60.5q-76 0 -76 -226z" />
    <glyph glyph-name="Obreve" unicode="&#x14e;" horiz-adv-x="820" 
d="M410 779q-64 0 -105 36t-41 100h16q4 -28 38.5 -43t91.5 -15t92 15t39 43h16q0 -64 -41.5 -100t-105.5 -36zM407 -21q-157 0 -267 107.5t-110 261.5q0 155 113 263.5t270 108.5q156 0 266.5 -107.5t110.5 -261.5q0 -155 -113 -263.5t-270 -108.5zM413 1q76 0 123.5 92
t47.5 254q0 171 -51.5 261t-126.5 90t-123.5 -92.5t-48.5 -253.5q0 -170 52.5 -260.5t126.5 -90.5z" />
    <glyph glyph-name="obreve" unicode="&#x14f;" horiz-adv-x="558" 
d="M276 541q-64 0 -105 37.5t-41 103.5h16q5 -30 39.5 -46.5t90.5 -16.5q57 0 91.5 16.5t39.5 46.5h16q0 -66 -41.5 -103.5t-105.5 -37.5zM279 -18q-108 0 -180 71t-72 174q0 102 74.5 175.5t177.5 73.5q111 0 181.5 -71t70.5 -175q0 -100 -73 -174t-179 -74zM199 232
q0 -109 21.5 -170.5t58.5 -61.5q78 0 78 227q0 110 -21.5 170.5t-60.5 60.5q-76 0 -76 -226z" />
    <glyph glyph-name="Ohungarumlaut" unicode="&#x150;" horiz-adv-x="820" 
d="M443 775l70 111q19 33 52 33q19 0 31 -12.5t12 -29.5q0 -37 -49 -57l-106 -45h-10zM273 775l69 111q21 33 53 33q18 0 30.5 -12.5t12.5 -29.5q0 -36 -49 -57l-106 -45h-10zM407 -21q-157 0 -267 107.5t-110 261.5q0 155 113 263.5t270 108.5q156 0 266.5 -107.5
t110.5 -261.5q0 -155 -113 -263.5t-270 -108.5zM413 1q76 0 123.5 92t47.5 254q0 171 -51.5 261t-126.5 90t-123.5 -92.5t-48.5 -253.5q0 -170 52.5 -260.5t126.5 -90.5z" />
    <glyph glyph-name="ohungarumlaut" unicode="&#x151;" horiz-adv-x="558" 
d="M328 520h-11l86 144q21 37 58 37q20 0 34.5 -13t14.5 -33q0 -40 -51 -67zM148 520h-11l86 144q21 37 58 37q20 0 34 -13t14 -33q0 -41 -51 -67zM279 -18q-108 0 -180 71t-72 174q0 102 74.5 175.5t177.5 73.5q111 0 181.5 -71t70.5 -175q0 -100 -73 -174t-179 -74z
M199 232q0 -109 21.5 -170.5t58.5 -61.5q78 0 78 227q0 110 -21.5 170.5t-60.5 60.5q-76 0 -76 -226z" />
    <glyph glyph-name="OE" unicode="&#x152;" horiz-adv-x="1120" 
d="M413 8q53 0 92 39t39 111v381q0 78 -40 114t-98 36q-75 0 -123.5 -90.5t-48.5 -246.5q0 -166 52.5 -255t126.5 -89zM1060 0h-545q-52 -14 -108 -14q-157 0 -267 105.5t-110 256.5q0 152 113 257.5t270 105.5q44 0 91 -11h525l30 -187h-15q-51 76 -122 121t-146 45h-46
v-299h40q62 0 111 38t57 90h14v-280h-14q-9 54 -58.5 92.5t-109.5 38.5h-40v-338h66q87 0 163 58.5t108 141.5h17z" />
    <glyph glyph-name="oe" unicode="&#x153;" horiz-adv-x="837" 
d="M811 156q-21 -84 -79 -129t-136 -45q-90 0 -156 64q-69 -64 -161 -64q-108 0 -180 71t-72 174q0 102 74.5 175.5t177.5 73.5q99 0 168 -67q69 67 161 67q88 0 144.5 -57.5t60.5 -152.5h-286q4 -88 44.5 -135t104.5 -47q39 0 71.5 21t51.5 55zM607 458q-32 0 -56 -47.5
t-24 -123.5h136q4 171 -56 171zM199 231q0 -109 21.5 -171t58.5 -62q78 0 78 228q0 110 -21.5 171t-60.5 60q-76 -2 -76 -226z" />
    <glyph glyph-name="Racute" unicode="&#x154;" horiz-adv-x="744" 
d="M287 770l123 133q22 22 46 22q22 0 38 -15.5t16 -38.5q0 -21 -14.5 -37.5t-39.5 -22.5l-158 -41h-11zM284 679v-366h36q70 0 107 50t37 138q0 178 -133 178h-47zM358 10v-10h-338v10q78 8 78 106v469q0 97 -78 105v10h350q134 0 208 -56t74 -143q0 -58 -35 -105.5
t-97 -74.5l101 -192q31 -61 55.5 -85t57.5 -34v-10h-251l-146 290h-53v-174q0 -98 74 -106z" />
    <glyph glyph-name="racute" unicode="&#x155;" horiz-adv-x="473" 
d="M228 522h-13l113 154q21 30 52 30q21 0 36.5 -15t15.5 -38q0 -44 -47 -64zM301 9v-9h-282v9q58 6 58 71v253q0 40 -19 56t-47 14v10l222 62l8 -3v-113q22 62 62 95t80 33q33 0 53 -21t20 -51q0 -32 -20.5 -53t-51.5 -21q-25 0 -51.5 20.5t-41.5 20.5q-32 0 -48 -64v-238
q0 -65 58 -71z" />
    <glyph glyph-name="Rcommaaccent" unicode="&#x156;" horiz-adv-x="744" 
d="M284 679v-366h36q70 0 107 50t37 138q0 178 -133 178h-47zM358 10v-10h-338v10q78 8 78 106v469q0 97 -78 105v10h350q134 0 208 -56t74 -143q0 -58 -35 -105.5t-97 -74.5l101 -192q31 -61 55.5 -85t57.5 -34v-10h-251l-146 290h-53v-174q0 -98 74 -106zM399 -279
q0 11 -5.5 19t-12 11t-20 8.5t-20.5 8.5q-49 24 -49 73q0 35 24 59.5t64 24.5q38 0 61.5 -26t23.5 -71q0 -70 -39.5 -129.5t-103.5 -74.5l-6 15q28 5 55.5 32t27.5 50z" />
    <glyph glyph-name="rcommaaccent" unicode="&#x157;" horiz-adv-x="473" 
d="M301 9v-9h-282v9q58 6 58 71v253q0 40 -19 56t-47 14v10l222 62l8 -3v-113q22 62 62 95t80 33q33 0 53 -21t20 -51q0 -32 -20.5 -53t-51.5 -21q-25 0 -51.5 20.5t-41.5 20.5q-32 0 -48 -64v-238q0 -65 58 -71zM173 -279q0 11 -5.5 19t-12 11t-20 8.5t-20.5 8.5
q-49 24 -49 73q0 35 24 59.5t64 24.5q38 0 61.5 -26t23.5 -71q0 -70 -39.5 -129.5t-103.5 -74.5l-6 15q28 5 55.5 32t27.5 50z" />
    <glyph glyph-name="Rcaron" unicode="&#x158;" horiz-adv-x="744" 
d="M214 906l145 -54l151 54h14l-116 -130h-100l-112 130h18zM284 679v-366h36q70 0 107 50t37 138q0 178 -133 178h-47zM358 10v-10h-338v10q78 8 78 106v469q0 97 -78 105v10h350q134 0 208 -56t74 -143q0 -58 -35 -105.5t-97 -74.5l101 -192q31 -61 55.5 -85t57.5 -34v-10
h-251l-146 290h-53v-174q0 -98 74 -106z" />
    <glyph glyph-name="rcaron" unicode="&#x159;" horiz-adv-x="473" 
d="M419 683h18l-113 -155h-100l-117 155h14l152 -79zM301 9v-9h-282v9q58 6 58 71v253q0 40 -19 56t-47 14v10l222 62l8 -3v-113q22 62 62 95t80 33q33 0 53 -21t20 -51q0 -32 -20.5 -53t-51.5 -21q-25 0 -51.5 20.5t-41.5 20.5q-32 0 -48 -64v-238q0 -65 58 -71z" />
    <glyph glyph-name="Sacute" unicode="&#x15a;" horiz-adv-x="604" 
d="M238 770l123 133q22 22 46 22q23 0 38.5 -15.5t15.5 -38.5q0 -21 -14.5 -37.5t-39.5 -22.5l-158 -41h-11zM565 211q0 -97 -79 -164.5t-205 -67.5q-70 0 -142 15.5t-107 35.5l44 206l17 -2q50 -235 200 -235q59 0 95 29t36 76q0 40 -28 72t-70.5 52t-91.5 45t-91.5 50.5
t-70.5 69.5t-28 101q0 95 74.5 160.5t190.5 65.5q125 0 222 -47l-49 -181l-18 2q-18 104 -57.5 155t-107.5 51q-53 0 -90.5 -26.5t-37.5 -75.5q0 -35 21.5 -63t56.5 -46.5t77 -36t84 -38.5t77 -46t56.5 -65.5t21.5 -91.5z" />
    <glyph glyph-name="sacute" unicode="&#x15b;" horiz-adv-x="425" 
d="M151 522h-13l113 154q21 30 52 30q21 0 36.5 -15t15.5 -38q0 -44 -47 -64zM210 0q33 0 53 17t20 43q0 23 -18.5 42.5t-46.5 32.5t-60 31t-60 36.5t-46.5 49.5t-18.5 70q0 66 53 110t145 44q86 0 158 -37l-34 -125l-11 1q-18 65 -54.5 102.5t-79.5 37.5q-29 0 -48 -15
t-19 -40q0 -28 27 -50t65 -40t76 -38.5t65 -55.5t27 -81q0 -69 -55 -111t-151 -42q-104 0 -178 34l40 142l12 -1q12 -71 50.5 -114t88.5 -43z" />
    <glyph glyph-name="Scircumflex" unicode="&#x15c;" horiz-adv-x="604" 
d="M457 776l-145 55l-151 -55h-14l116 130h100l112 -130h-18zM565 211q0 -97 -79 -164.5t-205 -67.5q-70 0 -142 15.5t-107 35.5l44 206l17 -2q50 -235 200 -235q59 0 95 29t36 76q0 40 -28 72t-70.5 52t-91.5 45t-91.5 50.5t-70.5 69.5t-28 101q0 95 74.5 160.5t190.5 65.5
q125 0 222 -47l-49 -181l-18 2q-18 104 -57.5 155t-107.5 51q-53 0 -90.5 -26.5t-37.5 -75.5q0 -35 21.5 -63t56.5 -46.5t77 -36t84 -38.5t77 -46t56.5 -65.5t21.5 -91.5z" />
    <glyph glyph-name="scircumflex" unicode="&#x15d;" horiz-adv-x="425" 
d="M362 521l-146 79l-152 -79h-14l117 155h100l113 -155h-18zM210 0q33 0 53 17t20 43q0 23 -18.5 42.5t-46.5 32.5t-60 31t-60 36.5t-46.5 49.5t-18.5 70q0 66 53 110t145 44q86 0 158 -37l-34 -125l-11 1q-18 65 -54.5 102.5t-79.5 37.5q-29 0 -48 -15t-19 -40
q0 -28 27 -50t65 -40t76 -38.5t65 -55.5t27 -81q0 -69 -55 -111t-151 -42q-104 0 -178 34l40 142l12 -1q12 -71 50.5 -114t88.5 -43z" />
    <glyph glyph-name="Scedilla" unicode="&#x15e;" horiz-adv-x="604" 
d="M278 -280q-71 0 -123 37l6 14q42 -27 89 -27q40 0 66 17.5t26 56.5q0 35 -26.5 50t-88.5 8l-3 4l55 99q-70 0 -141 15.5t-106 35.5l44 206l17 -2q50 -235 200 -235q59 0 95 29t36 76q0 40 -28 72t-70.5 52t-91.5 45t-91.5 50.5t-70.5 69.5t-28 101q0 95 74.5 160.5
t190.5 65.5q125 0 222 -47l-49 -181l-18 2q-18 104 -57.5 155t-107.5 51q-53 0 -90.5 -26.5t-37.5 -75.5q0 -35 21.5 -63t56.5 -46.5t77 -36t84 -38.5t77 -46t56.5 -65.5t21.5 -91.5q0 -92 -73 -158.5t-190 -72.5l-25 -47q23 5 42 5q53 0 86 -27t33 -73q0 -50 -43 -84
t-117 -34z" />
    <glyph glyph-name="scedilla" unicode="&#x15f;" horiz-adv-x="425" 
d="M194 -280q-71 0 -123 37l6 14q42 -27 89 -27q40 0 66 17.5t26 56.5q0 35 -26.5 50t-88.5 8l-3 4l56 102q-103 0 -177 34l40 142l12 -1q12 -71 50.5 -114t88.5 -43q33 0 53 17t20 43q0 23 -18.5 42.5t-46.5 32.5t-60 31t-60 36.5t-46.5 49.5t-18.5 70q0 66 53 110t145 44
q86 0 158 -37l-34 -125l-11 1q-18 65 -54.5 102.5t-79.5 37.5q-29 0 -48 -15t-19 -40q0 -28 27 -50t65 -40t76 -38.5t65 -55.5t27 -81q0 -65 -48.5 -106t-134.5 -46l-27 -50q23 5 42 5q53 0 86 -27t33 -73q0 -50 -43 -84t-117 -34z" />
    <glyph glyph-name="Scaron" unicode="&#x160;" horiz-adv-x="604" 
d="M165 906l145 -54l151 54h14l-116 -130h-100l-112 130h18zM565 211q0 -97 -79 -164.5t-205 -67.5q-70 0 -142 15.5t-107 35.5l44 206l17 -2q50 -235 200 -235q59 0 95 29t36 76q0 40 -28 72t-70.5 52t-91.5 45t-91.5 50.5t-70.5 69.5t-28 101q0 95 74.5 160.5t190.5 65.5
q125 0 222 -47l-49 -181l-18 2q-18 104 -57.5 155t-107.5 51q-53 0 -90.5 -26.5t-37.5 -75.5q0 -35 21.5 -63t56.5 -46.5t77 -36t84 -38.5t77 -46t56.5 -65.5t21.5 -91.5z" />
    <glyph glyph-name="scaron" unicode="&#x161;" horiz-adv-x="425" 
d="M357 683h18l-113 -155h-100l-117 155h14l152 -79zM210 0q33 0 53 17t20 43q0 23 -18.5 42.5t-46.5 32.5t-60 31t-60 36.5t-46.5 49.5t-18.5 70q0 66 53 110t145 44q86 0 158 -37l-34 -125l-11 1q-18 65 -54.5 102.5t-79.5 37.5q-29 0 -48 -15t-19 -40q0 -28 27 -50
t65 -40t76 -38.5t65 -55.5t27 -81q0 -69 -55 -111t-151 -42q-104 0 -178 34l40 142l12 -1q12 -71 50.5 -114t88.5 -43z" />
    <glyph glyph-name="Tcommaaccent" unicode="&#x162;" horiz-adv-x="671" 
d="M34 700h604l25 -219h-13l-29 53q-45 81 -83.5 113t-84.5 32h-23v-567q0 -55 22.5 -76.5t60.5 -25.5v-10h-353v10q38 4 60.5 25.5t22.5 76.5v567h-21q-51 0 -93 -34.5t-84 -116.5l-25 -47h-12zM350 -279q0 11 -5.5 19t-12 11t-20 8.5t-20.5 8.5q-49 24 -49 73
q0 35 24 59.5t64 24.5q38 0 61.5 -26t23.5 -71q0 -70 -39.5 -129.5t-103.5 -74.5l-6 15q28 5 55.5 32t27.5 50z" />
    <glyph glyph-name="tcommaaccent" unicode="&#x163;" horiz-adv-x="357" 
d="M337 437h-105v-301q0 -28 15.5 -45t38.5 -17q29 0 52 35l12 -8q-30 -53 -74.5 -85t-94.5 -32q-51 0 -83 33t-32 85v333h-56v11q62 18 122.5 82t85.5 137h14v-207h105v-21zM226 -279q0 11 -5.5 19t-12 11t-20 8.5t-20.5 8.5q-49 24 -49 73q0 35 24 59.5t64 24.5
q38 0 61.5 -26t23.5 -71q0 -70 -39.5 -129.5t-103.5 -74.5l-6 15q28 5 55.5 32t27.5 50z" />
    <glyph glyph-name="Tcaron" unicode="&#x164;" horiz-adv-x="671" 
d="M190 906l145 -54l151 54h14l-116 -130h-100l-112 130h18zM34 700h604l25 -219h-13l-29 53q-45 81 -83.5 113t-84.5 32h-23v-567q0 -55 22.5 -76.5t60.5 -25.5v-10h-353v10q38 4 60.5 25.5t22.5 76.5v567h-21q-51 0 -93 -34.5t-84 -116.5l-25 -47h-12z" />
    <glyph glyph-name="tcaron" unicode="&#x165;" horiz-adv-x="381" 
d="M299 522h-9l-3 200q-1 36 16.5 54t43.5 18q23 0 40 -16t17 -43q0 -22 -15 -52zM337 437h-105v-301q0 -28 15.5 -45t38.5 -17q29 0 52 35l12 -8q-30 -53 -74.5 -85t-94.5 -32q-51 0 -83 33t-32 85v333h-56v11q62 18 122.5 82t85.5 137h14v-207h105v-21z" />
    <glyph glyph-name="Tbar" unicode="&#x166;" horiz-adv-x="671" 
d="M513 10v-10h-353v10q38 4 60.5 25.5t22.5 76.5v253h-162v21h162v293h-21q-51 0 -93 -34.5t-84 -116.5l-25 -47h-12l26 219h604l25 -219h-13l-29 53q-45 81 -83.5 113t-84.5 32h-23v-293h160v-21h-160v-253q0 -55 22.5 -76.5t60.5 -25.5z" />
    <glyph glyph-name="tbar" unicode="&#x167;" horiz-adv-x="358" 
d="M350 101q-30 -53 -74.5 -85t-94.5 -32q-51 0 -83 33t-32 85v196h-56v21h56v116h-56v11q62 18 122.5 82t85.5 137h14v-207h105v-21h-105v-118h110v-21h-110v-162q0 -28 15.5 -45t38.5 -17q29 0 52 35z" />
    <glyph glyph-name="Utilde" unicode="&#x168;" horiz-adv-x="748" 
d="M579 904q-4 -53 -32.5 -89.5t-70.5 -36.5q-25 0 -72.5 20t-72.5 20q-47 0 -64 -40l-10 2q4 52 33 88.5t71 36.5q25 0 72 -20t72 -20q47 0 64 41zM638 460l-2 -192q-2 -140 -67 -214.5t-196 -74.5q-138 0 -208.5 70.5t-70.5 193.5v343q0 96 -83 104v10h352v-10
q-83 -8 -83 -104v-383q0 -75 40.5 -120t114.5 -45q82 0 129 59.5t47 184.5v183q0 102 -30.5 162t-92.5 63v10h251v-10q-56 -3 -78 -61t-23 -169z" />
    <glyph glyph-name="utilde" unicode="&#x169;" horiz-adv-x="590" 
d="M364 544q-26 0 -76 18.5t-76 18.5q-50 0 -70 -47l-9 2q4 56 34 95.5t75 39.5q26 0 76 -18.5t76 -18.5q51 0 70 47l10 -2q-5 -57 -35 -96t-75 -39zM354 -12v71q-77 -77 -161 -77q-55 0 -88 33.5t-33 96.5v221q0 40 -17.5 56t-44.5 14v10l220 62l8 -3v-357q0 -30 14.5 -46
t37.5 -16q30 0 61 27v254q0 40 -15 56t-38 14v9l211 62l8 -3v-373q0 -42 16.5 -60t41.5 -16v-10l-213 -28z" />
    <glyph glyph-name="Umacron" unicode="&#x16a;" horiz-adv-x="748" 
d="M277 845h281v-31h-281v31zM638 460l-2 -192q-2 -140 -67 -214.5t-196 -74.5q-138 0 -208.5 70.5t-70.5 193.5v343q0 96 -83 104v10h352v-10q-83 -8 -83 -104v-383q0 -75 40.5 -120t114.5 -45q82 0 129 59.5t47 184.5v183q0 102 -30.5 162t-92.5 63v10h251v-10
q-56 -3 -78 -61t-23 -169z" />
    <glyph glyph-name="umacron" unicode="&#x16b;" horiz-adv-x="590" 
d="M153 632h281v-31h-281v31zM354 -12v71q-77 -77 -161 -77q-55 0 -88 33.5t-33 96.5v221q0 40 -17.5 56t-44.5 14v10l220 62l8 -3v-357q0 -30 14.5 -46t37.5 -16q30 0 61 27v254q0 40 -15 56t-38 14v9l211 62l8 -3v-373q0 -42 16.5 -60t41.5 -16v-10l-213 -28z" />
    <glyph glyph-name="Ubreve" unicode="&#x16c;" horiz-adv-x="748" 
d="M415 779q-64 0 -105 36t-41 100h16q4 -28 38.5 -43t91.5 -15t92 15t39 43h16q0 -64 -41.5 -100t-105.5 -36zM638 460l-2 -192q-2 -140 -67 -214.5t-196 -74.5q-138 0 -208.5 70.5t-70.5 193.5v343q0 96 -83 104v10h352v-10q-83 -8 -83 -104v-383q0 -75 40.5 -120
t114.5 -45q82 0 129 59.5t47 184.5v183q0 102 -30.5 162t-92.5 63v10h251v-10q-56 -3 -78 -61t-23 -169z" />
    <glyph glyph-name="ubreve" unicode="&#x16d;" horiz-adv-x="590" 
d="M292 541q-64 0 -105 37.5t-41 103.5h16q5 -30 39.5 -46.5t90.5 -16.5q57 0 91.5 16.5t39.5 46.5h16q0 -66 -41.5 -103.5t-105.5 -37.5zM354 -12v71q-77 -77 -161 -77q-55 0 -88 33.5t-33 96.5v221q0 40 -17.5 56t-44.5 14v10l220 62l8 -3v-357q0 -30 14.5 -46t37.5 -16
q30 0 61 27v254q0 40 -15 56t-38 14v9l211 62l8 -3v-373q0 -42 16.5 -60t41.5 -16v-10l-213 -28z" />
    <glyph glyph-name="Uring" unicode="&#x16e;" horiz-adv-x="748" 
d="M414 972q43 0 73 -31t30 -74t-30 -73t-73 -30t-72.5 30t-29.5 73t29.5 74t72.5 31zM414 950q-32 0 -54.5 -24.5t-22.5 -58.5t22.5 -57.5t54.5 -23.5t55 23.5t23 57.5t-23 58.5t-55 24.5zM638 460l-2 -192q-2 -140 -67 -214.5t-196 -74.5q-138 0 -208.5 70.5t-70.5 193.5
v343q0 96 -83 104v10h352v-10q-83 -8 -83 -104v-383q0 -75 40.5 -120t114.5 -45q82 0 129 59.5t47 184.5v183q0 102 -30.5 162t-92.5 63v10h251v-10q-56 -3 -78 -61t-23 -169z" />
    <glyph glyph-name="uring" unicode="&#x16f;" horiz-adv-x="590" 
d="M290 721q43 0 73 -31t30 -73q0 -43 -30 -73.5t-73 -30.5t-72.5 30t-29.5 74q0 43 29.5 73.5t72.5 30.5zM290 699q-32 0 -54.5 -24.5t-22.5 -57.5q0 -34 22.5 -58t54.5 -24t55 24t23 58q0 33 -23.5 57.5t-54.5 24.5zM354 -12v71q-77 -77 -161 -77q-55 0 -88 33.5t-33 96.5
v221q0 40 -17.5 56t-44.5 14v10l220 62l8 -3v-357q0 -30 14.5 -46t37.5 -16q30 0 61 27v254q0 40 -15 56t-38 14v9l211 62l8 -3v-373q0 -42 16.5 -60t41.5 -16v-10l-213 -28z" />
    <glyph glyph-name="Uhungarumlaut" unicode="&#x170;" horiz-adv-x="748" 
d="M466 775l70 111q20 33 52 33q18 0 30.5 -12.5t12.5 -29.5q0 -37 -49 -57l-106 -45h-10zM296 775l69 111q21 33 53 33q18 0 30.5 -12.5t12.5 -29.5q0 -36 -49 -57l-106 -45h-10zM638 460l-2 -192q-2 -140 -67 -214.5t-196 -74.5q-138 0 -208.5 70.5t-70.5 193.5v343
q0 96 -83 104v10h352v-10q-83 -8 -83 -104v-383q0 -75 40.5 -120t114.5 -45q82 0 129 59.5t47 184.5v183q0 102 -30.5 162t-92.5 63v10h251v-10q-56 -3 -78 -61t-23 -169z" />
    <glyph glyph-name="uhungarumlaut" unicode="&#x171;" horiz-adv-x="590" 
d="M349 520h-11l86 144q21 37 58 37q20 0 34.5 -13t14.5 -33q0 -40 -51 -67zM169 520h-11l86 144q21 37 58 37q20 0 34 -13t14 -33q0 -41 -51 -67zM354 -12v71q-77 -77 -161 -77q-55 0 -88 33.5t-33 96.5v221q0 40 -17.5 56t-44.5 14v10l220 62l8 -3v-357q0 -30 14.5 -46
t37.5 -16q30 0 61 27v254q0 40 -15 56t-38 14v9l211 62l8 -3v-373q0 -42 16.5 -60t41.5 -16v-10l-213 -28z" />
    <glyph glyph-name="Uogonek" unicode="&#x172;" horiz-adv-x="748" 
d="M441 -245q-48 0 -74 28t-26 69q0 79 83 130q-24 -3 -51 -3q-138 0 -208.5 70.5t-70.5 193.5v343q0 96 -83 104v10h352v-10q-83 -8 -83 -104v-383q0 -75 40.5 -120t114.5 -45q82 0 129 59.5t47 184.5v183q0 102 -30.5 162t-92.5 63v10h251v-10q-56 -3 -78 -61t-23 -169
l-2 -192q-3 -214 -149 -270q-57 -29 -57 -116q0 -85 57 -85q23 0 43 17l8 -7q-35 -52 -97 -52z" />
    <glyph glyph-name="uogonek" unicode="&#x173;" horiz-adv-x="588" 
d="M356 -246q-48 0 -74 28t-26 69q0 40 25.5 77.5t72.5 60.5v70q-77 -77 -161 -77q-55 0 -88 33.5t-33 96.5v221q0 40 -17.5 56t-44.5 14v10l220 62l8 -3v-357q0 -30 14.5 -46t37.5 -16q30 0 61 27v254q0 40 -15 56t-38 14v9l211 62l8 -3v-373q0 -42 16.5 -60t41.5 -16v-10
l-186 -24q-44 -34 -44 -108q0 -85 57 -85q23 0 43 17l8 -7q-35 -52 -97 -52z" />
    <glyph glyph-name="Wcircumflex" unicode="&#x174;" horiz-adv-x="1119" 
d="M723 776l-145 55l-151 -55h-14l116 130h100l112 -130h-18zM728 -11l-171 446l-167 -446h-52l-210 549q-29 76 -56 110t-62 42v10h343v-10q-44 -8 -52.5 -32.5t15.5 -94.5l133 -353l95 259l-40 105q-37 100 -88 116v10h319v-10q-39 -7 -46.5 -32.5t16.5 -91.5l131 -342
l73 212q39 122 21 184.5t-84 69.5v10h264v-10q-90 -5 -154 -192l-177 -509h-51z" />
    <glyph glyph-name="wcircumflex" unicode="&#x175;" horiz-adv-x="812" 
d="M559 521l-146 79l-152 -79h-14l117 155h100l113 -155h-18zM512 -7l-111 294l-117 -294h-52l-154 356q-22 51 -38 72t-35 27v10h259v-10q-49 -7 -13 -91l79 -189l58 151l-11 30q-36 92 -69 99v10h256v-10q-47 -6 -24 -69l74 -210l39 99q20 49 19.5 90.5t-16.5 64t-42 25.5
v10h193v-10q-30 -4 -56.5 -37t-62.5 -118l-125 -300h-51z" />
    <glyph glyph-name="Ycircumflex" unicode="&#x176;" horiz-adv-x="710" 
d="M520 776l-145 55l-151 -55h-14l116 130h100l112 -130h-18zM520 0h-352v10q83 8 83 104v186l-148 287q-26 48 -47 70.5t-46 32.5v10h331v-10q-33 -3 -44 -32t8 -66l123 -251l72 146q90 179 -42 203v10h243v-10q-33 -2 -74.5 -44.5t-78.5 -116.5l-111 -223v-192
q0 -96 83 -104v-10z" />
    <glyph glyph-name="ycircumflex" unicode="&#x177;" horiz-adv-x="554" 
d="M456 521l-146 79l-152 -79h-14l117 155h100l113 -155h-18zM63 -245q-44 0 -72.5 22t-28.5 61q0 32 21.5 53t51.5 21q45 0 66 -45q3 -6 7 -16t6.5 -15t6.5 -11.5t9 -9t11 -2.5q18 0 39.5 23.5t38.5 63.5l35 79l-168 368q-39 84 -81 102v9h291v-9q-30 -2 -38 -30.5
t13 -78.5l74 -167l40 89q36 80 27 131.5t-57 55.5v9h193v-9q-32 -8 -59 -44t-73 -135l-175 -378q-31 -68 -78 -102.5t-100 -34.5z" />
    <glyph glyph-name="Ydieresis" unicode="&#x178;" horiz-adv-x="710" 
d="M267 777q-33 0 -57.5 24t-24.5 58q0 32 24.5 56.5t57.5 24.5q34 0 58.5 -24t24.5 -57q0 -34 -24.5 -58t-58.5 -24zM477 777q-34 0 -58 24t-24 58q0 33 24.5 57t57.5 24q34 0 58.5 -24t24.5 -57q0 -34 -24.5 -58t-58.5 -24zM520 0h-352v10q83 8 83 104v186l-148 287
q-26 48 -47 70.5t-46 32.5v10h331v-10q-33 -3 -44 -32t8 -66l123 -251l72 146q90 179 -42 203v10h243v-10q-33 -2 -74.5 -44.5t-78.5 -116.5l-111 -223v-192q0 -96 83 -104v-10z" />
    <glyph glyph-name="Zacute" unicode="&#x179;" horiz-adv-x="655" 
d="M262 770l123 133q22 22 46 22q23 0 38.5 -15.5t15.5 -38.5q0 -21 -14.5 -37.5t-39.5 -22.5l-158 -41h-11zM26 0l-4 12l378 670h-67q-83 0 -157 -52t-115 -132h-16l37 202h520l5 -12l-373 -670h81q85 0 160 56t125 159h15l-27 -233h-562z" />
    <glyph glyph-name="zacute" unicode="&#x17a;" horiz-adv-x="520" 
d="M223 522h-13l113 154q21 30 52 30q21 0 36.5 -15t15.5 -38q0 -44 -47 -64zM28 0l-4 11l277 430h-58q-49 0 -102 -40.5t-86 -106.5h-15l33 164h404l3 -11l-271 -430h76q51 0 104.5 50.5t81.5 129.5h14l-21 -197h-436z" />
    <glyph glyph-name="Zdotaccent" unicode="&#x17b;" horiz-adv-x="655" 
d="M332 777q-33 0 -57.5 24t-24.5 58q0 32 24.5 56.5t57.5 24.5q34 0 58.5 -24t24.5 -57q0 -34 -24.5 -58t-58.5 -24zM26 0l-4 12l378 670h-67q-83 0 -157 -52t-115 -132h-16l37 202h520l5 -12l-373 -670h81q85 0 160 56t125 159h15l-27 -233h-562z" />
    <glyph glyph-name="zdotaccent" unicode="&#x17c;" horiz-adv-x="520" 
d="M187 618q0 32 24.5 56.5t57.5 24.5q34 0 58.5 -24t24.5 -57q0 -34 -24.5 -58t-58.5 -24q-33 0 -57.5 24t-24.5 58zM28 0l-4 11l277 430h-58q-49 0 -102 -40.5t-86 -106.5h-15l33 164h404l3 -11l-271 -430h76q51 0 104.5 50.5t81.5 129.5h14l-21 -197h-436z" />
    <glyph glyph-name="Zcaron" unicode="&#x17d;" horiz-adv-x="655" 
d="M188 906l145 -54l151 54h14l-116 -130h-100l-112 130h18zM26 0l-4 12l378 670h-67q-83 0 -157 -52t-115 -132h-16l37 202h520l5 -12l-373 -670h81q85 0 160 56t125 159h15l-27 -233h-562z" />
    <glyph glyph-name="zcaron" unicode="&#x17e;" horiz-adv-x="520" 
d="M415 683h18l-113 -155h-100l-117 155h14l152 -79zM28 0l-4 11l277 430h-58q-49 0 -102 -40.5t-86 -106.5h-15l33 164h404l3 -11l-271 -430h76q51 0 104.5 50.5t81.5 129.5h14l-21 -197h-436z" />
    <glyph glyph-name="florin" unicode="&#x192;" horiz-adv-x="516" 
d="M-73 -225q-42 0 -63.5 17.5t-21.5 47.5q0 25 17.5 43.5t43.5 18.5q22 0 38 -13.5t23.5 -30t16.5 -30t18 -13.5q17 0 29 16t21 49t15.5 67t16.5 86t19 90l35 144h-86l6 21h85l2 8q17 70 49.5 122t71 79.5t75.5 40t74 12.5q48 0 81 -18.5t33 -46.5q0 -25 -17.5 -43.5
t-44.5 -18.5q-22 0 -38.5 14t-24 31t-16.5 31t-18 14q-10 0 -18 -5.5t-14 -18t-10 -26.5t-8.5 -36.5t-7 -40.5t-7 -47.5t-7.5 -50.5h122l-4 -21h-121q-4 -22 -14 -66l-43 -172q-17 -69 -56 -122t-86 -80t-89 -39.5t-77 -12.5z" />
    <glyph glyph-name="Scommaaccent" unicode="&#x218;" horiz-adv-x="604" 
d="M565 211q0 -97 -79 -164.5t-205 -67.5q-70 0 -142 15.5t-107 35.5l44 206l17 -2q50 -235 200 -235q59 0 95 29t36 76q0 40 -28 72t-70.5 52t-91.5 45t-91.5 50.5t-70.5 69.5t-28 101q0 95 74.5 160.5t190.5 65.5q125 0 222 -47l-49 -181l-18 2q-18 104 -57.5 155
t-107.5 51q-53 0 -90.5 -26.5t-37.5 -75.5q0 -35 21.5 -63t56.5 -46.5t77 -36t84 -38.5t77 -46t56.5 -65.5t21.5 -91.5zM311 -279q0 11 -5.5 19t-12 11t-20 8.5t-20.5 8.5q-49 24 -49 73q0 35 24 59.5t64 24.5q38 0 61.5 -26t23.5 -71q0 -70 -39.5 -129.5t-103.5 -74.5
l-6 15q28 5 55.5 32t27.5 50z" />
    <glyph glyph-name="scommaaccent" unicode="&#x219;" horiz-adv-x="425" 
d="M210 0q33 0 53 17t20 43q0 23 -18.5 42.5t-46.5 32.5t-60 31t-60 36.5t-46.5 49.5t-18.5 70q0 66 53 110t145 44q86 0 158 -37l-34 -125l-11 1q-18 65 -54.5 102.5t-79.5 37.5q-29 0 -48 -15t-19 -40q0 -28 27 -50t65 -40t76 -38.5t65 -55.5t27 -81q0 -69 -55 -111
t-151 -42q-104 0 -178 34l40 142l12 -1q12 -71 50.5 -114t88.5 -43zM227 -279q0 11 -5.5 19t-12 11t-20 8.5t-20.5 8.5q-49 24 -49 73q0 35 24 59.5t64 24.5q38 0 61.5 -26t23.5 -71q0 -70 -39.5 -129.5t-103.5 -74.5l-6 15q28 5 55.5 32t27.5 50z" />
    <glyph glyph-name="circumflex" unicode="&#x2c6;" 
d="M397 521l-146 79l-152 -79h-14l117 155h100l113 -155h-18z" />
    <glyph glyph-name="caron" unicode="&#x2c7;" 
d="M397 683h18l-113 -155h-100l-117 155h14l152 -79z" />
    <glyph glyph-name="breve" unicode="&#x2d8;" horiz-adv-x="499" 
d="M249 541q-64 0 -105 37.5t-41 103.5h16q5 -30 39.5 -46.5t90.5 -16.5q57 0 91.5 16.5t39.5 46.5h16q0 -66 -41.5 -103.5t-105.5 -37.5z" />
    <glyph glyph-name="dotaccent" unicode="&#x2d9;" horiz-adv-x="499" 
d="M167 618q0 32 24.5 56.5t57.5 24.5q34 0 58.5 -24t24.5 -57q0 -34 -24.5 -58t-58.5 -24q-33 0 -57.5 24t-24.5 58z" />
    <glyph glyph-name="ring" unicode="&#x2da;" horiz-adv-x="499" 
d="M249 721q43 0 73 -31t30 -73q0 -43 -30 -73.5t-73 -30.5t-72.5 30t-29.5 74q0 43 29.5 73.5t72.5 30.5zM249 699q-32 0 -54.5 -24.5t-22.5 -57.5q0 -34 22.5 -58t54.5 -24t55 24t23 58q0 33 -23.5 57.5t-54.5 24.5z" />
    <glyph glyph-name="ogonek" unicode="&#x2db;" 
d="M349 -186l8 -7q-35 -52 -97 -52q-48 0 -74 28t-26 69q0 50 39 94t108 63l4 -9q-62 -26 -62 -118q0 -85 57 -85q23 0 43 17z" />
    <glyph glyph-name="tilde" unicode="&#x2dc;" 
d="M311 544q-27 0 -76.5 18.5t-75.5 18.5q-50 0 -70 -47l-9 2q4 56 34 95.5t75 39.5q27 0 76 -18.5t76 -18.5q51 0 70 47l10 -2q-5 -57 -35 -96t-75 -39z" />
    <glyph glyph-name="hungarumlaut" unicode="&#x2dd;" 
d="M267 520h-11l86 144q21 37 58 37q20 0 34.5 -13t14.5 -33q0 -40 -51 -67zM87 520h-11l86 144q21 37 58 37q20 0 34 -13t14 -33q0 -41 -51 -67z" />
    <glyph glyph-name="Wgrave" unicode="&#x1e80;" horiz-adv-x="1119" 
d="M641 770h-11l-158 41q-25 6 -39.5 22.5t-14.5 37.5q0 23 16 38.5t38 15.5q24 0 46 -22zM728 -11l-171 446l-167 -446h-52l-210 549q-29 76 -56 110t-62 42v10h343v-10q-44 -8 -52.5 -32.5t15.5 -94.5l133 -353l95 259l-40 105q-37 100 -88 116v10h319v-10
q-39 -7 -46.5 -32.5t16.5 -91.5l131 -342l73 212q39 122 21 184.5t-84 69.5v10h264v-10q-90 -5 -154 -192l-177 -509h-51z" />
    <glyph glyph-name="wgrave" unicode="&#x1e81;" horiz-adv-x="812" 
d="M477 523h-13l-157 67q-48 21 -48 63q0 23 15.5 39t37.5 16q29 0 52 -31zM512 -7l-111 294l-117 -294h-52l-154 356q-22 51 -38 72t-35 27v10h259v-10q-49 -7 -13 -91l79 -189l58 151l-11 30q-36 92 -69 99v10h256v-10q-47 -6 -24 -69l74 -210l39 99q20 49 19.5 90.5
t-16.5 64t-42 25.5v10h193v-10q-30 -4 -56.5 -37t-62.5 -118l-125 -300h-51z" />
    <glyph glyph-name="Wacute" unicode="&#x1e82;" horiz-adv-x="1119" 
d="M504 770l123 133q22 22 46 22q23 0 38.5 -15.5t15.5 -38.5q0 -21 -14.5 -37.5t-39.5 -22.5l-158 -41h-11zM728 -11l-171 446l-167 -446h-52l-210 549q-29 76 -56 110t-62 42v10h343v-10q-44 -8 -52.5 -32.5t15.5 -94.5l133 -353l95 259l-40 105q-37 100 -88 116v10h319
v-10q-39 -7 -46.5 -32.5t16.5 -91.5l131 -342l73 212q39 122 21 184.5t-84 69.5v10h264v-10q-90 -5 -154 -192l-177 -509h-51z" />
    <glyph glyph-name="wacute" unicode="&#x1e83;" horiz-adv-x="812" 
d="M363 522h-13l113 154q21 30 52 30q21 0 36.5 -15t15.5 -38q0 -44 -47 -64zM512 -7l-111 294l-117 -294h-52l-154 356q-22 51 -38 72t-35 27v10h259v-10q-49 -7 -13 -91l79 -189l58 151l-11 30q-36 92 -69 99v10h256v-10q-47 -6 -24 -69l74 -210l39 99q20 49 19.5 90.5
t-16.5 64t-42 25.5v10h193v-10q-30 -4 -56.5 -37t-62.5 -118l-125 -300h-51z" />
    <glyph glyph-name="Wdieresis" unicode="&#x1e84;" horiz-adv-x="1119" 
d="M470 777q-33 0 -57.5 24t-24.5 58q0 32 24.5 56.5t57.5 24.5q34 0 58.5 -24t24.5 -57q0 -34 -24.5 -58t-58.5 -24zM680 777q-34 0 -58 24t-24 58q0 33 24 57t58 24t58.5 -24t24.5 -57q0 -34 -24.5 -58t-58.5 -24zM728 -11l-171 446l-167 -446h-52l-210 549
q-29 76 -56 110t-62 42v10h343v-10q-44 -8 -52.5 -32.5t15.5 -94.5l133 -353l95 259l-40 105q-37 100 -88 116v10h319v-10q-39 -7 -46.5 -32.5t16.5 -91.5l131 -342l73 212q39 122 21 184.5t-84 69.5v10h264v-10q-90 -5 -154 -192l-177 -509h-51z" />
    <glyph glyph-name="wdieresis" unicode="&#x1e85;" horiz-adv-x="812" 
d="M435 618q0 32 24.5 56.5t57.5 24.5q34 0 58.5 -24t24.5 -57q0 -34 -24.5 -58t-58.5 -24t-58 24t-24 58zM225 618q0 32 24.5 56.5t57.5 24.5q34 0 58.5 -24t24.5 -57q0 -34 -24.5 -58t-58.5 -24q-33 0 -57.5 24t-24.5 58zM512 -7l-111 294l-117 -294h-52l-154 356
q-22 51 -38 72t-35 27v10h259v-10q-49 -7 -13 -91l79 -189l58 151l-11 30q-36 92 -69 99v10h256v-10q-47 -6 -24 -69l74 -210l39 99q20 49 19.5 90.5t-16.5 64t-42 25.5v10h193v-10q-30 -4 -56.5 -37t-62.5 -118l-125 -300h-51z" />
    <glyph glyph-name="Ygrave" unicode="&#x1ef2;" horiz-adv-x="710" 
d="M438 770h-11l-158 41q-25 6 -39.5 22.5t-14.5 37.5q0 23 15.5 38.5t38.5 15.5q24 0 46 -22zM520 0h-352v10q83 8 83 104v186l-148 287q-26 48 -47 70.5t-46 32.5v10h331v-10q-33 -3 -44 -32t8 -66l123 -251l72 146q90 179 -42 203v10h243v-10q-33 -2 -74.5 -44.5
t-78.5 -116.5l-111 -223v-192q0 -96 83 -104v-10z" />
    <glyph glyph-name="ygrave" unicode="&#x1ef3;" horiz-adv-x="554" 
d="M374 523h-13l-157 67q-48 21 -48 63q0 23 15.5 39t37.5 16q29 0 52 -31zM63 -245q-44 0 -72.5 22t-28.5 61q0 32 21.5 53t51.5 21q45 0 66 -45q3 -6 7 -16t6.5 -15t6.5 -11.5t9 -9t11 -2.5q18 0 39.5 23.5t38.5 63.5l35 79l-168 368q-39 84 -81 102v9h291v-9
q-30 -2 -38 -30.5t13 -78.5l74 -167l40 89q36 80 27 131.5t-57 55.5v9h193v-9q-32 -8 -59 -44t-73 -135l-175 -378q-31 -68 -78 -102.5t-100 -34.5z" />
    <glyph glyph-name="endash" unicode="&#x2013;" horiz-adv-x="606" 
d="M50 312h506v-23h-506v23z" />
    <glyph glyph-name="emdash" unicode="&#x2014;" horiz-adv-x="806" 
d="M50 312h706v-23h-706v23z" />
    <glyph glyph-name="quoteleft" unicode="&#x2018;" horiz-adv-x="274" 
d="M114 637q0 -12 6 -20.5t13 -12t21.5 -9t21.5 -9.5q53 -26 53 -81q0 -37 -26 -63.5t-69 -26.5q-41 0 -67.5 28t-26.5 77q0 76 43.5 140.5t113.5 79.5l6 -16q-30 -5 -59.5 -34t-29.5 -53z" />
    <glyph glyph-name="quoteright" unicode="&#x2019;" horiz-adv-x="274" 
d="M160 516q0 12 -6 20.5t-13 12t-21.5 9t-21.5 9.5q-53 27 -53 81q0 37 26 63.5t69 26.5q41 0 67.5 -28t26.5 -77q0 -76 -43.5 -140.5t-113.5 -79.5l-6 16q30 5 59.5 34t29.5 53z" />
    <glyph glyph-name="quotesinglbase" unicode="&#x201a;" horiz-adv-x="302" 
d="M174 -47q0 12 -6 20.5t-13 12t-21.5 9t-21.5 9.5q-53 26 -53 81q0 37 26 63.5t69 26.5q41 0 67.5 -28t26.5 -77q0 -76 -43.5 -140.5t-113.5 -79.5l-6 16q30 5 59.5 34t29.5 53z" />
    <glyph glyph-name="quotedblleft" unicode="&#x201c;" horiz-adv-x="499" 
d="M114 639q0 -12 6 -20.5t13 -12t21.5 -9t21.5 -9.5q53 -26 53 -81q0 -37 -26 -63.5t-69 -26.5q-41 0 -67.5 28t-26.5 77q0 76 43.5 140.5t113.5 79.5l6 -16q-30 -5 -59.5 -34t-29.5 -53zM340 639q0 -12 6 -20.5t13 -12t21.5 -9t21.5 -9.5q53 -26 53 -81q0 -37 -26 -63.5
t-69 -26.5q-41 0 -67.5 28t-26.5 77q0 76 43.5 140.5t113.5 79.5l6 -16q-30 -5 -59.5 -34t-29.5 -53z" />
    <glyph glyph-name="quotedblright" unicode="&#x201d;" horiz-adv-x="499" 
d="M385 516q0 12 -6 20.5t-13 12t-21.5 9t-21.5 9.5q-53 27 -53 81q0 37 26 63.5t69 26.5q41 0 67.5 -28t26.5 -77q0 -76 -43.5 -140.5t-113.5 -79.5l-6 16q30 5 59.5 34t29.5 53zM160 516q0 12 -6 20.5t-13 12t-21.5 9t-21.5 9.5q-53 27 -53 81q0 37 26 63.5t69 26.5
q41 0 67.5 -28t26.5 -77q0 -76 -43.5 -140.5t-113.5 -79.5l-6 16q30 5 59.5 34t29.5 53z" />
    <glyph glyph-name="quotedblbase" unicode="&#x201e;" horiz-adv-x="530" 
d="M174 -47q0 12 -6 20.5t-13 12t-21.5 9t-21.5 9.5q-53 26 -53 81q0 37 26 63.5t69 26.5q41 0 67.5 -28t26.5 -77q0 -76 -43.5 -140.5t-113.5 -79.5l-6 16q30 5 59.5 34t29.5 53zM399 -47q0 12 -6 20.5t-13 12t-21.5 9t-21.5 9.5q-53 26 -53 81q0 37 26 63.5t69 26.5
q41 0 67.5 -28t26.5 -77q0 -76 -43.5 -140.5t-113.5 -79.5l-6 16q30 5 59.5 34t29.5 53z" />
    <glyph glyph-name="dagger" unicode="&#x2020;" horiz-adv-x="486" 
d="M255 58v-136h-23v136q0 100 -15 149t-60 85q43 32 58 68.5t18 90.5q-27 -2 -75.5 -24t-73.5 -22q-23 0 -41 17.5t-18 39.5q0 24 18 41t41 17q25 0 71 -22.5t78 -25.5v32q0 42 -27 97t-27 82t18.5 46.5t45.5 19.5q26 0 45.5 -19.5t19.5 -46.5q0 -28 -27.5 -85.5
t-27.5 -93.5v-33q31 3 77.5 26t71.5 23q24 0 41.5 -17t17.5 -41q0 -23 -17.5 -40t-41.5 -17q-26 0 -74 22t-75 24q3 -54 18 -90.5t59 -68.5q-46 -36 -60.5 -84.5t-14.5 -149.5z" />
    <glyph glyph-name="daggerdbl" unicode="&#x2021;" horiz-adv-x="486" 
d="M308 -99q0 -27 -18.5 -46.5t-46.5 -19.5q-26 0 -45 19.5t-19 46.5q0 28 27 86t27 94v31q-32 -2 -78.5 -24.5t-70.5 -22.5q-23 0 -41 17t-18 40t18 40.5t41 17.5q25 0 73.5 -22t75.5 -24q-3 54 -18 90t-58 68q43 32 58 68.5t18 90.5q-27 -2 -75.5 -24t-73.5 -22
q-23 0 -41 17.5t-18 39.5q0 24 18 41t41 17q25 0 71 -22.5t78 -25.5v32q0 42 -27 97t-27 82t18.5 46.5t45.5 19.5q26 0 45.5 -19.5t19.5 -46.5q0 -28 -27.5 -85.5t-27.5 -93.5v-33q31 3 77.5 26t71.5 23q24 0 41.5 -17t17.5 -41q0 -23 -17.5 -40t-41.5 -17q-26 0 -74 22
t-75 24q3 -54 18 -90.5t59 -68.5q-44 -32 -59 -68t-18 -90q27 2 75 24t74 22q24 0 41.5 -17.5t17.5 -40.5q0 -24 -17.5 -40.5t-41.5 -16.5q-25 0 -71.5 22.5t-77.5 25.5v-32q0 -41 27.5 -97t27.5 -83z" />
    <glyph glyph-name="bullet" unicode="&#x2022;" horiz-adv-x="326" 
d="M44 352q0 50 35 85t85 35q49 0 83.5 -35t34.5 -85t-34.5 -84.5t-83.5 -34.5q-50 0 -85 34.5t-35 84.5z" />
    <glyph glyph-name="ellipsis" unicode="&#x2026;" horiz-adv-x="915" 
d="M762 -10q-38 0 -65.5 27t-27.5 66q0 38 27.5 65t65.5 27t66 -27t28 -65q0 -39 -27.5 -66t-66.5 -27zM457 -10q-38 0 -65.5 27t-27.5 66q0 38 27.5 65t65.5 27t66 -27t28 -65q0 -39 -27.5 -66t-66.5 -27zM152 -10q-38 0 -65.5 27t-27.5 66q0 38 27.5 65t65.5 27t66 -27
t28 -65q0 -39 -27.5 -66t-66.5 -27z" />
    <glyph glyph-name="perthousand" unicode="&#x2030;" horiz-adv-x="1138" 
d="M24 526q0 81 46.5 136t116.5 55t117 -55t47 -136t-47 -136.5t-117 -55.5t-116.5 55.5t-46.5 136.5zM140 533q0 -64 7.5 -107t18 -60t23.5 -17q12 0 22 15.5t16.5 55t6.5 99.5q0 63 -7.5 106t-18 60t-23.5 17q-45 0 -45 -169zM604 700h27l-460 -700h-27zM422 181
q0 81 46.5 136t116.5 55t117 -55t47 -136t-47 -136.5t-117 -55.5t-116.5 55.5t-46.5 136.5zM786 181q0 81 46.5 136t116.5 55t117 -55t47 -136t-47 -136.5t-117 -55.5t-116.5 55.5t-46.5 136.5zM538 188q0 -64 7.5 -107t18 -60t23.5 -17q12 0 22 15.5t16.5 55t6.5 99.5
q0 63 -7.5 106t-18 60t-23.5 17q-45 0 -45 -169zM902 188q0 -64 7.5 -107t18 -60t23.5 -17q12 0 22 15.5t16.5 55t6.5 99.5q0 63 -7.5 106t-18 60t-23.5 17q-45 0 -45 -169z" />
    <glyph glyph-name="guilsinglleft" unicode="&#x2039;" horiz-adv-x="341" 
d="M296 444l-103 -220l103 -224h-13l-233 219v14l233 211h13z" />
    <glyph glyph-name="guilsinglright" unicode="&#x203a;" horiz-adv-x="341" 
d="M45 0l103 220l-103 224h13l233 -219v-14l-233 -211h-13z" />
    <glyph glyph-name="fraction" unicode="&#x2044;" horiz-adv-x="480" 
d="M458 700h27l-460 -700h-27z" />
    <glyph glyph-name="uni2070" unicode="&#x2070;" horiz-adv-x="375" 
d="M24 526q0 81 46.5 136t116.5 55t117 -55t47 -136t-47 -136.5t-117 -55.5t-116.5 55.5t-46.5 136.5zM140 533q0 -64 7.5 -107t18 -60t23.5 -17q12 0 22 15.5t16.5 55t6.5 99.5q0 63 -7.5 106t-18 60t-23.5 17q-45 0 -45 -169z" />
    <glyph glyph-name="uni2074" unicode="&#x2074;" horiz-adv-x="368" 
d="M312 353v-8h-177v8q21 1 29.5 14.5t8.5 42.5v23h-162l-3 18l186 261h78v-202q53 5 67 50h10l-26 -127h-51v-18q0 -59 40 -62zM71 509h102v145z" />
    <glyph glyph-name="uni2075" unicode="&#x2075;" horiz-adv-x="320" 
d="M142 334q-59 0 -91.5 22t-32.5 49q0 17 11.5 29t29.5 12q37 0 44 -41q2 -31 10.5 -43.5t28.5 -12.5q25 0 41 18.5t16 54.5q0 40 -19.5 60.5t-54.5 20.5q-44 0 -68 -24l-21 12l24 215h158q49 0 55 21h8l-21 -103h-192l-7 -66q42 26 101 26q68 0 104.5 -34.5t36.5 -82.5
q0 -53 -43 -93t-118 -40z" />
    <glyph glyph-name="uni2076" unicode="&#x2076;" horiz-adv-x="331" 
d="M168 334q-61 0 -104 44.5t-43 118.5q0 96 79 156.5t177 60.5v-11q-48 -4 -82.5 -40.5t-49.5 -97.5q35 31 75 31t66.5 -29t26.5 -79q0 -66 -44.5 -110t-100.5 -44zM172 349q16 0 26 25t10 70q-1 99 -48 99q-10 0 -20 -6q-5 -35 -5 -66q0 -122 37 -122z" />
    <glyph glyph-name="uni2077" unicode="&#x2077;" horiz-adv-x="314" 
d="M214 345h-134v5q32 169 159 270h-124q-61 0 -80 -49h-11l30 135h238v-40q-111 -121 -78 -321z" />
    <glyph glyph-name="uni2078" unicode="&#x2078;" horiz-adv-x="327" 
d="M160 333q-68 0 -105 27.5t-37 67.5q0 30 20 54t53 38q-54 49 -54 97q0 44 37 72t93 28q52 0 85.5 -21.5t33.5 -54.5q0 -25 -20 -45.5t-48 -30.5q44 -31 68 -59t24 -64q0 -48 -43.5 -78.5t-106.5 -30.5zM120 669q0 -23 19.5 -43t57.5 -46q10 16 10 47q0 77 -48 77
q-17 0 -28 -9.5t-11 -25.5zM166 347q23 0 37 10.5t14 29.5q0 12 -5 23.5t-18 24.5t-21 20t-30 23.5t-28 21.5q-14 -22 -14 -61q0 -44 18 -68t47 -24z" />
    <glyph glyph-name="uni2079" unicode="&#x2079;" horiz-adv-x="336" 
d="M57 337v11q48 4 82.5 40.5t48.5 97.5q-34 -31 -73 -31q-40 0 -66.5 29t-26.5 79q0 66 44.5 110t100.5 44q61 0 103.5 -44t42.5 -119q0 -96 -79 -156.5t-177 -60.5zM175 508q9 0 19 6q5 33 5 66q0 122 -36 122t-36 -95q0 -99 48 -99z" />
    <glyph glyph-name="uni2080" unicode="&#x2080;" horiz-adv-x="375" 
d="M24 181q0 81 46.5 136t116.5 55t117 -55t47 -136t-47 -136.5t-117 -55.5t-116.5 55.5t-46.5 136.5zM140 188q0 -64 7.5 -107t18 -60t23.5 -17q12 0 22 15.5t16.5 55t6.5 99.5q0 63 -7.5 106t-18 60t-23.5 17q-45 0 -45 -169z" />
    <glyph glyph-name="uni2081" unicode="&#x2081;" horiz-adv-x="213" 
d="M23 0v8q21 1 29 14t8 43v197q0 28 -12 39.5t-46 8.5v6l149 64l12 -2v-306q0 -61 38 -64v-8h-178z" />
    <glyph glyph-name="uni2082" unicode="&#x2082;" horiz-adv-x="320" 
d="M267 0h-252l-3 8l110 112q51 52 51 113q0 82 -70 82q-49 0 -78 -47l-10 4q14 39 53 69.5t100 30.5q50 0 81.5 -22.5t31.5 -62.5q0 -50 -74 -115l-97 -86h103q56 0 72 50h12z" />
    <glyph glyph-name="uni2083" unicode="&#x2083;" horiz-adv-x="320" 
d="M139 -11q-57 0 -88 21.5t-31 49.5q0 18 11.5 30t29.5 12q17 0 30 -10t14 -30q4 -58 38 -58q20 0 34.5 21t14.5 61q0 37 -17 62.5t-55 25.5h-29v16q38 4 61 24.5t23 50.5q0 25 -17 41t-44 16q-44 0 -71 -44l-10 3q9 36 46 63t95 27q45 0 75.5 -21t30.5 -58
q0 -27 -17 -50.5t-45 -36.5q37 -9 59.5 -33.5t22.5 -57.5q0 -51 -45.5 -88t-115.5 -37z" />
    <glyph glyph-name="uni2084" unicode="&#x2084;" horiz-adv-x="368" 
d="M312 8v-8h-177v8q21 1 29.5 14.5t8.5 42.5v23h-162l-3 18l186 261h78v-202q53 5 67 50h10l-26 -127h-51v-18q0 -59 40 -62zM71 164h102v145z" />
    <glyph glyph-name="uni2085" unicode="&#x2085;" horiz-adv-x="320" 
d="M142 -11q-59 0 -91.5 22t-32.5 49q0 17 11.5 29t29.5 12q37 0 44 -41q2 -31 10.5 -43.5t28.5 -12.5q25 0 41 18.5t16 54.5q0 40 -19.5 60.5t-54.5 20.5q-44 0 -68 -24l-21 12l24 215h158q49 0 55 21h8l-21 -103h-192l-7 -66q42 26 101 26q68 0 104.5 -34.5t36.5 -82.5
q0 -53 -43 -93t-118 -40z" />
    <glyph glyph-name="uni2086" unicode="&#x2086;" horiz-adv-x="331" 
d="M168 -11q-61 0 -104 44.5t-43 118.5q0 96 79 156.5t177 60.5v-11q-48 -4 -82.5 -40.5t-49.5 -97.5q35 31 75 31t66.5 -29t26.5 -79q0 -66 -44.5 -110t-100.5 -44zM172 4q16 0 26 25t10 70q-1 99 -48 99q-10 0 -20 -6q-5 -35 -5 -66q0 -122 37 -122z" />
    <glyph glyph-name="uni2087" unicode="&#x2087;" horiz-adv-x="314" 
d="M214 0h-134v5q32 169 159 270h-124q-61 0 -80 -49h-11l30 135h238v-40q-111 -121 -78 -321z" />
    <glyph glyph-name="uni2088" unicode="&#x2088;" horiz-adv-x="327" 
d="M160 -12q-68 0 -105 27.5t-37 67.5q0 30 20 54t53 38q-54 49 -54 97q0 44 37 72t93 28q52 0 85.5 -21.5t33.5 -54.5q0 -25 -20 -45.5t-48 -30.5q44 -31 68 -59t24 -64q0 -48 -43.5 -78.5t-106.5 -30.5zM120 324q0 -23 19.5 -43t57.5 -46q10 16 10 47q0 77 -48 77
q-17 0 -28 -9.5t-11 -25.5zM166 2q23 0 37 10.5t14 29.5q0 12 -5 23.5t-18 24.5t-21 20t-30 23.5t-28 21.5q-14 -22 -14 -61q0 -44 18 -68t47 -24z" />
    <glyph glyph-name="uni2089" unicode="&#x2089;" horiz-adv-x="336" 
d="M57 -8v11q48 4 82.5 40.5t48.5 97.5q-34 -31 -73 -31q-40 0 -66.5 29t-26.5 79q0 66 44.5 110t100.5 44q61 0 103.5 -44t42.5 -119q0 -96 -79 -156.5t-177 -60.5zM175 163q9 0 19 6q5 33 5 66q0 122 -36 122t-36 -95q0 -99 48 -99z" />
    <glyph glyph-name="Euro" unicode="&#x20ac;" horiz-adv-x="639" 
d="M605 160q-24 -80 -84.5 -128.5t-151.5 -48.5q-108 0 -187.5 71.5t-95.5 186.5h-75v21h73q-2 17 0 56h-73v21h75q15 120 102.5 195.5t225.5 75.5q113 0 195 -44l-31 -168l-14 1q-16 85 -59.5 137.5t-99.5 52.5q-59 0 -100 -64t-41 -186h179l-8 -21h-171q0 -22 4 -56h145
l-8 -21h-133q17 -86 63.5 -127.5t108.5 -41.5q51 0 89 24.5t58 67.5z" />
    <glyph glyph-name="trademark" unicode="&#x2122;" horiz-adv-x="890" 
d="M102 356v8q41 4 41 49v274h-10q-58 0 -84 -68l-13 -34h-9l13 115h311l9 -113h-9l-16 33q-33 67 -73 67h-14v-274q0 -27 11 -37t31 -12v-8h-188zM691 446l-27 202l-97 -298h-8l-90 293l-24 -160q-9 -60 1.5 -89t49.5 -30v-8h-150v8q33 2 52.5 30t29.5 93l20 130
q5 32 -8 53t-44 22v8h162l53 -162l54 162h162v-8q-32 -1 -45.5 -21.5t-8.5 -53.5l33 -191q9 -60 59 -62v-8h-214v8q25 1 35 25.5t5 56.5z" />
    <glyph glyph-name="uni2153" unicode="&#x2153;" horiz-adv-x="648" 
d="M23 345v8q21 1 29 14t8 43v197q0 28 -12 39.5t-46 8.5v6l149 64l12 -2v-306q0 -61 38 -64v-8h-178zM507 700h27l-460 -700h-27zM468 -11q-57 0 -88 21.5t-31 49.5q0 18 11.5 30t29.5 12q17 0 30 -10t14 -30q4 -58 38 -58q20 0 34.5 21t14.5 61q0 37 -17.5 62.5
t-54.5 25.5h-29v16q38 4 61 24.5t23 50.5q0 25 -17 41t-44 16q-44 0 -71 -44l-10 3q9 36 46 63t95 27q45 0 75.5 -21t30.5 -58q0 -27 -17 -50.5t-45 -36.5q37 -9 59.5 -33.5t22.5 -57.5q0 -51 -45.5 -88t-115.5 -37z" />
    <glyph glyph-name="uni2154" unicode="&#x2154;" horiz-adv-x="723" 
d="M267 345h-252l-3 8l110 112q51 52 51 113q0 82 -70 82q-49 0 -78 -47l-10 4q14 39 53 69.5t100 30.5q50 0 81.5 -22.5t31.5 -62.5q0 -50 -74 -115l-97 -86h103q56 0 72 50h12zM581 700h27l-460 -700h-27zM542 -11q-57 0 -88 21.5t-31 49.5q0 18 11.5 30t29.5 12
q17 0 30 -10t14 -30q4 -58 38 -58q20 0 34.5 21t14.5 61q0 37 -17.5 62.5t-54.5 25.5h-29v16q38 4 61 24.5t23 50.5q0 25 -17 41t-44 16q-44 0 -71 -44l-10 3q9 36 46 63t95 27q45 0 75.5 -21t30.5 -58q0 -27 -17 -50.5t-45 -36.5q37 -9 59.5 -33.5t22.5 -57.5
q0 -51 -45.5 -88t-115.5 -37z" />
    <glyph glyph-name="uni2155" unicode="&#x2155;" horiz-adv-x="649" 
d="M23 345v8q21 1 29 14t8 43v197q0 28 -12 39.5t-46 8.5v6l149 64l12 -2v-306q0 -61 38 -64v-8h-178zM507 700h27l-460 -700h-27zM471 -11q-59 0 -91.5 22t-32.5 49q0 17 11.5 29t29.5 12q37 0 44 -41q2 -31 10.5 -43.5t28.5 -12.5q25 0 41 18.5t16 54.5q0 40 -19.5 60.5
t-54.5 20.5q-44 0 -68 -24l-21 12l24 215h158q49 0 55 21h8l-21 -103h-192l-7 -66q42 26 101 26q68 0 104.5 -34.5t36.5 -82.5q0 -53 -43 -93t-118 -40z" />
    <glyph glyph-name="uni2156" unicode="&#x2156;" horiz-adv-x="723" 
d="M267 345h-252l-3 8l110 112q51 52 51 113q0 82 -70 82q-49 0 -78 -47l-10 4q14 39 53 69.5t100 30.5q50 0 81.5 -22.5t31.5 -62.5q0 -50 -74 -115l-97 -86h103q56 0 72 50h12zM581 700h27l-460 -700h-27zM546 -11q-59 0 -91.5 22t-32.5 49q0 17 11.5 29t29.5 12
q37 0 44 -41q2 -31 10.5 -43.5t28.5 -12.5q25 0 41 18.5t16 54.5q0 40 -19.5 60.5t-54.5 20.5q-44 0 -68 -24l-21 12l24 215h158q49 0 55 21h8l-21 -103h-192l-7 -66q42 26 101 26q68 0 104.5 -34.5t36.5 -82.5q0 -53 -43 -93t-118 -40z" />
    <glyph glyph-name="uni2157" unicode="&#x2157;" horiz-adv-x="709" 
d="M567 700h27l-460 -700h-27zM139 334q-57 0 -88 21.5t-31 49.5q0 18 11.5 30t29.5 12q17 0 30 -10t14 -30q4 -58 38 -58q20 0 34.5 21t14.5 61q0 37 -17 62.5t-55 25.5h-29v16q38 4 61 24.5t23 50.5q0 25 -17 41t-44 16q-44 0 -71 -44l-10 3q9 36 46 63t95 27
q45 0 75.5 -21t30.5 -58q0 -27 -17 -50.5t-45 -36.5q37 -9 59.5 -33.5t22.5 -57.5q0 -51 -45.5 -88t-115.5 -37zM531 -11q-59 0 -91.5 22t-32.5 49q0 17 11.5 29t29.5 12q37 0 44 -41q2 -31 10.5 -43.5t28.5 -12.5q25 0 41 18.5t16 54.5q0 40 -19.5 60.5t-54.5 20.5
q-44 0 -68 -24l-21 12l24 215h158q49 0 55 21h8l-21 -103h-192l-7 -66q42 26 101 26q68 0 104.5 -34.5t36.5 -82.5q0 -53 -43 -93t-118 -40z" />
    <glyph glyph-name="uni2158" unicode="&#x2158;" horiz-adv-x="754" 
d="M312 353v-8h-177v8q21 1 29.5 14.5t8.5 42.5v23h-162l-3 18l186 261h78v-202q53 5 67 50h10l-26 -127h-51v-18q0 -59 40 -62zM612 700h27l-460 -700h-27zM71 509h102v145zM576 -11q-59 0 -91.5 22t-32.5 49q0 17 11.5 29t29.5 12q37 0 44 -41q2 -31 10.5 -43.5
t28.5 -12.5q25 0 41 18.5t16 54.5q0 40 -19.5 60.5t-54.5 20.5q-44 0 -68 -24l-21 12l24 215h158q49 0 55 21h8l-21 -103h-192l-7 -66q42 26 101 26q68 0 104.5 -34.5t36.5 -82.5q0 -53 -43 -93t-118 -40z" />
    <glyph glyph-name="uni2159" unicode="&#x2159;" horiz-adv-x="640" 
d="M23 345v8q21 1 29 14t8 43v197q0 28 -12 39.5t-46 8.5v6l149 64l12 -2v-306q0 -61 38 -64v-8h-178zM507 700h27l-460 -700h-27zM477 -11q-61 0 -104 44.5t-43 118.5q0 96 79 156.5t177 60.5v-11q-48 -4 -82.5 -40.5t-49.5 -97.5q35 31 75 31t66.5 -29t26.5 -79
q0 -66 -44.5 -110t-100.5 -44zM481 4q16 0 26 25t10 70q-1 99 -48 99q-9 0 -20 -6q-5 -35 -5 -66q0 -122 37 -122z" />
    <glyph glyph-name="uni215A" unicode="&#x215a;" horiz-adv-x="713" 
d="M581 700h27l-460 -700h-27zM142 334q-59 0 -91.5 22t-32.5 49q0 17 11.5 29t29.5 12q37 0 44 -41q2 -31 10.5 -43.5t28.5 -12.5q25 0 41 18.5t16 54.5q0 40 -19.5 60.5t-54.5 20.5q-44 0 -68 -24l-21 12l24 215h158q49 0 55 21h8l-21 -103h-192l-7 -66q42 26 101 26
q68 0 104.5 -34.5t36.5 -82.5q0 -53 -43 -93t-118 -40zM550 -11q-61 0 -104 44.5t-43 118.5q0 96 79 156.5t177 60.5v-11q-48 -4 -82.5 -40.5t-49.5 -97.5q35 31 75 31t66.5 -29t26.5 -79q0 -66 -44.5 -110t-100.5 -44zM554 4q16 0 26 25t10 70q-1 99 -48 99q-10 0 -20 -6
q-5 -35 -5 -66q0 -122 37 -122z" />
    <glyph glyph-name="uni215B" unicode="&#x215b;" horiz-adv-x="646" 
d="M23 345v8q21 1 29 14t8 43v197q0 28 -12 39.5t-46 8.5v6l149 64l12 -2v-306q0 -61 38 -64v-8h-178zM507 700h27l-460 -700h-27zM479 -12q-68 0 -105 27.5t-37 67.5q0 30 20 54t53 38q-54 49 -54 97q0 44 37 72t93 28q52 0 85.5 -21.5t33.5 -54.5q0 -25 -20 -45.5
t-48 -30.5q44 -31 68 -59t24 -64q0 -48 -43.5 -78.5t-106.5 -30.5zM439 324q0 -23 19.5 -43t57.5 -46q10 16 10 47q0 77 -48 77q-17 0 -28 -9.5t-11 -25.5zM485 2q23 0 37 10.5t14 29.5q0 12 -5 23.5t-18 24.5t-21 20t-30 23.5t-28 21.5q-14 -22 -14 -61q0 -44 18 -68
t47 -24z" />
    <glyph glyph-name="uni215C" unicode="&#x215c;" horiz-adv-x="706" 
d="M567 700h27l-460 -700h-27zM139 334q-57 0 -88 21.5t-31 49.5q0 18 11.5 30t29.5 12q17 0 30 -10t14 -30q4 -58 38 -58q20 0 34.5 21t14.5 61q0 37 -17 62.5t-55 25.5h-29v16q38 4 61 24.5t23 50.5q0 25 -17 41t-44 16q-44 0 -71 -44l-10 3q9 36 46 63t95 27
q45 0 75.5 -21t30.5 -58q0 -27 -17 -50.5t-45 -36.5q37 -9 59.5 -33.5t22.5 -57.5q0 -51 -45.5 -88t-115.5 -37zM538 -12q-68 0 -105 27.5t-37 67.5q0 30 20 54t53 38q-54 49 -54 97q0 44 37 72t93 28q52 0 85.5 -21.5t33.5 -54.5q0 -25 -20 -45.5t-48 -30.5q44 -31 68 -59
t24 -64q0 -48 -43.5 -78.5t-106.5 -30.5zM498 324q0 -23 19.5 -43t57.5 -46q10 16 10 47q0 77 -48 77q-17 0 -28 -9.5t-11 -25.5zM544 2q23 0 37 10.5t14 29.5q0 12 -5 23.5t-18 24.5t-21 20t-30 23.5t-28 21.5q-14 -22 -14 -61q0 -44 18 -68t47 -24z" />
    <glyph glyph-name="uni215D" unicode="&#x215d;" horiz-adv-x="706" 
d="M566 700h27l-460 -700h-27zM142 334q-59 0 -91.5 22t-32.5 49q0 17 11.5 29t29.5 12q37 0 44 -41q2 -31 10.5 -43.5t28.5 -12.5q25 0 41 18.5t16 54.5q0 40 -19.5 60.5t-54.5 20.5q-44 0 -68 -24l-21 12l24 215h158q49 0 55 21h8l-21 -103h-192l-7 -66q42 26 101 26
q68 0 104.5 -34.5t36.5 -82.5q0 -53 -43 -93t-118 -40zM538 -12q-68 0 -105 27.5t-37 67.5q0 30 20 54t53 38q-54 49 -54 97q0 44 37 72t93 28q52 0 85.5 -21.5t33.5 -54.5q0 -25 -20 -45.5t-48 -30.5q44 -31 68 -59t24 -64q0 -48 -43.5 -78.5t-106.5 -30.5zM498 324
q0 -23 19.5 -43t57.5 -46q10 16 10 47q0 77 -48 77q-17 0 -28 -9.5t-11 -25.5zM544 2q23 0 37 10.5t14 29.5q0 12 -5 23.5t-18 24.5t-21 20t-30 23.5t-28 21.5q-14 -22 -14 -61q0 -44 18 -68t47 -24z" />
    <glyph glyph-name="uni215E" unicode="&#x215e;" horiz-adv-x="676" 
d="M214 345h-134v5q32 169 159 270h-124q-61 0 -80 -49h-11l30 135h238v-40q-111 -121 -78 -321zM536 700h27l-460 -700h-27zM508 -12q-68 0 -105 27.5t-37 67.5q0 30 20 54t53 38q-54 49 -54 97q0 44 37 72t93 28q52 0 85.5 -21.5t33.5 -54.5q0 -25 -20 -45.5t-48 -30.5
q44 -31 68 -59t24 -64q0 -48 -43.5 -78.5t-106.5 -30.5zM468 324q0 -23 19.5 -43t57.5 -46q10 16 10 47q0 77 -48 77q-17 0 -28 -9.5t-11 -25.5zM514 2q23 0 37 10.5t14 29.5q0 12 -5 23.5t-18 24.5t-21 20t-30 23.5t-28 21.5q-14 -22 -14 -61q0 -44 18 -68t47 -24z" />
    <glyph glyph-name="uni215F" unicode="&#x215f;" horiz-adv-x="643" 
d="M23 345v8q21 1 29 14t8 43v197q0 28 -12 39.5t-46 8.5v6l149 64l12 -2v-306q0 -61 38 -64v-8h-178zM507 700h27l-460 -700h-27z" />
    <glyph glyph-name="arrowleft" unicode="&#x2190;" horiz-adv-x="850" 
d="M445 125l-5 -10l-389 272v5l389 271l5 -9l-145 -252l470 21v-67l-469 20z" />
    <glyph glyph-name="arrowup" unicode="&#x2191;" horiz-adv-x="850" 
d="M689 324l-252 145l21 -470h-67l20 469l-251 -144l-10 5l272 390h5l271 -390z" />
    <glyph glyph-name="arrowright" unicode="&#x2192;" horiz-adv-x="850" 
d="M409 115l-5 10l144 251l-469 -20v67l470 -21l-145 252l5 9l389 -271v-5z" />
    <glyph glyph-name="arrowdown" unicode="&#x2193;" horiz-adv-x="850" 
d="M437 231l252 145l9 -5l-271 -390h-5l-272 390l10 5l251 -144l-20 469h67z" />
    <glyph glyph-name="uni2196" unicode="&#x2196;" horiz-adv-x="850" 
d="M327 527l-77 -278l-10 -3l-81 466l4 4l468 -85l-3 -11l-281 -74l348 -316l-48 -47z" />
    <glyph glyph-name="uni2197" unicode="&#x2197;" horiz-adv-x="850" 
d="M604 249l-77 278l-320 -344l-48 47l348 316l-281 74l-3 11l468 85l4 -4l-81 -466z" />
    <glyph glyph-name="uni2198" unicode="&#x2198;" horiz-adv-x="850" 
d="M526 179l77 278l10 3l81 -466l-4 -4l-468 85l3 11l281 74l-348 316l48 47z" />
    <glyph glyph-name="uni2199" unicode="&#x2199;" horiz-adv-x="850" 
d="M247 457l77 -278l320 344l48 -47l-348 -316l281 -74l3 -11l-468 -85l-4 4l81 466z" />
    <glyph glyph-name="minus" unicode="&#x2212;" horiz-adv-x="606" 
d="M47 315h512v-29h-512v29z" />
    <glyph glyph-name="approxequal" unicode="&#x2248;" horiz-adv-x="605" 
d="M550 354q-53 -45 -119 -45q-40 0 -125.5 38t-132.5 38q-61 0 -118 -48v32q53 45 119 45q49 0 135 -38t123 -38q61 0 118 48v-32zM550 239q-53 -45 -119 -45q-40 0 -125.5 38t-132.5 38q-61 0 -118 -48v32q53 45 119 45q49 0 135 -38t123 -38q59 0 118 48v-32z" />
    <glyph glyph-name="notequal" unicode="&#x2260;" horiz-adv-x="606" 
d="M559 226h-306l-167 -179h-35l167 179h-171v29h198l84 91h-282v29h309l166 178h35l-166 -178h168v-29h-195l-84 -91h279v-29z" />
    <glyph glyph-name="lessequal" unicode="&#x2264;" horiz-adv-x="436" 
d="M353 103l-304 229l300 231l18 -19l-274 -212l277 -210zM389 0h-340v25h340v-25z" />
    <glyph glyph-name="greaterequal" unicode="&#x2265;" horiz-adv-x="436" 
d="M89 103l-18 19l274 212l-277 210l17 19l304 -229zM389 0h-340v25h340v-25z" />
    <glyph glyph-name="blacksquare" unicode="&#x25a0;" horiz-adv-x="911" 
d="M805 699v-699h-699v699h699z" />
    <glyph glyph-name="whitesquare" unicode="&#x25a1;" horiz-adv-x="911" 
d="M106 0v699h699v-699h-699zM769 669h-627v-639h627v639z" />
    <glyph glyph-name="blacksmallsquare" unicode="&#x25aa;" horiz-adv-x="728" 
d="M97 0v534h534v-534h-534z" />
    <glyph glyph-name="whitesmallsquare" unicode="&#x25ab;" horiz-adv-x="728" 
d="M97 0v534h534v-534h-534zM596 504h-464v-474h464v474z" />
    <glyph glyph-name="triagup" unicode="&#x25b2;" horiz-adv-x="770" 
d="M734 0h-699l350 606z" />
    <glyph glyph-name="triagrt" unicode="&#x25ba;" horiz-adv-x="770" 
d="M99 0v699l605 -349z" />
    <glyph glyph-name="triagdn" unicode="&#x25bc;" horiz-adv-x="770" 
d="M35 700h699l-349 -606z" />
    <glyph glyph-name="triaglf" unicode="&#x25c4;" horiz-adv-x="770" 
d="M671 699v-699l-605 350z" />
    <glyph glyph-name="whitecircle" unicode="&#x25cb;" horiz-adv-x="913" 
d="M97 349q0 148 105.5 253.5t253.5 105.5q149 0 254.5 -105t105.5 -254t-105.5 -254t-254.5 -105q-148 0 -253.5 105.5t-105.5 253.5zM134 349q0 -139 92.5 -234t229.5 -95q138 0 231 95t93 234q0 138 -93 233.5t-231 95.5q-137 0 -229.5 -95.5t-92.5 -233.5z" />
    <glyph glyph-name="blackcircle" unicode="&#x25cf;" horiz-adv-x="913" 
d="M97 349q0 148 105.5 253.5t253.5 105.5q149 0 254.5 -105t105.5 -254t-105.5 -254t-254.5 -105q-148 0 -253.5 105.5t-105.5 253.5z" />
    <glyph glyph-name="uni25E2" unicode="&#x25e2;" horiz-adv-x="720" 
d="M21 181l495 495l181 -676z" />
    <glyph glyph-name="uni25E3" unicode="&#x25e3;" horiz-adv-x="720" 
d="M201 676l495 -495l-676 -181z" />
    <glyph glyph-name="uni25E4" unicode="&#x25e4;" horiz-adv-x="720" 
d="M699 520l-495 -495l-181 676z" />
    <glyph glyph-name="uni25E5" unicode="&#x25e5;" horiz-adv-x="720" 
d="M519 25l-495 495l676 181z" />
    <glyph glyph-name="dotlessj" unicode="&#xf6be;" horiz-adv-x="305" 
d="M16 -243q-67 0 -103.5 26t-36.5 65q0 29 19.5 47.5t48.5 18.5q28 0 46.5 -16.5t18.5 -46.5q0 -9 -3.5 -26.5t-3.5 -25.5q0 -24 24 -24q32 0 42.5 22.5t10.5 75.5q0 32 -2.5 116t-2.5 135v209q0 40 -19 56t-48 14v10l227 62l8 -3l-2 -129v-320q0 -129 -59.5 -197.5
t-164.5 -68.5z" />
    <glyph glyph-name="commaaccent" unicode="&#xf6c3;" horiz-adv-x="499" 
d="M270 -279q0 11 -5.5 19t-12 11t-20 8.5t-20.5 8.5q-49 24 -49 73q0 35 24 59.5t64 24.5q38 0 61.5 -26t23.5 -71q0 -70 -39.5 -129.5t-103.5 -74.5l-6 15q28 5 55.5 32t27.5 50z" />
    <glyph glyph-name="idotaccent" horiz-adv-x="309" 
d="M60 621q0 40 29 68.5t68 28.5q41 0 69.5 -28t28.5 -69q0 -39 -28.5 -66.5t-69.5 -27.5q-39 0 -68 28t-29 66zM302 0h-281v10q56 6 56 71v252q0 40 -19 56t-47 14v10l226 62l8 -3l-2 -129v-262q0 -65 59 -71v-10z" />
    <glyph glyph-name="cordinal" horiz-adv-x="304" 
d="M161 409q-59 0 -100.5 41.5t-41.5 105.5q0 68 45 113t112 45q52 0 81 -20t29 -45q0 -17 -12 -29t-31 -12q-33 0 -43 30q-2 4 -5 17t-5.5 21.5t-9 15.5t-15.5 7q-20 0 -31 -28t-11 -73q0 -57 23 -90t65 -33q51 0 73 47l11 -5q-32 -108 -134 -108z" />
    <glyph glyph-name="g.alt" horiz-adv-x="534" 
d="M195 308q0 -75 20 -113t49 -38q28 0 49 38.5t21 111.5t-21 111.5t-49 38.5q-29 0 -49 -38t-20 -111zM528 -61q0 -75 -81.5 -131t-220.5 -56q-111 0 -174 31.5t-63 82.5q0 69 100 102q-47 31 -47 87q0 71 85 114q-41 22 -65.5 57t-24.5 75q0 71 67.5 123t156.5 52
q45 0 85 -13q-1 10 -1 33q0 57 29 90.5t70 33.5q32 0 52.5 -18.5t20.5 -46.5q0 -26 -17 -46.5t-53 -20.5q-6 0 -17 0.5t-15 0.5q-43 0 -44 -35q53 -22 86.5 -59.5t33.5 -86.5q0 -74 -71 -122.5t-161 -48.5q-59 0 -109 21q-27 -16 -25 -40q1 -16 15.5 -23t57.5 -10l149 -7
q85 -5 133 -41.5t48 -97.5zM243 -229q73 0 115.5 29t42.5 70q0 57 -59 60l-140 6q-40 2 -71 12q-30 -26 -30 -69q0 -52 37.5 -80t104.5 -28z" />
    <glyph glyph-name="gbreve.alt" horiz-adv-x="534" 
d="M255 541q-57 0 -97 41.5t-40 99.5h16q11 -63 121 -63t121 63h17q0 -57 -40.5 -99t-97.5 -42zM195 308q0 -75 20 -113t49 -38q28 0 49 38.5t21 111.5t-21 111.5t-49 38.5q-29 0 -49 -38t-20 -111zM528 -61q0 -75 -81.5 -131t-220.5 -56q-111 0 -174 31.5t-63 82.5
q0 69 100 102q-47 31 -47 87q0 72 83 115q-88 48 -88 131q0 71 67.5 123t156.5 52q49 0 103 -19q-1 3 -1 11q-1 57 26 90t66 33q29 0 48 -17t19 -44q0 -25 -15.5 -44.5t-48.5 -19.5h-30q-32 0 -40 -20q103 -50 103 -138q0 -74 -71 -122.5t-161 -48.5q-59 0 -109 21
q-27 -16 -25 -40q1 -16 15.5 -23t57.5 -10l149 -7q85 -5 133 -41.5t48 -97.5zM243 -229q73 0 115 29t42 70q0 26 -15 42.5t-45 17.5l-138 6q-39 2 -72 12q-30 -26 -30 -69q0 -52 37.5 -80t105.5 -28z" />
    <glyph glyph-name="gcircumflex.alt" horiz-adv-x="534" 
d="M340 558l-80 42l-152 -79h-14l117 155h100l55 -76q-16 -16 -26 -42zM195 308q0 -75 20 -113t49 -38q28 0 49 38.5t21 111.5t-21 111.5t-49 38.5q-29 0 -49 -38t-20 -111zM528 -61q0 -75 -81.5 -131t-220.5 -56q-111 0 -174 31.5t-63 82.5q0 69 100 102q-47 31 -47 87
q0 72 83 115q-88 48 -88 131q0 71 67.5 123t156.5 52q49 0 97 -17q0 3 -0.5 10.5t-0.5 11.5q-1 59 28 93.5t71 34.5q31 0 52 -18t21 -46q0 -26 -17 -46.5t-53 -20.5q-6 0 -17 0.5t-15 0.5q-39 0 -44 -30q49 -22 78.5 -58.5t29.5 -82.5q0 -74 -71 -122.5t-161 -48.5
q-59 0 -109 21q-27 -16 -25 -40q1 -16 15.5 -23t57.5 -10l149 -7q85 -5 133 -41.5t48 -97.5zM243 -229q73 0 115 29t42 70q0 26 -15 42.5t-45 17.5l-138 6q-39 2 -72 12q-30 -26 -30 -69q0 -52 37.5 -80t105.5 -28z" />
    <glyph glyph-name="gcommaaccent.alt" horiz-adv-x="534" 
d="M237 742q0 -11 5.5 -19t12 -11t20 -8.5t20.5 -8.5q49 -25 49 -73q0 -35 -24 -59.5t-64 -24.5q-38 0 -61.5 26t-23.5 71q0 70 39.5 129.5t103.5 74.5l6 -15q-28 -5 -55.5 -32t-27.5 -50zM195 308q0 -75 20 -113t49 -38q28 0 49 38.5t21 111.5t-21 111.5t-49 38.5
q-29 0 -49 -38t-20 -111zM528 -61q0 -75 -81.5 -131t-220.5 -56q-111 0 -174 31.5t-63 82.5q0 69 100 102q-47 31 -47 87q0 72 83 115q-88 48 -88 131q0 71 67.5 123t156.5 52q45 0 95 -16q0 3 -0.5 10.5t-0.5 11.5q-1 59 28 93.5t70 34.5q32 0 53 -18t21 -46
q0 -26 -17.5 -46.5t-53.5 -20.5q-5 0 -16 0.5t-15 0.5q-39 0 -44 -30q49 -22 79.5 -59t30.5 -83q0 -74 -71 -122.5t-161 -48.5q-59 0 -109 21q-27 -16 -25 -40q1 -16 15.5 -23t57.5 -10l149 -7q85 -5 133 -41.5t48 -97.5zM243 -229q73 0 115 29t42 70q0 26 -15 42.5
t-45 17.5l-138 6q-39 2 -72 12q-30 -26 -30 -69q0 -52 37.5 -80t105.5 -28z" />
    <glyph glyph-name="gdotaccent.alt" horiz-adv-x="534" 
d="M176 618q0 32 24.5 56.5t57.5 24.5q34 0 58.5 -24t24.5 -57q0 -34 -24.5 -58t-58.5 -24q-33 0 -57.5 24t-24.5 58zM195 308q0 -75 20 -113t49 -38q28 0 49 38.5t21 111.5t-21 111.5t-49 38.5q-29 0 -49 -38t-20 -111zM528 -61q0 -75 -81.5 -131t-220.5 -56
q-111 0 -174 31.5t-63 82.5q0 69 100 102q-47 31 -47 87q0 72 83 115q-88 48 -88 131q0 71 67.5 123t156.5 52q45 0 95 -16q0 3 -0.5 10.5t-0.5 11.5q-1 59 28 93.5t70 34.5q32 0 53 -18t21 -46q0 -26 -17.5 -46.5t-53.5 -20.5q-5 0 -16 0.5t-15 0.5q-39 0 -44 -30
q49 -22 79.5 -59t30.5 -83q0 -74 -71 -122.5t-161 -48.5q-59 0 -109 21q-27 -16 -25 -40q1 -16 15.5 -23t57.5 -10l149 -7q85 -5 133 -41.5t48 -97.5zM243 -229q73 0 115 29t42 70q0 26 -15 42.5t-45 17.5l-138 6q-39 2 -72 12q-30 -26 -30 -69q0 -52 37.5 -80t105.5 -28z
" />
    <glyph glyph-name="A.smcp" horiz-adv-x="619" 
d="M238 372l-72 -193h150zM222 9v-9h-212v9q38 8 67.5 47t75.5 155l132 334h60l169 -408q28 -66 47.5 -92t48.5 -36v-9h-303v9q70 16 29 120l-12 29h-164q-18 -75 -2 -107t64 -42z" />
    <glyph glyph-name="B.smcp" horiz-adv-x="568" 
d="M299 0h-280v10q62 6 62 85v347q0 79 -62 85v10h291q106 0 158 -32t52 -84q0 -42 -33.5 -74t-91.5 -45q75 -14 115 -54.5t40 -92.5q0 -70 -68 -112.5t-183 -42.5zM249 519v-219h9q46 0 72 29.5t26 79.5q0 51 -25.5 80.5t-66.5 29.5h-15zM249 18h18q113 0 113 127
q0 67 -31 101t-88 34h-12v-262z" />
    <glyph glyph-name="C.smcp" horiz-adv-x="567" 
d="M536 153q-27 -82 -87.5 -125.5t-145.5 -43.5q-111 0 -193.5 76t-82.5 199q0 134 93 214.5t242 80.5q107 0 180 -39l-39 -152l-16 2q-11 72 -54 120t-93 48q-62 0 -100.5 -66t-38.5 -167q0 -105 48 -163t127 -58q101 0 146 79z" />
    <glyph glyph-name="D.smcp" horiz-adv-x="649" 
d="M19 0v10q62 6 62 85v349q0 45 -16.5 62.5t-45.5 20.5v10h287q139 0 227.5 -79t88.5 -186q0 -119 -94.5 -195.5t-215.5 -76.5h-293zM296 519h-45v-501h34q34 0 59 10.5t47.5 37t34 79t11.5 129.5q0 116 -40 180.5t-101 64.5z" />
    <glyph glyph-name="E.smcp" horiz-adv-x="548" 
d="M531 175l-26 -175h-486v10q29 3 45.5 19.5t16.5 61.5v348q0 82 -62 88v10h472l23 -149h-13q-39 53 -102.5 92t-126.5 39h-22v-225h26q43 0 82 31t47 71h12v-226h-12q-8 39 -46 72.5t-83 33.5h-26v-258h29q71 0 140 48.5t98 108.5h14z" />
    <glyph glyph-name="F.smcp" horiz-adv-x="531" 
d="M317 10v-10h-298v10q62 6 62 84v345q0 82 -62 88v10h474l19 -179h-16q-39 78 -94 119.5t-116 41.5h-35v-237h14q43 0 82 31.5t47 71.5h12v-226h-12q-8 38 -46 71.5t-83 33.5h-14v-170q0 -78 66 -84z" />
    <glyph glyph-name="G.smcp" horiz-adv-x="652" 
d="M380 554q109 0 188 -38l-45 -155l-14 2q-14 77 -57 123.5t-98 46.5q-57 0 -100 -70t-43 -193q0 -269 130 -269q37 0 61 20t24 62v83q0 47 -15 65.5t-45 20.5v9h274v-9q-51 -7 -51 -86v-112q-42 -30 -113.5 -51t-136.5 -21q-128 0 -220 84t-92 203q0 120 93.5 202.5
t259.5 82.5z" />
    <glyph glyph-name="H.smcp" horiz-adv-x="661" 
d="M307 10v-10h-288v10q29 3 45.5 20.5t16.5 63.5v349q0 46 -16.5 63.5t-45.5 20.5v10h288v-10q-16 -2 -27 -7t-20 -23.5t-9 -49.5v-161h159v161q0 31 -9 49.5t-19.5 23.5t-27.5 7v10h288v-10q-29 -3 -45.5 -20.5t-16.5 -63.5v-349q0 -46 16.5 -63.5t45.5 -20.5v-10h-288v10
q17 2 27.5 7t19.5 23.5t9 49.5v174h-159v-174q0 -31 9 -49.5t20 -23.5t27 -7z" />
    <glyph glyph-name="I.smcp" horiz-adv-x="331" 
d="M312 537v-10q-62 -6 -62 -84v-349q0 -78 62 -84v-10h-293v10q62 6 62 84v349q0 78 -62 84v10h293z" />
    <glyph glyph-name="J.smcp" horiz-adv-x="356" 
d="M60 -191q-68 0 -105.5 25.5t-37.5 62.5q0 31 19.5 49t48.5 18q28 0 45.5 -16.5t17.5 -46.5q0 -8 -3 -25.5t-3 -26.5q0 -22 26 -22q20 0 36 18t16 51q0 12 -6 76t-6 110v358q0 81 -68 87v10h299v-10q-60 -6 -60 -87v-429q0 -63 -35 -111t-83.5 -69.5t-100.5 -21.5z" />
    <glyph glyph-name="K.smcp" horiz-adv-x="645" 
d="M313 537v-10q-63 -6 -63 -84v-349q0 -78 68 -84v-10h-299v10q62 6 62 84v349q0 78 -62 84v10h294zM641 0h-229l-134 220v15l118 155q32 42 37.5 73t-8 45.5t-39.5 18.5v10h233v-10q-103 -10 -186 -121l-41 -55l140 -225q34 -57 58 -81.5t51 -34.5v-10z" />
    <glyph glyph-name="L.smcp" horiz-adv-x="553" 
d="M250 441v-423h46q67 0 130 56t95 136h14l-30 -210h-486v10q29 3 45.5 20t16.5 63v348q0 80 -62 86v10h298v-10q-67 -6 -67 -86z" />
    <glyph glyph-name="M.smcp" horiz-adv-x="852" 
d="M566 130l-50 309l-146 -448h-16l-140 449l-40 -206q-22 -110 -4 -165.5t78 -58.5v-10h-240v10q51 3 84.5 53.5t57.5 169.5l31 153q12 60 -10.5 99t-77.5 42v10h261l84 -276l88 276h252v-10q-54 -3 -75 -42t-11 -100l44 -254q21 -114 108 -121v-10h-339v10q80 4 61 120z
" />
    <glyph glyph-name="N.smcp" horiz-adv-x="645" 
d="M532 -9h-33l-360 408l-1 -235q0 -64 29 -107.5t82 -46.5v-10h-242v10q46 2 75 41t30 119l3 199q1 67 -24.5 109t-76.5 49v10h235l260 -294l-1 124q-2 155 -101 160v10h226v-10q-96 -5 -98 -159z" />
    <glyph glyph-name="O.smcp" horiz-adv-x="667" 
d="M330 -17q-124 0 -213.5 82.5t-89.5 200.5q0 120 92 203.5t217 83.5q123 0 213 -82.5t90 -200.5q0 -120 -91.5 -203.5t-217.5 -83.5zM336 2q54 0 86 71t32 194q0 127 -35 197t-88 70q-55 0 -87.5 -71.5t-32.5 -193.5q0 -126 35.5 -196.5t89.5 -70.5z" />
    <glyph glyph-name="P.smcp" horiz-adv-x="566" 
d="M318 10v-10h-299v10q62 6 62 84v353q0 44 -16.5 60.5t-45.5 19.5v10h275q119 0 182 -46t63 -122t-67.5 -126t-183.5 -50h-38v-97q0 -80 68 -86zM250 518v-304h10q55 0 83.5 41t28.5 116q0 73 -27.5 110t-75.5 37h-19z" />
    <glyph glyph-name="Q.smcp" horiz-adv-x="667" 
d="M423 -238q-49 0 -122.5 32.5t-112.5 32.5q-42 0 -64 -22l-10 8q30 59 84 106.5t112 63.5q-113 4 -198 88t-85 195q0 120 92 203.5t217 83.5q123 0 213 -82.5t90 -200.5q0 -105 -71 -181.5t-172 -98.5q-104 -24 -160 -67q56 10 125 -25t112 -35q73 0 100 62l15 -3
q-25 -74 -62.5 -117t-102.5 -43zM454 267q0 127 -35 197t-88 70q-55 0 -87.5 -71.5t-32.5 -193.5q0 -126 35.5 -196.5t89.5 -70.5t86 71t32 194z" />
    <glyph glyph-name="R.smcp" horiz-adv-x="609" 
d="M250 519v-280h22q50 0 77 39t27 107q0 134 -100 134h-26zM307 10v-10h-288v10q62 6 62 87v344q0 80 -62 86v10h295q109 0 169.5 -43.5t60.5 -110.5q0 -43 -26.5 -79t-74.5 -58l79 -151q21 -40 38.5 -59t41.5 -28v-8h-209l-109 218h-34v-121q0 -81 57 -87z" />
    <glyph glyph-name="S.smcp" horiz-adv-x="487" 
d="M72 183q19 -94 61 -139t96 -45q41 0 71 22.5t30 56.5q0 32 -30.5 56t-74 43t-86.5 41t-73.5 61.5t-30.5 93.5q0 80 59.5 130.5t161.5 50.5q114 0 179 -36l-44 -142l-14 2q-13 78 -49.5 118t-91.5 40q-40 0 -64 -18.5t-24 -50.5q0 -35 31.5 -60t76 -43.5t89.5 -39.5
t76.5 -59.5t31.5 -92.5q0 -86 -66.5 -138.5t-166.5 -52.5q-126 0 -199 41l35 162z" />
    <glyph glyph-name="T.smcp" horiz-adv-x="547" 
d="M28 537h492l20 -172h-12l-22 40q-63 114 -126 114h-22v-430q0 -43 18.5 -59.5t49.5 -19.5v-10h-304v10q31 3 49 19.5t18 59.5v430h-20q-34 0 -66 -27t-67 -95l-18 -32h-11z" />
    <glyph glyph-name="U.smcp" horiz-adv-x="616" 
d="M524 342l-2 -120q-3 -240 -221 -240q-109 0 -166.5 55.5t-57.5 157.5v248q0 78 -67 84v10h302v-10q-66 -6 -66 -84v-283q0 -57 32.5 -93.5t88.5 -36.5q62 0 97 50t35 153v116q0 79 -25.5 127.5t-74.5 50.5v10h208v-10q-46 -2 -63.5 -48.5t-19.5 -136.5z" />
    <glyph glyph-name="V.smcp" horiz-adv-x="619" 
d="M335 -8h-60l-169 408q-28 66 -47.5 92t-48.5 36v9h303v-9q-70 -16 -29 -120l98 -243l60 159q26 69 27.5 112.5t-16.5 64t-55 27.5v9h212v-9q-38 -8 -67.5 -47t-75.5 -155z" />
    <glyph glyph-name="W.smcp" horiz-adv-x="908" 
d="M580 -8l-125 327l-127 -327h-52l-166 405q-27 63 -48.5 92.5t-51.5 37.5v10h287v-10q-28 -7 -34.5 -27t9.5 -62l104 -262l67 172l-31 82q-34 84 -73 97v10h273v-10q-31 -7 -35 -26.5t16 -74.5l89 -241l50 139q32 95 16.5 145.5t-69.5 57.5v10h219v-10q-71 -12 -130 -173
l-136 -362h-52z" />
    <glyph glyph-name="X.smcp" horiz-adv-x="612" 
d="M233 10v-10h-223v10q91 17 181 148l53 78l-130 210q-45 70 -87 81v10h291v-10q-57 -10 -22 -71l70 -120l27 38q41 62 37 105.5t-47 47.5v10h212v-10q-88 -19 -173 -144l-45 -66l141 -226q42 -68 84 -81v-10h-288v10q56 10 23 70l-81 136l-39 -58q-35 -52 -30.5 -98.5
t46.5 -49.5z" />
    <glyph glyph-name="Y.smcp" horiz-adv-x="582" 
d="M433 0h-302v10q66 6 66 84v134l-114 216q-21 37 -36.5 56t-36.5 29v8h285v-8q-28 -5 -34 -31t13 -63l86 -169l51 109q24 49 22 82.5t-15.5 50.5t-34.5 21v8h189v-8q-76 -23 -131 -140l-74 -157v-138q0 -78 66 -84v-10z" />
    <glyph glyph-name="Z.smcp" horiz-adv-x="546" 
d="M19 0l-4 11l308 509h-48q-77 0 -137.5 -45t-91.5 -114h-15l36 176h437l5 -11l-309 -509h77q73 0 134.5 57t89.5 133h14l-20 -207h-476z" />
    <glyph glyph-name="Aacute.smcp" horiz-adv-x="619" 
d="M235 607l123 133q22 22 46 22q22 0 38 -16t16 -38q0 -21 -14.5 -37.5t-39.5 -22.5l-158 -41h-11zM238 372l-72 -193h150zM222 9v-9h-212v9q38 8 67.5 47t75.5 155l132 334h60l169 -408q28 -66 47.5 -92t48.5 -36v-9h-303v9q70 16 29 120l-12 29h-164q-18 -75 -2 -107
t64 -42z" />
    <glyph glyph-name="Abreve.smcp" horiz-adv-x="619" 
d="M307 616q-64 0 -105 36t-41 100h16q4 -28 38.5 -43t91.5 -15t92 15t39 43h16q0 -64 -41.5 -100t-105.5 -36zM238 372l-72 -193h150zM222 9v-9h-212v9q38 8 67.5 47t75.5 155l132 334h60l169 -408q28 -66 47.5 -92t48.5 -36v-9h-303v9q70 16 29 120l-12 29h-164
q-18 -75 -2 -107t64 -42z" />
    <glyph glyph-name="Acircumflex.smcp" horiz-adv-x="619" 
d="M454 613l-145 55l-151 -55h-14l116 130h100l112 -130h-18zM238 372l-72 -193h150zM222 9v-9h-212v9q38 8 67.5 47t75.5 155l132 334h60l169 -408q28 -66 47.5 -92t48.5 -36v-9h-303v9q70 16 29 120l-12 29h-164q-18 -75 -2 -107t64 -42z" />
    <glyph glyph-name="Adieresis.smcp" horiz-adv-x="619" 
d="M201 614q-33 0 -57.5 24t-24.5 58q0 32 24.5 56.5t57.5 24.5q34 0 58.5 -24t24.5 -57q0 -34 -24.5 -58t-58.5 -24zM411 614q-34 0 -58 24t-24 58q0 32 24.5 56.5t57.5 24.5q34 0 58.5 -24t24.5 -57q0 -34 -24.5 -58t-58.5 -24zM238 372l-72 -193h150zM222 9v-9h-212v9
q38 8 67.5 47t75.5 155l132 334h60l169 -408q28 -66 47.5 -92t48.5 -36v-9h-303v9q70 16 29 120l-12 29h-164q-18 -75 -2 -107t64 -42z" />
    <glyph glyph-name="AE.smcp" horiz-adv-x="831" 
d="M212 198h152v241l-1 14q-142 -239 -151 -255zM216 10v-10h-212v10q45 7 88 53t109 157l156 260q-17 43 -70 47v10h487l20 -149h-11q-37 53 -101 92t-126 39h-23v-225h25q43 0 82 31t47 71h12v-226h-12q-8 39 -46 72.5t-83 33.5h-25v-258h29q71 0 139 48.5t97 108.5h15
l-26 -175h-490v10q31 3 49 19.5t18 61.5v86h-163q-37 -73 -33 -117t48 -50z" />
    <glyph glyph-name="Agrave.smcp" horiz-adv-x="619" 
d="M371 607h-11l-158 41q-25 6 -39.5 22.5t-14.5 37.5q0 22 16 38t38 16q24 0 46 -22zM238 372l-72 -193h150zM222 9v-9h-212v9q38 8 67.5 47t75.5 155l132 334h60l169 -408q28 -66 47.5 -92t48.5 -36v-9h-303v9q70 16 29 120l-12 29h-164q-18 -75 -2 -107t64 -42z" />
    <glyph glyph-name="Amacron.smcp" horiz-adv-x="619" 
d="M169 682h281v-31h-281v31zM238 372l-72 -193h150zM222 9v-9h-212v9q38 8 67.5 47t75.5 155l132 334h60l169 -408q28 -66 47.5 -92t48.5 -36v-9h-303v9q70 16 29 120l-12 29h-164q-18 -75 -2 -107t64 -42z" />
    <glyph glyph-name="Aogonek.smcp" horiz-adv-x="619" 
d="M555 -193q-35 -52 -97 -52q-48 0 -74 28t-26 69q0 45 31.5 85.5t88.5 62.5h-171v9q70 16 29 120l-12 29h-164q-18 -75 -2 -107t64 -42v-9h-212v9q38 8 67.5 47t75.5 155l132 334h60l169 -408q28 -66 47.5 -92t48.5 -36v-9h-101q-62 -26 -62 -118q0 -85 57 -85q23 0 43 17
zM238 372l-72 -193h150z" />
    <glyph glyph-name="Aring.smcp" horiz-adv-x="619" 
d="M310 709q-32 0 -54.5 -24.5t-22.5 -58.5t22.5 -57.5t54.5 -23.5t55 23.5t23 57.5t-23 58.5t-55 24.5zM238 372l-72 -193h150zM222 9v-9h-212v9q38 8 67.5 47t75.5 155l125 317q-31 10 -50.5 37t-19.5 61q0 43 29.5 74t72.5 31t73 -31t30 -74q0 -32 -17 -57.5t-45 -37.5
l163 -394q28 -66 47.5 -92t48.5 -36v-9h-303v9q70 16 29 120l-12 29h-164q-18 -75 -2 -107t64 -42z" />
    <glyph glyph-name="Atilde.smcp" horiz-adv-x="619" 
d="M471 741q-4 -53 -32.5 -89.5t-70.5 -36.5q-25 0 -72.5 20t-72.5 20q-47 0 -64 -40l-10 2q4 52 33 88.5t71 36.5q25 0 72 -20t72 -20q47 0 64 41zM238 372l-72 -193h150zM222 9v-9h-212v9q38 8 67.5 47t75.5 155l132 334h60l169 -408q28 -66 47.5 -92t48.5 -36v-9h-303v9
q70 16 29 120l-12 29h-164q-18 -75 -2 -107t64 -42z" />
    <glyph glyph-name="Cacute.smcp" horiz-adv-x="567" 
d="M263 608l123 133q22 22 46 22q22 0 38 -15.5t16 -38.5q0 -21 -14.5 -37.5t-39.5 -22.5l-158 -41h-11zM536 153q-27 -82 -87.5 -125.5t-145.5 -43.5q-111 0 -193.5 76t-82.5 199q0 134 93 214.5t242 80.5q107 0 180 -39l-39 -152l-16 2q-11 72 -54 120t-93 48
q-62 0 -100.5 -66t-38.5 -167q0 -105 48 -163t127 -58q101 0 146 79z" />
    <glyph glyph-name="Ccaron.smcp" horiz-adv-x="567" 
d="M190 744l145 -54l151 54h14l-116 -130h-100l-112 130h18zM536 153q-27 -82 -87.5 -125.5t-145.5 -43.5q-111 0 -193.5 76t-82.5 199q0 134 93 214.5t242 80.5q107 0 180 -39l-39 -152l-16 2q-11 72 -54 120t-93 48q-62 0 -100.5 -66t-38.5 -167q0 -105 48 -163t127 -58
q101 0 146 79z" />
    <glyph glyph-name="Ccedilla.smcp" horiz-adv-x="567" 
d="M297 -285q-71 0 -123 37l6 14q42 -27 89 -27q40 0 66 17.5t26 56.5q0 35 -26.5 50t-88.5 8l-3 4l59 107q-111 0 -193 76.5t-82 200.5q0 134 93 214.5t242 80.5q107 0 180 -39l-39 -152l-16 2q-11 72 -54 120t-93 48q-62 0 -100.5 -66t-38.5 -167q0 -106 48 -164.5
t127 -58.5q101 0 146 81l14 -5q-25 -77 -79.5 -120.5t-130.5 -49.5l-30 -55q23 5 42 5q53 0 86 -27t33 -73q0 -50 -43 -84t-117 -34z" />
    <glyph glyph-name="Ccircumflex.smcp" horiz-adv-x="567" 
d="M482 614l-145 55l-151 -55h-14l116 130h100l112 -130h-18zM536 153q-27 -82 -87.5 -125.5t-145.5 -43.5q-111 0 -193.5 76t-82.5 199q0 134 93 214.5t242 80.5q107 0 180 -39l-39 -152l-16 2q-11 72 -54 120t-93 48q-62 0 -100.5 -66t-38.5 -167q0 -105 48 -163t127 -58
q101 0 146 79z" />
    <glyph glyph-name="Cdotaccent.smcp" horiz-adv-x="567" 
d="M334 615q-33 0 -57.5 24t-24.5 58q0 32 24.5 56.5t57.5 24.5q34 0 58.5 -24t24.5 -57q0 -34 -24.5 -58t-58.5 -24zM536 153q-27 -82 -87.5 -125.5t-145.5 -43.5q-111 0 -193.5 76t-82.5 199q0 134 93 214.5t242 80.5q107 0 180 -39l-39 -152l-16 2q-11 72 -54 120t-93 48
q-62 0 -100.5 -66t-38.5 -167q0 -105 48 -163t127 -58q101 0 146 79z" />
    <glyph glyph-name="Dcaron.smcp" horiz-adv-x="649" 
d="M175 743l145 -54l151 54h14l-116 -130h-100l-112 130h18zM19 0v10q62 6 62 85v349q0 45 -16.5 62.5t-45.5 20.5v10h287q139 0 227.5 -79t88.5 -186q0 -119 -94.5 -195.5t-215.5 -76.5h-293zM296 519h-45v-501h34q34 0 59 10.5t47.5 37t34 79t11.5 129.5q0 116 -40 180.5
t-101 64.5z" />
    <glyph glyph-name="Dcroat.smcp" horiz-adv-x="649" 
d="M312 0h-293v10q62 6 62 85v173h-67v19h67v157q0 45 -16.5 62.5t-45.5 20.5v10h287q139 0 227.5 -79t88.5 -186q0 -119 -94.5 -195.5t-215.5 -76.5zM251 18h34q34 0 59 10.5t47.5 37t34 79t11.5 129.5q0 116 -40 180.5t-101 64.5h-45v-232h79v-19h-79v-250z" />
    <glyph glyph-name="Eacute.smcp" horiz-adv-x="548" 
d="M216 607l123 133q22 22 46 22q23 0 38.5 -16t15.5 -38q0 -21 -14.5 -37.5t-39.5 -22.5l-158 -41h-11zM531 175l-26 -175h-486v10q29 3 45.5 19.5t16.5 61.5v348q0 82 -62 88v10h472l23 -149h-13q-39 53 -102.5 92t-126.5 39h-22v-225h26q43 0 82 31t47 71h12v-226h-12
q-8 39 -46 72.5t-83 33.5h-26v-258h29q71 0 140 48.5t98 108.5h14z" />
    <glyph glyph-name="Ebreve.smcp" horiz-adv-x="548" 
d="M288 616q-64 0 -105 36t-41 100h16q4 -28 38.5 -43t91.5 -15t92 15t39 43h16q0 -64 -41.5 -100t-105.5 -36zM531 175l-26 -175h-486v10q29 3 45.5 19.5t16.5 61.5v348q0 82 -62 88v10h472l23 -149h-13q-39 53 -102.5 92t-126.5 39h-22v-225h26q43 0 82 31t47 71h12v-226
h-12q-8 39 -46 72.5t-83 33.5h-26v-258h29q71 0 140 48.5t98 108.5h14z" />
    <glyph glyph-name="Ecaron.smcp" horiz-adv-x="548" 
d="M143 743l145 -54l151 54h14l-116 -130h-100l-112 130h18zM531 175l-26 -175h-486v10q29 3 45.5 19.5t16.5 61.5v348q0 82 -62 88v10h472l23 -149h-13q-39 53 -102.5 92t-126.5 39h-22v-225h26q43 0 82 31t47 71h12v-226h-12q-8 39 -46 72.5t-83 33.5h-26v-258h29
q71 0 140 48.5t98 108.5h14z" />
    <glyph glyph-name="Ecircumflex.smcp" horiz-adv-x="548" 
d="M435 613l-145 55l-151 -55h-14l116 130h100l112 -130h-18zM531 175l-26 -175h-486v10q29 3 45.5 19.5t16.5 61.5v348q0 82 -62 88v10h472l23 -149h-13q-39 53 -102.5 92t-126.5 39h-22v-225h26q43 0 82 31t47 71h12v-226h-12q-8 39 -46 72.5t-83 33.5h-26v-258h29
q71 0 140 48.5t98 108.5h14z" />
    <glyph glyph-name="Edieresis.smcp" horiz-adv-x="548" 
d="M182 614q-33 0 -57.5 24t-24.5 58q0 32 24.5 56.5t57.5 24.5q34 0 58.5 -24t24.5 -57q0 -34 -24.5 -58t-58.5 -24zM392 614q-34 0 -58 24t-24 58q0 32 24 56.5t58 24.5t58.5 -24t24.5 -57q0 -34 -24.5 -58t-58.5 -24zM531 175l-26 -175h-486v10q29 3 45.5 19.5t16.5 61.5
v348q0 82 -62 88v10h472l23 -149h-13q-39 53 -102.5 92t-126.5 39h-22v-225h26q43 0 82 31t47 71h12v-226h-12q-8 39 -46 72.5t-83 33.5h-26v-258h29q71 0 140 48.5t98 108.5h14z" />
    <glyph glyph-name="Edotaccent.smcp" horiz-adv-x="548" 
d="M287 614q-33 0 -57.5 24t-24.5 58q0 32 24.5 56.5t57.5 24.5q34 0 58.5 -24t24.5 -57q0 -34 -24.5 -58t-58.5 -24zM531 175l-26 -175h-486v10q29 3 45.5 19.5t16.5 61.5v348q0 82 -62 88v10h472l23 -149h-13q-39 53 -102.5 92t-126.5 39h-22v-225h26q43 0 82 31t47 71h12
v-226h-12q-8 39 -46 72.5t-83 33.5h-26v-258h29q71 0 140 48.5t98 108.5h14z" />
    <glyph glyph-name="Egrave.smcp" horiz-adv-x="548" 
d="M352 607h-11l-158 41q-25 6 -39.5 22.5t-14.5 37.5q0 22 15.5 38t38.5 16q24 0 46 -22zM531 175l-26 -175h-486v10q29 3 45.5 19.5t16.5 61.5v348q0 82 -62 88v10h472l23 -149h-13q-39 53 -102.5 92t-126.5 39h-22v-225h26q43 0 82 31t47 71h12v-226h-12q-8 39 -46 72.5
t-83 33.5h-26v-258h29q71 0 140 48.5t98 108.5h14z" />
    <glyph glyph-name="Emacron.smcp" horiz-adv-x="548" 
d="M150 682h281v-31h-281v31zM531 175l-26 -175h-486v10q29 3 45.5 19.5t16.5 61.5v348q0 82 -62 88v10h472l23 -149h-13q-39 53 -102.5 92t-126.5 39h-22v-225h26q43 0 82 31t47 71h12v-226h-12q-8 39 -46 72.5t-83 33.5h-26v-258h29q71 0 140 48.5t98 108.5h14z" />
    <glyph glyph-name="Eng.smcp" horiz-adv-x="645" 
d="M394 -199q-58 0 -89 24t-31 59q0 28 18.5 45.5t46.5 17.5q25 0 42.5 -16t17.5 -44q0 -10 -3 -25.5t-3 -21.5q0 -17 24 -17q33 0 60 41t31 118l-368 418l-3 -236q-1 -63 29 -107t83 -47v-10h-242v10q46 2 74 41t30 119l5 199q2 68 -24.5 111.5t-77.5 46.5v10h235l261 -295
l-2 125q-4 155 -101 160v10h226v-10q-96 -5 -98 -159l-3 -349q-1 -106 -37 -162t-101 -56z" />
    <glyph glyph-name="Eogonek.smcp" horiz-adv-x="548" 
d="M477 -193q-35 -52 -97 -52q-48 0 -74 28t-26 69q0 45 31.5 85.5t88.5 62.5h-381v10q29 3 45.5 19.5t16.5 61.5v348q0 82 -62 88v10h472l23 -149h-13q-39 53 -102.5 92t-126.5 39h-22v-225h26q43 0 82 31t47 71h12v-226h-12q-8 39 -46 72.5t-83 33.5h-26v-258h29
q71 0 140 48.5t98 108.5h14l-26 -175h-74q-62 -26 -62 -118q0 -85 57 -85q23 0 43 17z" />
    <glyph glyph-name="Eth.smcp" horiz-adv-x="649" 
d="M312 0h-293v10q62 6 62 85v173h-67v19h67v157q0 45 -16.5 62.5t-45.5 20.5v10h287q139 0 227.5 -79t88.5 -186q0 -119 -94.5 -195.5t-215.5 -76.5zM251 18h34q34 0 59 10.5t47.5 37t34 79t11.5 129.5q0 116 -40 180.5t-101 64.5h-45v-232h79v-19h-79v-250z" />
    <glyph glyph-name="Gbreve.smcp" horiz-adv-x="652" 
d="M347 616q-64 0 -105 36t-41 100h16q4 -28 38.5 -43t91.5 -15t92 15t39 43h16q0 -64 -41.5 -100t-105.5 -36zM380 554q109 0 188 -38l-45 -155l-14 2q-14 77 -57 123.5t-98 46.5q-57 0 -100 -70t-43 -193q0 -269 130 -269q37 0 61 20t24 62v83q0 47 -15 65.5t-45 20.5v9
h274v-9q-51 -7 -51 -86v-112q-42 -30 -113.5 -51t-136.5 -21q-128 0 -220 84t-92 203q0 120 93.5 202.5t259.5 82.5z" />
    <glyph glyph-name="Gcircumflex.smcp" horiz-adv-x="652" 
d="M494 613l-145 55l-151 -55h-14l116 130h100l112 -130h-18zM380 554q109 0 188 -38l-45 -155l-14 2q-14 77 -57 123.5t-98 46.5q-57 0 -100 -70t-43 -193q0 -269 130 -269q37 0 61 20t24 62v83q0 47 -15 65.5t-45 20.5v9h274v-9q-51 -7 -51 -86v-112q-42 -30 -113.5 -51
t-136.5 -21q-128 0 -220 84t-92 203q0 120 93.5 202.5t259.5 82.5z" />
    <glyph glyph-name="Gcommaaccent.smcp" horiz-adv-x="652" 
d="M380 554q109 0 188 -38l-45 -155l-14 2q-14 77 -57 123.5t-98 46.5q-57 0 -100 -70t-43 -193q0 -269 130 -269q37 0 61 20t24 62v83q0 47 -15 65.5t-45 20.5v9h274v-9q-51 -7 -51 -86v-112q-42 -30 -113.5 -51t-136.5 -21q-128 0 -220 84t-92 203q0 120 93.5 202.5
t259.5 82.5zM355 -279q0 11 -5.5 19t-12 11t-20 8.5t-20.5 8.5q-49 24 -49 73q0 35 24 59.5t64 24.5q38 0 61.5 -26t23.5 -71q0 -70 -39.5 -129.5t-103.5 -74.5l-6 15q28 5 55.5 32t27.5 50z" />
    <glyph glyph-name="Gdotaccent.smcp" horiz-adv-x="652" 
d="M346 614q-33 0 -57.5 24t-24.5 58q0 32 24.5 56.5t57.5 24.5q34 0 58.5 -24t24.5 -57q0 -34 -24.5 -58t-58.5 -24zM380 554q109 0 188 -38l-45 -155l-14 2q-14 77 -57 123.5t-98 46.5q-57 0 -100 -70t-43 -193q0 -269 130 -269q37 0 61 20t24 62v83q0 47 -15 65.5
t-45 20.5v9h274v-9q-51 -7 -51 -86v-112q-42 -30 -113.5 -51t-136.5 -21q-128 0 -220 84t-92 203q0 120 93.5 202.5t259.5 82.5z" />
    <glyph glyph-name="Hbar.smcp" horiz-adv-x="662" 
d="M410 286v90h-159v-90h159zM307 10v-10h-288v10q29 3 45.5 20.5t16.5 63.5v282h-75v19h75v48q0 46 -16.5 63.5t-45.5 20.5v10h288v-10q-16 -2 -27 -7t-20 -23.5t-9 -49.5v-52h159v52q0 31 -9 49.5t-19.5 23.5t-27.5 7v10h288v-10q-29 -3 -45.5 -20.5t-16.5 -63.5v-48h75
v-19h-75v-282q0 -46 16.5 -63.5t45.5 -20.5v-10h-288v10q17 2 27.5 7t19.5 23.5t9 49.5v174h-159v-174q0 -31 9 -49.5t20 -23.5t27 -7z" />
    <glyph glyph-name="Hcircumflex.smcp" horiz-adv-x="661" 
d="M476 613l-145 55l-151 -55h-14l116 130h100l112 -130h-18zM307 10v-10h-288v10q29 3 45.5 20.5t16.5 63.5v349q0 46 -16.5 63.5t-45.5 20.5v10h288v-10q-16 -2 -27 -7t-20 -23.5t-9 -49.5v-161h159v161q0 31 -9 49.5t-19.5 23.5t-27.5 7v10h288v-10q-29 -3 -45.5 -20.5
t-16.5 -63.5v-349q0 -46 16.5 -63.5t45.5 -20.5v-10h-288v10q17 2 27.5 7t19.5 23.5t9 49.5v174h-159v-174q0 -31 9 -49.5t20 -23.5t27 -7z" />
    <glyph glyph-name="Iacute.smcp" horiz-adv-x="331" 
d="M98 607l123 133q22 22 46 22q23 0 38.5 -16t15.5 -38q0 -21 -14.5 -37.5t-39.5 -22.5l-158 -41h-11zM312 537v-10q-62 -6 -62 -84v-349q0 -78 62 -84v-10h-293v10q62 6 62 84v349q0 78 -62 84v10h293z" />
    <glyph glyph-name="Ibreve.smcp" horiz-adv-x="331" 
d="M170 616q-64 0 -105 36t-41 100h16q4 -28 38.5 -43t91.5 -15t92 15t39 43h16q0 -64 -41.5 -100t-105.5 -36zM312 537v-10q-62 -6 -62 -84v-349q0 -78 62 -84v-10h-293v10q62 6 62 84v349q0 78 -62 84v10h293z" />
    <glyph glyph-name="Icircumflex.smcp" horiz-adv-x="331" 
d="M317 613l-145 55l-151 -55h-14l116 130h100l112 -130h-18zM312 537v-10q-62 -6 -62 -84v-349q0 -78 62 -84v-10h-293v10q62 6 62 84v349q0 78 -62 84v10h293z" />
    <glyph glyph-name="Idieresis.smcp" horiz-adv-x="331" 
d="M64 614q-33 0 -57.5 24t-24.5 58q0 32 24.5 56.5t57.5 24.5q34 0 58.5 -24t24.5 -57q0 -34 -24.5 -58t-58.5 -24zM274 614q-34 0 -58 24t-24 58q0 32 24 56.5t58 24.5t58.5 -24t24.5 -57q0 -34 -24.5 -58t-58.5 -24zM312 537v-10q-62 -6 -62 -84v-349q0 -78 62 -84v-10
h-293v10q62 6 62 84v349q0 78 -62 84v10h293z" />
    <glyph glyph-name="Idotaccent.smcp" horiz-adv-x="331" 
d="M169 614q-33 0 -57.5 24t-24.5 58q0 32 24.5 56.5t57.5 24.5q34 0 58.5 -24t24.5 -57q0 -34 -24.5 -58t-58.5 -24zM312 537v-10q-62 -6 -62 -84v-349q0 -78 62 -84v-10h-293v10q62 6 62 84v349q0 78 -62 84v10h293z" />
    <glyph glyph-name="Igrave.smcp" horiz-adv-x="331" 
d="M235 607h-11l-158 41q-25 6 -39.5 22.5t-14.5 37.5q0 22 16 38t38 16q24 0 46 -22zM312 537v-10q-62 -6 -62 -84v-349q0 -78 62 -84v-10h-293v10q62 6 62 84v349q0 78 -62 84v10h293z" />
    <glyph glyph-name="IJ.smcp" horiz-adv-x="679" 
d="M312 537v-10q-62 -6 -62 -84v-349q0 -78 62 -84v-10h-293v10q62 6 62 84v349q0 78 -62 84v10h293zM384 -191q-68 0 -105.5 25.5t-37.5 62.5q0 31 19.5 49t48.5 18q28 0 45.5 -16.5t17.5 -46.5q0 -8 -3 -25.5t-3 -26.5q0 -22 26 -22q20 0 36 18t16 51q0 12 -6 76t-6 110
v358q0 81 -68 87v10h299v-10q-60 -6 -60 -87v-429q0 -63 -35 -111t-83.5 -69.5t-100.5 -21.5z" />
    <glyph glyph-name="Imacron.smcp" horiz-adv-x="331" 
d="M32 682h281v-31h-281v31zM312 537v-10q-62 -6 -62 -84v-349q0 -78 62 -84v-10h-293v10q62 6 62 84v349q0 78 -62 84v10h293z" />
    <glyph glyph-name="Iogonek.smcp" horiz-adv-x="331" 
d="M270 -193q-35 -52 -97 -52q-48 0 -74 28t-26 69q0 45 31.5 85.5t88.5 62.5h-174v10q62 6 62 84v349q0 78 -62 84v10h293v-10q-62 -6 -62 -84v-349q0 -78 62 -84v-10h-88q-62 -26 -62 -118q0 -85 57 -85q23 0 43 17z" />
    <glyph glyph-name="Itilde.smcp" horiz-adv-x="331" 
d="M334 741q-4 -53 -32.5 -89.5t-70.5 -36.5q-25 0 -72.5 20t-72.5 20q-47 0 -64 -40l-10 2q4 52 33 88.5t71 36.5q25 0 72 -20t72 -20q47 0 64 41zM312 537v-10q-62 -6 -62 -84v-349q0 -78 62 -84v-10h-293v10q62 6 62 84v349q0 78 -62 84v10h293z" />
    <glyph glyph-name="Jcircumflex.smcp" horiz-adv-x="356" 
d="M338 613l-145 55l-151 -55h-14l116 130h100l112 -130h-18zM60 -191q-68 0 -105.5 25.5t-37.5 62.5q0 31 19.5 49t48.5 18q28 0 45.5 -16.5t17.5 -46.5q0 -8 -3 -25.5t-3 -26.5q0 -22 26 -22q20 0 36 18t16 51q0 12 -6 76t-6 110v358q0 81 -68 87v10h299v-10
q-60 -6 -60 -87v-429q0 -63 -35 -111t-83.5 -69.5t-100.5 -21.5z" />
    <glyph glyph-name="Kcommaaccent.smcp" horiz-adv-x="645" 
d="M313 537v-10q-63 -6 -63 -84v-349q0 -78 68 -84v-10h-299v10q62 6 62 84v349q0 78 -62 84v10h294zM641 0h-229l-134 220v15l118 155q32 42 37.5 73t-8 45.5t-39.5 18.5v10h233v-10q-103 -10 -186 -121l-41 -55l140 -225q34 -57 58 -81.5t51 -34.5v-10zM357 -279
q0 11 -5.5 19t-12 11t-20 8.5t-20.5 8.5q-49 24 -49 73q0 35 24 59.5t64 24.5q38 0 61.5 -26t23.5 -71q0 -70 -39.5 -129.5t-103.5 -74.5l-6 15q28 5 55.5 32t27.5 50z" />
    <glyph glyph-name="Lacute.smcp" horiz-adv-x="553" 
d="M101 607l123 133q22 22 46 22q22 0 38 -16t16 -38q0 -21 -14.5 -37.5t-39.5 -22.5l-158 -41h-11zM250 441v-423h46q67 0 130 56t95 136h14l-30 -210h-486v10q29 3 45.5 20t16.5 63v348q0 80 -62 86v10h298v-10q-67 -6 -67 -86z" />
    <glyph glyph-name="Lcaron.smcp" horiz-adv-x="553" 
d="M389 291h-9l-3 200q-1 36 16.5 54t43.5 18q23 0 40 -16t17 -43q0 -22 -15 -52zM250 441v-423h46q67 0 130 56t95 136h14l-30 -210h-486v10q29 3 45.5 20t16.5 63v348q0 80 -62 86v10h298v-10q-67 -6 -67 -86z" />
    <glyph glyph-name="Lcommaaccent.smcp" horiz-adv-x="553" 
d="M250 441v-423h46q67 0 130 56t95 136h14l-30 -210h-486v10q29 3 45.5 20t16.5 63v348q0 80 -62 86v10h298v-10q-67 -6 -67 -86zM312 -279q0 11 -5.5 19t-12 11t-20 8.5t-20.5 8.5q-49 24 -49 73q0 35 24 59.5t64 24.5q38 0 61.5 -26t23.5 -71q0 -70 -39.5 -129.5
t-103.5 -74.5l-6 15q28 5 55.5 32t27.5 50z" />
    <glyph glyph-name="Ldot.smcp" horiz-adv-x="553" 
d="M250 441v-423h46q67 0 130 56t95 136h14l-30 -210h-486v10q29 3 45.5 20t16.5 63v348q0 80 -62 86v10h298v-10q-67 -6 -67 -86zM337 311q0 32 24.5 56.5t57.5 24.5q34 0 58.5 -24t24.5 -57q0 -34 -24.5 -58t-58.5 -24q-33 0 -57.5 24t-24.5 58z" />
    <glyph glyph-name="Lslash.smcp" horiz-adv-x="550" 
d="M505 0h-486v10q29 3 45.5 20t16.5 63v39l-79 -53v23l79 53v286q0 80 -62 86v10h298v-10q-67 -6 -67 -86v-172l149 100v-25l-149 -99v-227h46q67 0 130 56t95 136h14z" />
    <glyph glyph-name="Nacute.smcp" horiz-adv-x="645" 
d="M259 607l123 133q22 22 46 22q22 0 38 -16t16 -38q0 -21 -14.5 -37.5t-39.5 -22.5l-158 -41h-11zM532 -9h-33l-360 408l-1 -235q0 -64 29 -107.5t82 -46.5v-10h-242v10q46 2 75 41t30 119l3 199q1 67 -24.5 109t-76.5 49v10h235l260 -294l-1 124q-2 155 -101 160v10h226
v-10q-96 -5 -98 -159z" />
    <glyph glyph-name="Ncaron.smcp" horiz-adv-x="645" 
d="M186 743l145 -54l151 54h14l-116 -130h-100l-112 130h18zM532 -9h-33l-360 408l-1 -235q0 -64 29 -107.5t82 -46.5v-10h-242v10q46 2 75 41t30 119l3 199q1 67 -24.5 109t-76.5 49v10h235l260 -294l-1 124q-2 155 -101 160v10h226v-10q-96 -5 -98 -159z" />
    <glyph glyph-name="Ncommaaccent.smcp" horiz-adv-x="645" 
d="M532 -9h-33l-360 408l-1 -235q0 -64 29 -107.5t82 -46.5v-10h-242v10q46 2 75 41t30 119l3 199q1 67 -24.5 109t-76.5 49v10h235l260 -294l-1 124q-2 155 -101 160v10h226v-10q-96 -5 -98 -159zM334 -279q0 11 -5.5 19t-12 11t-20 8.5t-20.5 8.5q-49 24 -49 73
q0 35 24 59.5t64 24.5q38 0 61.5 -26t23.5 -71q0 -70 -39.5 -129.5t-103.5 -74.5l-6 15q28 5 55.5 32t27.5 50z" />
    <glyph glyph-name="Ntilde.smcp" horiz-adv-x="645" 
d="M495 741q-4 -53 -32.5 -89.5t-70.5 -36.5q-25 0 -72.5 20t-72.5 20q-47 0 -64 -40l-10 2q4 52 33 88.5t71 36.5q25 0 72 -20t72 -20q47 0 64 41zM532 -9h-33l-360 408l-1 -235q0 -64 29 -107.5t82 -46.5v-10h-242v10q46 2 75 41t30 119l3 199q1 67 -24.5 109t-76.5 49v10
h235l260 -294l-1 124q-2 155 -101 160v10h226v-10q-96 -5 -98 -159z" />
    <glyph glyph-name="Oacute.smcp" horiz-adv-x="667" 
d="M262 607l123 133q22 22 46 22q23 0 38.5 -16t15.5 -38q0 -21 -14.5 -37.5t-39.5 -22.5l-158 -41h-11zM330 -17q-124 0 -213.5 82.5t-89.5 200.5q0 120 92 203.5t217 83.5q123 0 213 -82.5t90 -200.5q0 -120 -91.5 -203.5t-217.5 -83.5zM336 2q54 0 86 71t32 194
q0 127 -35 197t-88 70q-55 0 -87.5 -71.5t-32.5 -193.5q0 -126 35.5 -196.5t89.5 -70.5z" />
    <glyph glyph-name="Obreve.smcp" horiz-adv-x="667" 
d="M334 616q-64 0 -105 36t-41 100h16q4 -28 38.5 -43t91.5 -15t92 15t39 43h16q0 -64 -41.5 -100t-105.5 -36zM330 -17q-124 0 -213.5 82.5t-89.5 200.5q0 120 92 203.5t217 83.5q123 0 213 -82.5t90 -200.5q0 -120 -91.5 -203.5t-217.5 -83.5zM336 2q54 0 86 71t32 194
q0 127 -35 197t-88 70q-55 0 -87.5 -71.5t-32.5 -193.5q0 -126 35.5 -196.5t89.5 -70.5z" />
    <glyph glyph-name="Ocircumflex.smcp" horiz-adv-x="667" 
d="M481 613l-145 55l-151 -55h-14l116 130h100l112 -130h-18zM330 -17q-124 0 -213.5 82.5t-89.5 200.5q0 120 92 203.5t217 83.5q123 0 213 -82.5t90 -200.5q0 -120 -91.5 -203.5t-217.5 -83.5zM336 2q54 0 86 71t32 194q0 127 -35 197t-88 70q-55 0 -87.5 -71.5
t-32.5 -193.5q0 -126 35.5 -196.5t89.5 -70.5z" />
    <glyph glyph-name="Odieresis.smcp" horiz-adv-x="667" 
d="M228 614q-33 0 -57.5 24t-24.5 58q0 32 24.5 56.5t57.5 24.5q34 0 58.5 -24t24.5 -57q0 -34 -24.5 -58t-58.5 -24zM438 614q-34 0 -58 24t-24 58q0 32 24 56.5t58 24.5t58.5 -24t24.5 -57q0 -34 -24.5 -58t-58.5 -24zM330 -17q-124 0 -213.5 82.5t-89.5 200.5
q0 120 92 203.5t217 83.5q123 0 213 -82.5t90 -200.5q0 -120 -91.5 -203.5t-217.5 -83.5zM336 2q54 0 86 71t32 194q0 127 -35 197t-88 70q-55 0 -87.5 -71.5t-32.5 -193.5q0 -126 35.5 -196.5t89.5 -70.5z" />
    <glyph glyph-name="OE.smcp" horiz-adv-x="903" 
d="M339 8q37 0 67 30t30 97v260q0 42 -11 70.5t-29 40.5t-32.5 16.5t-29.5 4.5q-57 0 -90 -63t-33 -197q0 -129 37.5 -194t90.5 -65zM860 0h-457q-40 -10 -78 -10q-129 0 -213.5 81.5t-84.5 195.5t85.5 195.5t217.5 81.5q28 0 61 -7h456l20 -149h-11q-37 53 -101 92t-126 39
h-24v-225h26q43 0 82 31.5t47 70.5h12v-226h-12q-7 38 -45.5 72t-83.5 34h-26v-258h30q70 0 138.5 48.5t97.5 108.5h15z" />
    <glyph glyph-name="Ograve.smcp" horiz-adv-x="667" 
d="M398 607h-11l-158 41q-25 6 -39.5 22.5t-14.5 37.5q0 22 15.5 38t38.5 16q24 0 46 -22zM330 -17q-124 0 -213.5 82.5t-89.5 200.5q0 120 92 203.5t217 83.5q123 0 213 -82.5t90 -200.5q0 -120 -91.5 -203.5t-217.5 -83.5zM336 2q54 0 86 71t32 194q0 127 -35 197t-88 70
q-55 0 -87.5 -71.5t-32.5 -193.5q0 -126 35.5 -196.5t89.5 -70.5z" />
    <glyph glyph-name="Ohungarumlaut.smcp" horiz-adv-x="667" 
d="M385 612l70 111q19 33 52 33q19 0 31 -12t12 -30q0 -37 -49 -57l-106 -45h-10zM215 612l69 111q21 33 53 33q18 0 30.5 -12.5t12.5 -29.5q0 -36 -49 -57l-106 -45h-10zM330 -17q-124 0 -213.5 82.5t-89.5 200.5q0 120 92 203.5t217 83.5q123 0 213 -82.5t90 -200.5
q0 -120 -91.5 -203.5t-217.5 -83.5zM336 2q54 0 86 71t32 194q0 127 -35 197t-88 70q-55 0 -87.5 -71.5t-32.5 -193.5q0 -126 35.5 -196.5t89.5 -70.5z" />
    <glyph glyph-name="Omacron.smcp" horiz-adv-x="667" 
d="M196 682h281v-31h-281v31zM330 -17q-124 0 -213.5 82.5t-89.5 200.5q0 120 92 203.5t217 83.5q123 0 213 -82.5t90 -200.5q0 -120 -91.5 -203.5t-217.5 -83.5zM336 2q54 0 86 71t32 194q0 127 -35 197t-88 70q-55 0 -87.5 -71.5t-32.5 -193.5q0 -126 35.5 -196.5
t89.5 -70.5z" />
    <glyph glyph-name="Oslash.smcp" horiz-adv-x="666" 
d="M330 -17q-99 0 -181 56l-39 -44h-29l50 58q-104 84 -104 213q0 120 92 203.5t217 83.5q99 0 181 -56l39 45h30l-51 -59q104 -86 104 -213q0 -120 -91.5 -203.5t-217.5 -83.5zM211 269q0 -65 9 -113l219 251q-15 62 -43.5 94.5t-64.5 32.5q-55 0 -87.5 -71.5t-32.5 -193.5
zM336 2q54 0 86 71t32 194q0 63 -9 113l-219 -251q16 -61 45 -94t65 -33z" />
    <glyph glyph-name="Otilde.smcp" horiz-adv-x="667" 
d="M498 741q-4 -53 -32.5 -89.5t-70.5 -36.5q-25 0 -72.5 20t-72.5 20q-47 0 -64 -40l-10 2q4 52 33 88.5t71 36.5q25 0 72 -20t72 -20q47 0 64 41zM330 -17q-124 0 -213.5 82.5t-89.5 200.5q0 120 92 203.5t217 83.5q123 0 213 -82.5t90 -200.5q0 -120 -91.5 -203.5
t-217.5 -83.5zM336 2q54 0 86 71t32 194q0 127 -35 197t-88 70q-55 0 -87.5 -71.5t-32.5 -193.5q0 -126 35.5 -196.5t89.5 -70.5z" />
    <glyph glyph-name="Racute.smcp" horiz-adv-x="609" 
d="M230 607l123 133q22 22 46 22q23 0 38.5 -16t15.5 -38q0 -21 -14.5 -37.5t-39.5 -22.5l-158 -41h-11zM250 519v-280h22q50 0 77 39t27 107q0 134 -100 134h-26zM307 10v-10h-288v10q62 6 62 87v344q0 80 -62 86v10h295q109 0 169.5 -43.5t60.5 -110.5q0 -43 -26.5 -79
t-74.5 -58l79 -151q21 -40 38.5 -59t41.5 -28v-8h-209l-109 218h-34v-121q0 -81 57 -87z" />
    <glyph glyph-name="Rcaron.smcp" horiz-adv-x="609" 
d="M157 743l145 -54l151 54h14l-116 -130h-100l-112 130h18zM250 519v-280h22q50 0 77 39t27 107q0 134 -100 134h-26zM307 10v-10h-288v10q62 6 62 87v344q0 80 -62 86v10h295q109 0 169.5 -43.5t60.5 -110.5q0 -43 -26.5 -79t-74.5 -58l79 -151q21 -40 38.5 -59t41.5 -28
v-8h-209l-109 218h-34v-121q0 -81 57 -87z" />
    <glyph glyph-name="Rcommaaccent.smcp" horiz-adv-x="609" 
d="M250 519v-280h22q50 0 77 39t27 107q0 134 -100 134h-26zM307 10v-10h-288v10q62 6 62 87v344q0 80 -62 86v10h295q109 0 169.5 -43.5t60.5 -110.5q0 -43 -26.5 -79t-74.5 -58l79 -151q21 -40 38.5 -59t41.5 -28v-8h-209l-109 218h-34v-121q0 -81 57 -87zM345 -279
q0 11 -5.5 19t-12 11t-20 8.5t-20.5 8.5q-49 24 -49 73q0 35 24 59.5t64 24.5q38 0 61.5 -26t23.5 -71q0 -70 -39.5 -129.5t-103.5 -74.5l-6 15q28 5 55.5 32t27.5 50z" />
    <glyph glyph-name="Sacute.smcp" horiz-adv-x="487" 
d="M171 607l123 133q22 22 46 22q22 0 38 -16t16 -38q0 -21 -14.5 -37.5t-39.5 -22.5l-158 -41h-11zM72 183q19 -94 61 -139t96 -45q41 0 71 22.5t30 56.5q0 32 -30.5 56t-74 43t-86.5 41t-73.5 61.5t-30.5 93.5q0 80 59.5 130.5t161.5 50.5q114 0 179 -36l-44 -142l-14 2
q-13 78 -49.5 118t-91.5 40q-40 0 -64 -18.5t-24 -50.5q0 -35 31.5 -60t76 -43.5t89.5 -39.5t76.5 -59.5t31.5 -92.5q0 -86 -66.5 -138.5t-166.5 -52.5q-126 0 -199 41l35 162z" />
    <glyph glyph-name="Scaron.smcp" horiz-adv-x="487" 
d="M98 743l145 -54l151 54h14l-116 -130h-100l-112 130h18zM72 183q19 -94 61 -139t96 -45q41 0 71 22.5t30 56.5q0 32 -30.5 56t-74 43t-86.5 41t-73.5 61.5t-30.5 93.5q0 80 59.5 130.5t161.5 50.5q114 0 179 -36l-44 -142l-14 2q-13 78 -49.5 118t-91.5 40
q-40 0 -64 -18.5t-24 -50.5q0 -35 31.5 -60t76 -43.5t89.5 -39.5t76.5 -59.5t31.5 -92.5q0 -86 -66.5 -138.5t-166.5 -52.5q-126 0 -199 41l35 162z" />
    <glyph glyph-name="Scedilla.smcp" horiz-adv-x="487" 
d="M207 -280q-71 0 -123 37l6 14q42 -27 89 -27q40 0 66 17.5t26 56.5q0 35 -26.5 50t-88.5 8l-3 4l56 101q-121 3 -188 41l35 162l16 -1q19 -94 61 -139t96 -45q41 0 71 22.5t30 56.5q0 32 -30.5 56t-74 43t-86.5 41t-73.5 61.5t-30.5 93.5q0 80 59.5 130.5t161.5 50.5
q114 0 179 -36l-44 -142l-14 2q-13 78 -49.5 118t-91.5 40q-40 0 -64 -18.5t-24 -50.5q0 -35 31.5 -60t76 -43.5t89.5 -39.5t76.5 -59.5t31.5 -92.5q0 -83 -63 -135t-158 -56l-26 -48q23 5 42 5q53 0 86 -27t33 -73q0 -50 -43 -84t-117 -34z" />
    <glyph glyph-name="Scircumflex.smcp" horiz-adv-x="487" 
d="M390 613l-145 55l-151 -55h-14l116 130h100l112 -130h-18zM72 183q19 -94 61 -139t96 -45q41 0 71 22.5t30 56.5q0 32 -30.5 56t-74 43t-86.5 41t-73.5 61.5t-30.5 93.5q0 80 59.5 130.5t161.5 50.5q114 0 179 -36l-44 -142l-14 2q-13 78 -49.5 118t-91.5 40
q-40 0 -64 -18.5t-24 -50.5q0 -35 31.5 -60t76 -43.5t89.5 -39.5t76.5 -59.5t31.5 -92.5q0 -86 -66.5 -138.5t-166.5 -52.5q-126 0 -199 41l35 162z" />
    <glyph glyph-name="Scommaaccent.smcp" horiz-adv-x="487" 
d="M72 183q19 -94 61 -139t96 -45q41 0 71 22.5t30 56.5q0 32 -30.5 56t-74 43t-86.5 41t-73.5 61.5t-30.5 93.5q0 80 59.5 130.5t161.5 50.5q114 0 179 -36l-44 -142l-14 2q-13 78 -49.5 118t-91.5 40q-40 0 -64 -18.5t-24 -50.5q0 -35 31.5 -60t76 -43.5t89.5 -39.5
t76.5 -59.5t31.5 -92.5q0 -86 -66.5 -138.5t-166.5 -52.5q-126 0 -199 41l35 162zM250 -279q0 11 -5.5 19t-12 11t-20 8.5t-20.5 8.5q-49 24 -49 73q0 35 24 59.5t64 24.5q38 0 61.5 -26t23.5 -71q0 -70 -39.5 -129.5t-103.5 -74.5l-6 15q28 5 55.5 32t27.5 50z" />
    <glyph glyph-name="Tbar.smcp" horiz-adv-x="547" 
d="M426 10v-10h-304v10q31 3 49 19.5t18 59.5v189h-126v19h126v222h-20q-34 0 -66 -27t-67 -95l-18 -32h-11l21 172h492l20 -172h-12l-22 40q-63 114 -126 114h-22v-222h128v-19h-128v-189q0 -43 18.5 -59.5t49.5 -19.5z" />
    <glyph glyph-name="Tcaron.smcp" horiz-adv-x="547" 
d="M128 747l145 -54l151 54h14l-116 -130h-100l-112 130h18zM28 537h492l20 -172h-12l-22 40q-63 114 -126 114h-22v-430q0 -43 18.5 -59.5t49.5 -19.5v-10h-304v10q31 3 49 19.5t18 59.5v430h-20q-34 0 -66 -27t-67 -95l-18 -32h-11z" />
    <glyph glyph-name="Tcommaaccent.smcp" horiz-adv-x="547" 
d="M28 537h492l20 -172h-12l-22 40q-63 114 -126 114h-22v-430q0 -43 18.5 -59.5t49.5 -19.5v-10h-304v10q31 3 49 19.5t18 59.5v430h-20q-34 0 -66 -27t-67 -95l-18 -32h-11zM288 -274q0 11 -5.5 19t-12 11t-20 8.5t-20.5 8.5q-49 25 -49 73q0 35 24 59.5t64 24.5
q38 0 61.5 -26t23.5 -71q0 -70 -39.5 -129.5t-103.5 -74.5l-6 15q28 5 55.5 32t27.5 50z" />
    <glyph glyph-name="Thorn.smcp" horiz-adv-x="559" 
d="M318 10v-10h-299v10q62 6 62 84v348q0 79 -62 85v10h299v-10q-68 -6 -68 -84v-4h55q110 0 170.5 -44t60.5 -113q0 -73 -67.5 -122t-177.5 -49h-41v-17q0 -78 68 -84zM265 420h-15v-287h12q51 0 78 40t27 109q0 138 -102 138z" />
    <glyph glyph-name="Uacute.smcp" horiz-adv-x="616" 
d="M276 607l123 133q22 22 46 22q23 0 38.5 -16t15.5 -38q0 -21 -14.5 -37.5t-39.5 -22.5l-158 -41h-11zM524 342l-2 -120q-3 -240 -221 -240q-109 0 -166.5 55.5t-57.5 157.5v248q0 78 -67 84v10h302v-10q-66 -6 -66 -84v-283q0 -57 32.5 -93.5t88.5 -36.5q62 0 97 50
t35 153v116q0 79 -25.5 127.5t-74.5 50.5v10h208v-10q-46 -2 -63.5 -48.5t-19.5 -136.5z" />
    <glyph glyph-name="Ubreve.smcp" horiz-adv-x="616" 
d="M348 616q-64 0 -105 36t-41 100h16q4 -28 38.5 -43t91.5 -15t92 15t39 43h16q0 -64 -41.5 -100t-105.5 -36zM524 342l-2 -120q-3 -240 -221 -240q-109 0 -166.5 55.5t-57.5 157.5v248q0 78 -67 84v10h302v-10q-66 -6 -66 -84v-283q0 -57 32.5 -93.5t88.5 -36.5
q62 0 97 50t35 153v116q0 79 -25.5 127.5t-74.5 50.5v10h208v-10q-46 -2 -63.5 -48.5t-19.5 -136.5z" />
    <glyph glyph-name="Ucircumflex.smcp" horiz-adv-x="616" 
d="M495 613l-145 55l-151 -55h-14l116 130h100l112 -130h-18zM524 342l-2 -120q-3 -240 -221 -240q-109 0 -166.5 55.5t-57.5 157.5v248q0 78 -67 84v10h302v-10q-66 -6 -66 -84v-283q0 -57 32.5 -93.5t88.5 -36.5q62 0 97 50t35 153v116q0 79 -25.5 127.5t-74.5 50.5v10
h208v-10q-46 -2 -63.5 -48.5t-19.5 -136.5z" />
    <glyph glyph-name="Udieresis.smcp" horiz-adv-x="616" 
d="M242 614q-33 0 -57.5 24t-24.5 58q0 32 24.5 56.5t57.5 24.5q34 0 58.5 -24t24.5 -57q0 -34 -24.5 -58t-58.5 -24zM452 614q-34 0 -58 24t-24 58q0 32 24 56.5t58 24.5t58.5 -24t24.5 -57q0 -34 -24.5 -58t-58.5 -24zM524 342l-2 -120q-3 -240 -221 -240
q-109 0 -166.5 55.5t-57.5 157.5v248q0 78 -67 84v10h302v-10q-66 -6 -66 -84v-283q0 -57 32.5 -93.5t88.5 -36.5q62 0 97 50t35 153v116q0 79 -25.5 127.5t-74.5 50.5v10h208v-10q-46 -2 -63.5 -48.5t-19.5 -136.5z" />
    <glyph glyph-name="Ugrave.smcp" horiz-adv-x="616" 
d="M413 607h-11l-158 41q-25 6 -39.5 22.5t-14.5 37.5q0 22 16 38t38 16q24 0 46 -22zM524 342l-2 -120q-3 -240 -221 -240q-109 0 -166.5 55.5t-57.5 157.5v248q0 78 -67 84v10h302v-10q-66 -6 -66 -84v-283q0 -57 32.5 -93.5t88.5 -36.5q62 0 97 50t35 153v116
q0 79 -25.5 127.5t-74.5 50.5v10h208v-10q-46 -2 -63.5 -48.5t-19.5 -136.5z" />
    <glyph glyph-name="Uhungarumlaut.smcp" horiz-adv-x="616" 
d="M391 612l70 111q19 33 52 33q19 0 31 -12t12 -30q0 -37 -49 -57l-106 -45h-10zM221 612l69 111q21 33 53 33q18 0 30.5 -12.5t12.5 -29.5q0 -36 -49 -57l-106 -45h-10zM524 342l-2 -120q-3 -240 -221 -240q-109 0 -166.5 55.5t-57.5 157.5v248q0 78 -67 84v10h302v-10
q-66 -6 -66 -84v-283q0 -57 32.5 -93.5t88.5 -36.5q62 0 97 50t35 153v116q0 79 -25.5 127.5t-74.5 50.5v10h208v-10q-46 -2 -63.5 -48.5t-19.5 -136.5z" />
    <glyph glyph-name="Umacron.smcp" horiz-adv-x="616" 
d="M210 682h281v-31h-281v31zM524 342l-2 -120q-3 -240 -221 -240q-109 0 -166.5 55.5t-57.5 157.5v248q0 78 -67 84v10h302v-10q-66 -6 -66 -84v-283q0 -57 32.5 -93.5t88.5 -36.5q62 0 97 50t35 153v116q0 79 -25.5 127.5t-74.5 50.5v10h208v-10q-46 -2 -63.5 -48.5
t-19.5 -136.5z" />
    <glyph glyph-name="Uogonek.smcp" horiz-adv-x="616" 
d="M352 -245q-48 0 -74 28t-26 69q0 81 86 132q-24 -2 -37 -2q-109 0 -166.5 55.5t-57.5 157.5v248q0 78 -67 84v10h302v-10q-66 -6 -66 -84v-283q0 -57 32.5 -93.5t88.5 -36.5q62 0 97 50t35 153v116q0 79 -25.5 127.5t-74.5 50.5v10h208v-10q-46 -2 -63.5 -48.5
t-19.5 -136.5l-2 -120q-1 -178 -124 -225q-57 -27 -57 -115q0 -85 57 -85q23 0 43 17l8 -7q-35 -52 -97 -52z" />
    <glyph glyph-name="Uring.smcp" horiz-adv-x="616" 
d="M347 809q43 0 73 -31t30 -74t-30 -73t-73 -30t-72.5 30t-29.5 73t29.5 74t72.5 31zM347 787q-32 0 -54.5 -24.5t-22.5 -58.5t22.5 -57.5t54.5 -23.5t55 23.5t23 57.5t-23 58.5t-55 24.5zM524 342l-2 -120q-3 -240 -221 -240q-109 0 -166.5 55.5t-57.5 157.5v248
q0 78 -67 84v10h302v-10q-66 -6 -66 -84v-283q0 -57 32.5 -93.5t88.5 -36.5q62 0 97 50t35 153v116q0 79 -25.5 127.5t-74.5 50.5v10h208v-10q-46 -2 -63.5 -48.5t-19.5 -136.5z" />
    <glyph glyph-name="Utilde.smcp" horiz-adv-x="616" 
d="M512 741q-4 -53 -32.5 -89.5t-70.5 -36.5q-25 0 -72.5 20t-72.5 20q-47 0 -64 -40l-10 2q4 52 33 88.5t71 36.5q25 0 72 -20t72 -20q47 0 64 41zM524 342l-2 -120q-3 -240 -221 -240q-109 0 -166.5 55.5t-57.5 157.5v248q0 78 -67 84v10h302v-10q-66 -6 -66 -84v-283
q0 -57 32.5 -93.5t88.5 -36.5q62 0 97 50t35 153v116q0 79 -25.5 127.5t-74.5 50.5v10h208v-10q-46 -2 -63.5 -48.5t-19.5 -136.5z" />
    <glyph glyph-name="Wacute.smcp" horiz-adv-x="908" 
d="M397 607l123 133q22 22 46 22q22 0 38 -16t16 -38q0 -21 -14.5 -37.5t-39.5 -22.5l-158 -41h-11zM580 -8l-125 327l-127 -327h-52l-166 405q-27 63 -48.5 92.5t-51.5 37.5v10h287v-10q-28 -7 -34.5 -27t9.5 -62l104 -262l67 172l-31 82q-34 84 -73 97v10h273v-10
q-31 -7 -35 -26.5t16 -74.5l89 -241l50 139q32 95 16.5 145.5t-69.5 57.5v10h219v-10q-71 -12 -130 -173l-136 -362h-52z" />
    <glyph glyph-name="Wdieresis.smcp" horiz-adv-x="908" 
d="M362 614q-33 0 -57.5 24t-24.5 58q0 32 24.5 56.5t57.5 24.5q34 0 58.5 -24t24.5 -57q0 -34 -24.5 -58t-58.5 -24zM572 614q-34 0 -58 24t-24 58q0 32 24 56.5t58 24.5t58.5 -24t24.5 -57q0 -34 -24.5 -58t-58.5 -24zM580 -8l-125 327l-127 -327h-52l-166 405
q-27 63 -48.5 92.5t-51.5 37.5v10h287v-10q-28 -7 -34.5 -27t9.5 -62l104 -262l67 172l-31 82q-34 84 -73 97v10h273v-10q-31 -7 -35 -26.5t16 -74.5l89 -241l50 139q32 95 16.5 145.5t-69.5 57.5v10h219v-10q-71 -12 -130 -173l-136 -362h-52z" />
    <glyph glyph-name="Wgrave.smcp" horiz-adv-x="908" 
d="M533 607h-11l-158 41q-25 6 -39.5 22.5t-14.5 37.5q0 22 16 38t38 16q24 0 46 -22zM580 -8l-125 327l-127 -327h-52l-166 405q-27 63 -48.5 92.5t-51.5 37.5v10h287v-10q-28 -7 -34.5 -27t9.5 -62l104 -262l67 172l-31 82q-34 84 -73 97v10h273v-10q-31 -7 -35 -26.5
t16 -74.5l89 -241l50 139q32 95 16.5 145.5t-69.5 57.5v10h219v-10q-71 -12 -130 -173l-136 -362h-52z" />
    <glyph glyph-name="Wcircumflex.smcp" horiz-adv-x="908" 
d="M615 613l-145 55l-151 -55h-14l116 130h100l112 -130h-18zM580 -8l-125 327l-127 -327h-52l-166 405q-27 63 -48.5 92.5t-51.5 37.5v10h287v-10q-28 -7 -34.5 -27t9.5 -62l104 -262l67 172l-31 82q-34 84 -73 97v10h273v-10q-31 -7 -35 -26.5t16 -74.5l89 -241l50 139
q32 95 16.5 145.5t-69.5 57.5v10h219v-10q-71 -12 -130 -173l-136 -362h-52z" />
    <glyph glyph-name="Yacute.smcp" horiz-adv-x="582" 
d="M236 607l123 133q22 22 46 22q23 0 38.5 -16t15.5 -38q0 -21 -14.5 -37.5t-39.5 -22.5l-158 -41h-11zM433 0h-302v10q66 6 66 84v134l-114 216q-21 37 -36.5 56t-36.5 29v8h285v-8q-28 -5 -34 -31t13 -63l86 -169l51 109q24 49 22 82.5t-15.5 50.5t-34.5 21v8h189v-8
q-76 -23 -131 -140l-74 -157v-138q0 -78 66 -84v-10z" />
    <glyph glyph-name="Ycircumflex.smcp" horiz-adv-x="582" 
d="M454 613l-145 55l-151 -55h-14l116 130h100l112 -130h-18zM433 0h-302v10q66 6 66 84v134l-114 216q-21 37 -36.5 56t-36.5 29v8h285v-8q-28 -5 -34 -31t13 -63l86 -169l51 109q24 49 22 82.5t-15.5 50.5t-34.5 21v8h189v-8q-76 -23 -131 -140l-74 -157v-138
q0 -78 66 -84v-10z" />
    <glyph glyph-name="Ydieresis.smcp" horiz-adv-x="582" 
d="M201 614q-33 0 -57.5 24t-24.5 58q0 32 24.5 56.5t57.5 24.5q34 0 58.5 -24t24.5 -57q0 -34 -24.5 -58t-58.5 -24zM411 614q-34 0 -58 24t-24 58q0 32 24.5 56.5t57.5 24.5q34 0 58.5 -24t24.5 -57q0 -34 -24.5 -58t-58.5 -24zM433 0h-302v10q66 6 66 84v134l-114 216
q-21 37 -36.5 56t-36.5 29v8h285v-8q-28 -5 -34 -31t13 -63l86 -169l51 109q24 49 22 82.5t-15.5 50.5t-34.5 21v8h189v-8q-76 -23 -131 -140l-74 -157v-138q0 -78 66 -84v-10z" />
    <glyph glyph-name="Ygrave.smcp" horiz-adv-x="582" 
d="M372 607h-11l-158 41q-25 6 -39.5 22.5t-14.5 37.5q0 22 15.5 38t38.5 16q24 0 46 -22zM433 0h-302v10q66 6 66 84v134l-114 216q-21 37 -36.5 56t-36.5 29v8h285v-8q-28 -5 -34 -31t13 -63l86 -169l51 109q24 49 22 82.5t-15.5 50.5t-34.5 21v8h189v-8
q-76 -23 -131 -140l-74 -157v-138q0 -78 66 -84v-10z" />
    <glyph glyph-name="Zacute.smcp" horiz-adv-x="546" 
d="M205 607l123 133q22 22 46 22q22 0 38 -16t16 -38q0 -21 -14.5 -37.5t-39.5 -22.5l-158 -41h-11zM19 0l-4 11l308 509h-48q-77 0 -137.5 -45t-91.5 -114h-15l36 176h437l5 -11l-309 -509h77q73 0 134.5 57t89.5 133h14l-20 -207h-476z" />
    <glyph glyph-name="Zcaron.smcp" horiz-adv-x="546" 
d="M132 743l145 -54l151 54h14l-116 -130h-100l-112 130h18zM19 0l-4 11l308 509h-48q-77 0 -137.5 -45t-91.5 -114h-15l36 176h437l5 -11l-309 -509h77q73 0 134.5 57t89.5 133h14l-20 -207h-476z" />
    <glyph glyph-name="Zdotaccent.smcp" horiz-adv-x="546" 
d="M276 614q-33 0 -57.5 24t-24.5 58q0 32 24.5 56.5t57.5 24.5q34 0 58.5 -24t24.5 -57q0 -34 -24.5 -58t-58.5 -24zM19 0l-4 11l308 509h-48q-77 0 -137.5 -45t-91.5 -114h-15l36 176h437l5 -11l-309 -509h77q73 0 134.5 57t89.5 133h14l-20 -207h-476z" />
    <glyph glyph-name="caronSlovak" 
d="M209 455h-9l-3 200q-1 36 16.5 54t43.5 18q23 0 40 -16t17 -43q0 -22 -15 -52z" />
    <glyph glyph-name="grave.cap" 
d="M357 770h-11l-158 41q-25 6 -39.5 22.5t-14.5 37.5q0 23 16 38.5t38 15.5q24 0 46 -22z" />
    <glyph glyph-name="acute.cap" 
d="M143 770l123 133q22 22 46 22q22 0 38 -15.5t16 -38.5q0 -21 -14.5 -37.5t-39.5 -22.5l-158 -41h-11z" />
    <glyph glyph-name="circumflex.cap" 
d="M396 776l-145 55l-151 -55h-14l116 130h100l112 -130h-18z" />
    <glyph glyph-name="tilde.cap" 
d="M413 904q-4 -53 -32.5 -89.5t-70.5 -36.5q-25 0 -72.5 20t-72.5 20q-47 0 -64 -40l-10 2q4 52 33 88.5t71 36.5q25 0 72 -20t72 -20q47 0 64 41z" />
    <glyph glyph-name="macron.cap" 
d="M109 845h281v-31h-281v31z" />
    <glyph glyph-name="breve.cap" 
d="M249 779q-64 0 -105 36t-41 100h16q4 -28 38.5 -43t91.5 -15t92 15t39 43h16q0 -64 -41.5 -100t-105.5 -36z" />
    <glyph glyph-name="dotaccent.cap" 
d="M249 777q-33 0 -57.5 24t-24.5 58q0 32 24.5 56.5t57.5 24.5q34 0 58.5 -24t24.5 -57q0 -34 -24.5 -58t-58.5 -24z" />
    <glyph glyph-name="dieresis.cap" 
d="M144 777q-33 0 -57.5 24t-24.5 58q0 32 24.5 56.5t57.5 24.5q34 0 58.5 -24t24.5 -57q0 -34 -24.5 -58t-58.5 -24zM354 777q-34 0 -58 24t-24 58q0 33 24 57t58 24t58.5 -24t24.5 -57q0 -34 -24.5 -58t-58.5 -24z" />
    <glyph glyph-name="ring.cap" 
d="M249 972q43 0 73 -31t30 -74t-30 -73t-73 -30t-72.5 30t-29.5 73t29.5 74t72.5 31zM249 950q-32 0 -54.5 -24.5t-22.5 -58.5t22.5 -57.5t54.5 -23.5t55 23.5t23 57.5t-23 58.5t-55 24.5z" />
    <glyph glyph-name="hungarumlaut.cap" 
d="M260 775l70 111q20 33 52 33q18 0 30.5 -12.5t12.5 -29.5q0 -37 -49 -57l-106 -45h-10zM90 775l69 111q21 33 53 33q18 0 30.5 -12.5t12.5 -29.5q0 -36 -49 -57l-106 -45h-10z" />
    <glyph glyph-name="caron.cap" 
d="M104 906l145 -54l151 54h14l-116 -130h-100l-112 130h18z" />
    <glyph glyph-name="exclamdown.cap" horiz-adv-x="295" 
d="M146 539q-36 0 -62.5 26t-26.5 62q0 37 26.5 63t62.5 26q37 0 63 -26t26 -63q0 -36 -26 -62t-63 -26zM136 475h21q6 -73 47.5 -203t41.5 -179q0 -52 -28 -82t-72 -30q-43 0 -71 30t-28 82q0 49 41 179.5t48 202.5z" />
    <glyph glyph-name="questiondown.cap" horiz-adv-x="522" 
d="M350 625q0 -36 -26 -62t-63 -26q-36 0 -62.5 26t-26.5 62q0 37 26.5 63t62.5 26q37 0 63 -26t26 -63zM254 468h27q1 -6 1 -16q0 -38 -15.5 -69t-33.5 -51t-33.5 -62.5t-15.5 -99.5q0 -75 28 -119.5t76 -44.5q36 0 58 29.5t22 74.5q0 25 -10 50t-10 37q0 26 20.5 44.5
t52.5 18.5q34 0 55.5 -24t21.5 -64q0 -75 -68 -130.5t-171 -55.5q-115 0 -179 43t-64 126q0 57 35.5 98t103.5 82q33 19 50 32t33 39.5t16 61.5z" />
    <glyph glyph-name="reversequoteleft" horiz-adv-x="274" 
d="M176 564q-7 -4 -21.5 -9.5t-21.5 -9t-13 -12t-6 -20.5q0 -24 29.5 -53t59.5 -34l-6 -16q-70 15 -113.5 79.5t-43.5 140.5q0 49 26.5 77t67.5 28q43 0 69 -26.5t26 -63.5q0 -55 -53 -81z" />
    <glyph glyph-name="reversequotedblleft" horiz-adv-x="495" 
d="M176 566q-7 -4 -21.5 -9.5t-21.5 -9t-13 -12t-6 -20.5q0 -24 29.5 -53t59.5 -34l-6 -16q-70 15 -113.5 79.5t-43.5 140.5q0 49 26.5 77t67.5 28q43 0 69 -26.5t26 -63.5q0 -55 -53 -81zM397 566q-7 -4 -21.5 -9.5t-21.5 -9t-13 -12t-6 -20.5q0 -24 29.5 -53t59.5 -34
l-6 -16q-70 15 -113.5 79.5t-43.5 140.5q0 49 26.5 77t67.5 28q43 0 69 -26.5t26 -63.5q0 -55 -53 -81z" />
    <glyph glyph-name="doublebar" horiz-adv-x="318" 
d="M218 701v-950h-28v950h28zM128 701v-950h-28v950h28z" />
    <glyph glyph-name="thinspace" horiz-adv-x="150" 
 />
    <glyph glyph-name="zerowidthspace" horiz-adv-x="0" 
 />
    <glyph glyph-name="emspace" horiz-adv-x="806" 
 />
    <glyph glyph-name="nbspace" horiz-adv-x="190" 
 />
    </font>
</defs>
</svg>
